<?xml version="1.0" encoding="UTF-8"?>
<!DOCTYPE svg PUBLIC "-//W3C//DTD SVG 1.1//EN" "http://www.w3.org/Graphics/SVG/1.1/DTD/svg11.dtd">
<svg xmlns="http://www.w3.org/2000/svg" version="1.1" width="1000px" height="250px" style="shape-rendering:geometricPrecision; text-rendering:geometricPrecision; image-rendering:optimizeQuality; fill-rule:evenodd; clip-rule:evenodd" xmlns:xlink="http://www.w3.org/1999/xlink">
<g><path style="opacity:1" fill="#eff8fd" d="M 513.5,27.5 C 514.93,27.4208 516.264,27.7542 517.5,28.5C 518.23,30.3413 518.897,32.1746 519.5,34C 523.152,34.4986 526.818,34.6653 530.5,34.5C 530.34,36.1992 530.506,37.8659 531,39.5C 533,40.1667 535,40.8333 537,41.5C 537.494,43.1341 537.66,44.8008 537.5,46.5C 539.467,46.2606 541.301,46.5939 543,47.5C 543.499,51.1516 543.665,54.8183 543.5,58.5C 548.5,57.5 550.5,59.5 549.5,64.5C 547.283,65.3686 544.95,65.702 542.5,65.5C 542.5,67.5 542.5,69.5 542.5,71.5C 534.167,71.5 525.833,71.5 517.5,71.5C 517.5,73.5 517.5,75.5 517.5,77.5C 513.298,77.1832 509.298,77.5166 505.5,78.5C 505.5,80.5 505.5,82.5 505.5,84.5C 503.5,84.5 501.5,84.5 499.5,84.5C 499.5,88.5 499.5,92.5 499.5,96.5C 499.5,98.5 499.5,100.5 499.5,102.5C 488.986,102.172 478.653,102.506 468.5,103.5C 468.5,104.833 468.5,106.167 468.5,107.5C 464.366,108.485 460.032,108.818 455.5,108.5C 455.5,110.5 455.5,112.5 455.5,114.5C 447.5,114.5 439.5,114.5 431.5,114.5C 431.5,116.833 431.5,119.167 431.5,121.5C 425.167,121.5 418.833,121.5 412.5,121.5C 412.5,119.5 412.5,117.5 412.5,115.5C 410.5,115.5 408.5,115.5 406.5,115.5C 406.5,113.5 406.5,111.5 406.5,109.5C 408.5,109.5 410.5,109.5 412.5,109.5C 412.5,103.167 412.5,96.8333 412.5,90.5C 414.833,90.5 417.167,90.5 419.5,90.5C 419.5,88.5 419.5,86.5 419.5,84.5C 433.833,84.5 448.167,84.5 462.5,84.5C 462.5,86.5 462.5,88.5 462.5,90.5C 464.5,90.5 466.5,90.5 468.5,90.5C 468.5,86.1667 468.5,81.8333 468.5,77.5C 466.5,77.5 464.5,77.5 462.5,77.5C 462.5,75.5 462.5,73.5 462.5,71.5C 458.167,71.5 453.833,71.5 449.5,71.5C 449.177,65.31 449.51,59.31 450.5,53.5C 452.5,53.5 454.5,53.5 456.5,53.5C 456.5,51.1667 456.5,48.8333 456.5,46.5C 462.176,46.6661 467.843,46.4994 473.5,46C 474.167,44.3333 474.833,42.6667 475.5,41C 479.152,40.5014 482.818,40.3347 486.5,40.5C 486.325,38.3792 486.659,36.3792 487.5,34.5C 493.833,34.5 500.167,34.5 506.5,34.5C 506.854,32.4588 506.854,30.6255 506.5,29C 509.036,28.8138 511.369,28.3138 513.5,27.5 Z"/></g>
<g><path style="opacity:1" fill="#c0e6fa" d="M 487.5,34.5 C 486.659,36.3792 486.325,38.3792 486.5,40.5C 482.818,40.3347 479.152,40.5014 475.5,41C 474.833,42.6667 474.167,44.3333 473.5,46C 467.843,46.4994 462.176,46.6661 456.5,46.5C 456.5,48.8333 456.5,51.1667 456.5,53.5C 454.5,53.5 452.5,53.5 450.5,53.5C 450.816,49.2179 449.816,45.3846 447.5,42C 456.44,40.7846 465.44,40.118 474.5,40C 474.146,38.3745 474.146,36.5412 474.5,34.5C 478.833,34.5 483.167,34.5 487.5,34.5 Z"/></g>
<g><path style="opacity:1" fill="#eff8fd" d="M 567.5,65.5 C 571.833,65.5 576.167,65.5 580.5,65.5C 580.5,67.5 580.5,69.5 580.5,71.5C 584.555,71.1758 588.555,71.5091 592.5,72.5C 593.165,74.1012 593.499,75.6012 593.5,77C 597.167,77.3333 600.833,77.6667 604.5,78C 605.46,81.73 605.793,85.5633 605.5,89.5C 606.552,91.256 608.219,91.9227 610.5,91.5C 610.666,98.8409 610.5,106.174 610,113.5C 609.586,113.043 609.086,112.709 608.5,112.5C 607.476,113.853 606.143,114.52 604.5,114.5C 604.5,116.833 604.5,119.167 604.5,121.5C 602.533,121.261 600.699,121.594 599,122.5C 598.501,126.486 598.334,130.486 598.5,134.5C 602.5,134.5 606.5,134.5 610.5,134.5C 610.216,136.415 610.549,138.081 611.5,139.5C 613.5,139.5 615.5,139.5 617.5,139.5C 617.5,143.5 617.5,147.5 617.5,151.5C 613.702,152.483 609.702,152.817 605.5,152.5C 604.833,154.5 604.167,156.5 603.5,158.5C 599.833,158.5 596.167,158.5 592.5,158.5C 592.5,160.5 592.5,162.5 592.5,164.5C 588.167,164.5 583.833,164.5 579.5,164.5C 579.5,166.5 579.5,168.5 579.5,170.5C 577.983,170.511 576.816,171.177 576,172.5C 575.667,171.833 575.333,171.167 575,170.5C 574.667,171.833 574.333,173.167 574,174.5C 573.614,167.939 573.781,161.272 574.5,154.5C 574.023,153.522 573.357,152.689 572.5,152C 573.574,151.261 574.241,150.261 574.5,149C 573.805,145.781 572.472,142.947 570.5,140.5C 571.833,140.5 573.167,140.5 574.5,140.5C 574.5,136.167 574.5,131.833 574.5,127.5C 572.167,127.5 569.833,127.5 567.5,127.5C 567.5,125.5 567.5,123.5 567.5,121.5C 557.167,121.5 546.833,121.5 536.5,121.5C 536.5,123.5 536.5,125.5 536.5,127.5C 532.167,127.5 527.833,127.5 523.5,127.5C 523.5,129.5 523.5,131.5 523.5,133.5C 519.5,133.5 515.5,133.5 511.5,133.5C 511.5,137.5 511.5,141.5 511.5,145.5C 509.5,146.167 507.5,146.833 505.5,147.5C 502.167,146.833 500.167,148.167 499.5,151.5C 493.202,152.496 486.868,152.83 480.5,152.5C 480.5,154.5 480.5,156.5 480.5,158.5C 478.5,158.5 476.5,158.5 474.5,158.5C 474.5,160.5 474.5,162.5 474.5,164.5C 468.5,164.5 462.5,164.5 456.5,164.5C 457.265,159.094 454.931,157.094 449.5,158.5C 449.5,152.5 449.5,146.5 449.5,140.5C 449.5,140.167 449.5,139.833 449.5,139.5C 451.5,139.5 453.5,139.5 455.5,139.5C 455.5,135.5 455.5,131.5 455.5,127.5C 457.833,127.5 460.167,127.5 462.5,127.5C 462.167,125.5 461.833,123.5 461.5,121.5C 465.833,121.5 470.167,121.5 474.5,121.5C 474.5,119.5 474.5,117.5 474.5,115.5C 480.833,115.5 487.167,115.5 493.5,115.5C 493.5,113.5 493.5,111.5 493.5,109.5C 495.5,109.5 497.5,109.5 499.5,109.5C 498.094,104.069 500.094,101.735 505.5,102.5C 505.5,100.5 505.5,98.5 505.5,96.5C 507.5,96.5 509.5,96.5 511.5,96.5C 511.5,94.5 511.5,92.5 511.5,90.5C 513.833,90.5 516.167,90.5 518.5,90.5C 518.5,88.5 518.5,86.5 518.5,84.5C 524.833,84.5 531.167,84.5 537.5,84.5C 537.5,82.5 537.5,80.5 537.5,78.5C 541.5,78.5 545.5,78.5 549.5,78.5C 549.5,76.1667 549.5,73.8333 549.5,71.5C 555.5,71.5 561.5,71.5 567.5,71.5C 567.5,69.5 567.5,67.5 567.5,65.5 Z"/></g>
<g><path style="opacity:1" fill="#eff8fe" d="M 307.5,65.5 C 311.5,65.5 315.5,65.5 319.5,65.5C 319.261,67.4672 319.594,69.3005 320.5,71C 324.167,71.3333 327.833,71.6667 331.5,72C 332.406,73.6995 332.739,75.5328 332.5,77.5C 336.5,77.5 340.5,77.5 344.5,77.5C 344.334,81.5138 344.501,85.5138 345,89.5C 349.377,89.2325 351.544,91.5658 351.5,96.5C 350.51,102.645 350.177,108.978 350.5,115.5C 348.5,115.5 346.5,115.5 344.5,115.5C 344.5,117.5 344.5,119.5 344.5,121.5C 342.5,121.5 340.5,121.5 338.5,121.5C 338.5,125.5 338.5,129.5 338.5,133.5C 340.5,133.5 342.5,133.5 344.5,133.5C 349.495,132.582 351.828,134.582 351.5,139.5C 353.199,139.34 354.866,139.506 356.5,140C 357.252,140.671 357.586,141.504 357.5,142.5C 356.521,145.625 356.187,148.958 356.5,152.5C 352.5,152.5 348.5,152.5 344.5,152.5C 344.5,154.167 344.5,155.833 344.5,157.5C 340.265,158.436 335.931,158.769 331.5,158.5C 331.5,160.5 331.5,162.5 331.5,164.5C 327.298,164.183 323.298,164.517 319.5,165.5C 319.5,167.167 319.5,168.833 319.5,170.5C 327.65,171.493 335.983,171.826 344.5,171.5C 344.5,169.167 344.5,166.833 344.5,164.5C 352.5,164.5 360.5,164.5 368.5,164.5C 368.5,166.833 368.5,169.167 368.5,171.5C 370.833,171.5 373.167,171.5 375.5,171.5C 375.5,173.5 375.5,175.5 375.5,177.5C 377.5,177.5 379.5,177.5 381.5,177.5C 381.5,183.5 381.5,189.5 381.5,195.5C 379.5,195.5 377.5,195.5 375.5,195.5C 375.5,193.5 375.5,191.5 375.5,189.5C 371.167,189.5 366.833,189.5 362.5,189.5C 362.5,191.5 362.5,193.5 362.5,195.5C 360.5,195.5 358.5,195.5 356.5,195.5C 356.5,197.5 356.5,199.5 356.5,201.5C 354.5,201.5 352.5,201.5 350.5,201.5C 350.5,203.833 350.5,206.167 350.5,208.5C 340.167,208.5 329.833,208.5 319.5,208.5C 319.5,206.167 319.5,203.833 319.5,201.5C 315.5,201.5 311.5,201.5 307.5,201.5C 307.5,199.5 307.5,197.5 307.5,195.5C 305.5,195.5 303.5,195.5 301.5,195.5C 301.5,193.833 301.5,192.167 301.5,190.5C 306.906,191.265 308.906,188.931 307.5,183.5C 309.5,183.5 311.5,183.5 313.5,183.5C 313.5,181.5 313.5,179.5 313.5,177.5C 309.5,177.5 305.5,177.5 301.5,177.5C 301.5,179.167 301.5,180.833 301.5,182.5C 300.833,182.5 300.5,182.833 300.5,183.5C 298.5,183.5 296.5,183.5 294.5,183.5C 294.5,185.5 294.5,187.5 294.5,189.5C 292.5,189.5 290.5,189.5 288.5,189.5C 288.5,191.5 288.5,193.5 288.5,195.5C 288.5,197.5 288.5,199.5 288.5,201.5C 284.167,201.5 279.833,201.5 275.5,201.5C 275.5,203.833 275.5,206.167 275.5,208.5C 259.167,208.5 242.833,208.5 226.5,208.5C 226.5,206.167 226.5,203.833 226.5,201.5C 222.5,201.5 218.5,201.5 214.5,201.5C 214.5,199.5 214.5,197.5 214.5,195.5C 212.5,195.5 210.5,195.5 208.5,195.5C 208.5,193.5 208.5,191.5 208.5,189.5C 210.5,189.5 212.5,189.5 214.5,189.5C 214.5,187.5 214.5,185.5 214.5,183.5C 216.5,183.5 218.5,183.5 220.5,183.5C 220.5,181.5 220.5,179.5 220.5,177.5C 224.5,177.5 228.5,177.5 232.5,177.5C 232.5,175.5 232.5,173.5 232.5,171.5C 242.833,171.5 253.167,171.5 263.5,171.5C 263.5,173.5 263.5,175.5 263.5,177.5C 265.5,177.5 267.5,177.5 269.5,177.5C 269.5,179.5 269.5,181.5 269.5,183.5C 267.5,183.5 265.5,183.5 263.5,183.5C 263.5,185.5 263.5,187.5 263.5,189.5C 265.833,189.5 268.167,189.5 270.5,189.5C 270.5,187.5 270.5,185.5 270.5,183.5C 272.5,183.5 274.5,183.5 276.5,183.5C 276.5,181.167 276.5,178.833 276.5,176.5C 274.5,176.5 272.5,176.5 270.5,176.5C 270.5,174.5 270.5,172.5 270.5,170.5C 268.5,170.5 266.5,170.5 264.5,170.5C 264.795,168.265 264.461,166.265 263.5,164.5C 261.5,164.5 259.5,164.5 257.5,164.5C 257.5,160.5 257.5,156.5 257.5,152.5C 259.604,152.799 261.604,152.466 263.5,151.5C 264.426,147.906 264.759,144.24 264.5,140.5C 268.5,140.5 272.5,140.5 276.5,140.5C 276.5,138.167 276.5,135.833 276.5,133.5C 282.833,133.5 289.167,133.5 295.5,133.5C 295.5,131.833 295.5,130.167 295.5,128.5C 297.167,128.5 298.833,128.5 300.5,128.5C 300.5,130.5 300.5,132.5 300.5,134.5C 302.5,134.5 304.5,134.5 306.5,134.5C 306.232,136.099 306.566,137.432 307.5,138.5C 308.918,140.308 310.918,140.975 313.5,140.5C 313.5,136.167 313.5,131.833 313.5,127.5C 311.5,127.5 309.5,127.5 307.5,127.5C 307.5,125.5 307.5,123.5 307.5,121.5C 297.167,121.5 286.833,121.5 276.5,121.5C 276.5,123.5 276.5,125.5 276.5,127.5C 272.167,127.5 267.833,127.5 263.5,127.5C 263.5,129.5 263.5,131.5 263.5,133.5C 259.5,133.5 255.5,133.5 251.5,133.5C 251.5,137.833 251.5,142.167 251.5,146.5C 249.167,146.5 246.833,146.5 244.5,146.5C 244.5,150.5 244.5,154.5 244.5,158.5C 238.5,158.5 232.5,158.5 226.5,158.5C 226.5,160.5 226.5,162.5 226.5,164.5C 224.5,164.5 222.5,164.5 220.5,164.5C 220.5,166.5 220.5,168.5 220.5,170.5C 216.6,171.43 212.6,171.763 208.5,171.5C 208.5,173.5 208.5,175.5 208.5,177.5C 199.833,177.5 191.167,177.5 182.5,177.5C 182.665,174.15 182.498,170.817 182,167.5C 176.673,166.8 175.173,163.967 177.5,159C 179.473,158.505 181.473,158.338 183.5,158.5C 183.5,154.5 183.5,150.5 183.5,146.5C 188.373,146.627 190.373,144.294 189.5,139.5C 191.167,139.5 192.833,139.5 194.5,139.5C 195.162,135.534 195.495,131.534 195.5,127.5C 197.5,127.5 199.5,127.5 201.5,127.5C 201.5,125.5 201.5,123.5 201.5,121.5C 203.5,121.5 205.5,121.5 207.5,121.5C 207.5,119.5 207.5,117.5 207.5,115.5C 217.833,115.5 228.167,115.5 238.5,115.5C 238.183,119.702 238.517,123.702 239.5,127.5C 241.167,127.5 242.833,127.5 244.5,127.5C 245.485,123.366 245.818,119.032 245.5,114.5C 243.5,114.5 241.5,114.5 239.5,114.5C 239.5,110.833 239.5,107.167 239.5,103.5C 241.5,103.5 243.5,103.5 245.5,103.5C 245.5,101.167 245.5,98.8333 245.5,96.5C 247.144,96.7135 248.644,96.3802 250,95.5C 250.236,93.236 250.736,91.0693 251.5,89C 253.425,89.1349 255.425,89.3016 257.5,89.5C 257.5,87.5 257.5,85.5 257.5,83.5C 263.5,83.5 269.5,83.5 275.5,83.5C 275.5,81.5 275.5,79.5 275.5,77.5C 278.807,77.9368 281.807,77.2702 284.5,75.5C 285.167,75.8333 285.833,76.1667 286.5,76.5C 287.452,74.9547 287.785,73.288 287.5,71.5C 294.167,71.5 300.833,71.5 307.5,71.5C 307.5,69.5 307.5,67.5 307.5,65.5 Z"/></g>
<g><path style="opacity:1" fill="#aed3e9" d="M 513.5,27.5 C 511.369,28.3138 509.036,28.8138 506.5,29C 506.854,30.6255 506.854,32.4588 506.5,34.5C 500.167,34.5 493.833,34.5 487.5,34.5C 483.167,34.5 478.833,34.5 474.5,34.5C 474.146,36.5412 474.146,38.3745 474.5,40C 465.44,40.118 456.44,40.7846 447.5,42C 449.816,45.3846 450.816,49.2179 450.5,53.5C 449.51,59.31 449.177,65.31 449.5,71.5C 453.833,71.5 458.167,71.5 462.5,71.5C 462.5,73.5 462.5,75.5 462.5,77.5C 464.5,77.5 466.5,77.5 468.5,77.5C 468.5,81.8333 468.5,86.1667 468.5,90.5C 466.5,90.5 464.5,90.5 462.5,90.5C 462.5,88.5 462.5,86.5 462.5,84.5C 462.739,82.5328 462.406,80.6995 461.5,79C 447.171,78.5001 432.837,78.3334 418.5,78.5C 418.5,80.5 418.5,82.5 418.5,84.5C 414.76,84.2408 411.094,84.5741 407.5,85.5C 406.8,89.041 406.133,92.541 405.5,96C 403,96.5 400.5,97 398,97.5C 396.93,97.472 396.097,97.1386 395.5,96.5C 396.833,96.5 398.167,96.5 399.5,96.5C 399.234,92.4295 399.567,88.4295 400.5,84.5C 402.216,84.0028 403.883,83.6694 405.5,83.5C 406.23,81.6587 406.897,79.8254 407.5,78C 411.152,77.5014 414.818,77.3347 418.5,77.5C 418.5,75.5 418.5,73.5 418.5,71.5C 424.758,71.8097 430.924,71.4764 437,70.5C 436.002,64.7948 436.336,59.1281 438,53.5C 439.667,53.1667 441.333,52.8333 443,52.5C 443.499,48.5138 443.666,44.5138 443.5,40.5C 448.5,41.5 450.5,39.5 449.5,34.5C 457.507,34.6664 465.507,34.4997 473.5,34C 474.406,32.3005 474.739,30.4672 474.5,28.5C 487.542,27.6574 500.542,27.324 513.5,27.5 Z"/></g>
<g><path style="opacity:1" fill="#bde1f3" d="M 549.5,64.5 C 555.31,65.4896 561.31,65.8229 567.5,65.5C 567.5,67.5 567.5,69.5 567.5,71.5C 561.5,71.5 555.5,71.5 549.5,71.5C 549.5,73.8333 549.5,76.1667 549.5,78.5C 545.5,78.5 541.5,78.5 537.5,78.5C 537.5,80.5 537.5,82.5 537.5,84.5C 531.167,84.5 524.833,84.5 518.5,84.5C 518.5,86.5 518.5,88.5 518.5,90.5C 516.167,90.5 513.833,90.5 511.5,90.5C 511.5,92.5 511.5,94.5 511.5,96.5C 509.5,96.5 507.5,96.5 505.5,96.5C 505.335,92.8183 505.501,89.1516 506,85.5C 509.767,84.6318 513.601,83.9651 517.5,83.5C 517.5,81.8333 517.5,80.1667 517.5,78.5C 513.5,78.5 509.5,78.5 505.5,78.5C 509.298,77.5166 513.298,77.1832 517.5,77.5C 517.5,75.5 517.5,73.5 517.5,71.5C 525.833,71.5 534.167,71.5 542.5,71.5C 542.5,69.5 542.5,67.5 542.5,65.5C 544.95,65.702 547.283,65.3686 549.5,64.5 Z"/></g>
<g><path style="opacity:1" fill="#b8def1" d="M 307.5,65.5 C 307.5,67.5 307.5,69.5 307.5,71.5C 300.833,71.5 294.167,71.5 287.5,71.5C 287.785,73.288 287.452,74.9547 286.5,76.5C 285.833,76.1667 285.167,75.8333 284.5,75.5C 281.807,77.2702 278.807,77.9368 275.5,77.5C 275.5,79.5 275.5,81.5 275.5,83.5C 269.5,83.5 263.5,83.5 257.5,83.5C 257.5,85.5 257.5,87.5 257.5,89.5C 255.425,89.3016 253.425,89.1349 251.5,89C 250.736,91.0693 250.236,93.236 250,95.5C 248.644,96.3802 247.144,96.7135 245.5,96.5C 245.5,98.8333 245.5,101.167 245.5,103.5C 243.5,103.5 241.5,103.5 239.5,103.5C 239.5,107.167 239.5,110.833 239.5,114.5C 241.5,114.5 243.5,114.5 245.5,114.5C 245.818,119.032 245.485,123.366 244.5,127.5C 244.5,123.5 244.5,119.5 244.5,115.5C 242.833,115.5 241.167,115.5 239.5,115.5C 239.5,119.5 239.5,123.5 239.5,127.5C 238.517,123.702 238.183,119.702 238.5,115.5C 228.167,115.5 217.833,115.5 207.5,115.5C 207.5,113.5 207.5,111.5 207.5,109.5C 215.854,109.573 224.188,109.24 232.5,108.5C 232.338,106.473 232.505,104.473 233,102.5C 234.892,101.383 235.725,99.7159 235.5,97.5C 239.908,97.938 241.575,95.938 240.5,91.5C 243.5,91.8333 244.833,90.5 244.5,87.5C 242.833,87.5 241.167,87.5 239.5,87.5C 239.5,86.5 239.5,85.5 239.5,84.5C 240.873,84.6567 242.207,84.49 243.5,84C 244.056,81.7635 245.056,79.7635 246.5,78C 250.152,77.5014 253.818,77.3347 257.5,77.5C 257.5,75.5 257.5,73.5 257.5,71.5C 263.5,71.5 269.5,71.5 275.5,71.5C 275.357,69.7376 275.691,68.0709 276.5,66.5C 286.812,65.5014 297.145,65.1681 307.5,65.5 Z"/></g>
<g><path style="opacity:1" fill="#add1e3" d="M 505.5,78.5 C 509.5,78.5 513.5,78.5 517.5,78.5C 517.5,80.1667 517.5,81.8333 517.5,83.5C 513.601,83.9651 509.767,84.6318 506,85.5C 505.501,89.1516 505.335,92.8183 505.5,96.5C 503.5,96.5 501.5,96.5 499.5,96.5C 499.5,92.5 499.5,88.5 499.5,84.5C 501.5,84.5 503.5,84.5 505.5,84.5C 505.5,82.5 505.5,80.5 505.5,78.5 Z"/></g>
<g><path style="opacity:1" fill="#c3e6f5" d="M 499.5,96.5 C 501.5,96.5 503.5,96.5 505.5,96.5C 505.5,98.5 505.5,100.5 505.5,102.5C 500.094,101.735 498.094,104.069 499.5,109.5C 497.5,109.5 495.5,109.5 493.5,109.5C 493.5,111.5 493.5,113.5 493.5,115.5C 487.167,115.5 480.833,115.5 474.5,115.5C 472.5,115.5 470.5,115.5 468.5,115.5C 468.5,113.5 468.5,111.5 468.5,109.5C 464.5,109.5 460.5,109.5 456.5,109.5C 456.784,111.415 456.451,113.081 455.5,114.5C 455.5,112.5 455.5,110.5 455.5,108.5C 460.032,108.818 464.366,108.485 468.5,107.5C 476.748,108.469 485.082,108.802 493.5,108.5C 493.5,106.833 493.5,105.167 493.5,103.5C 485.167,103.5 476.833,103.5 468.5,103.5C 478.653,102.506 488.986,102.172 499.5,102.5C 499.5,100.5 499.5,98.5 499.5,96.5 Z"/></g>
<g><path style="opacity:1" fill="#acd0e4" d="M 468.5,103.5 C 476.833,103.5 485.167,103.5 493.5,103.5C 493.5,105.167 493.5,106.833 493.5,108.5C 485.082,108.802 476.748,108.469 468.5,107.5C 468.5,106.167 468.5,104.833 468.5,103.5 Z"/></g>
<g><path style="opacity:1" fill="#c4eaf7" d="M 710.5,102.5 C 714.5,102.5 718.5,102.5 722.5,102.5C 722.5,104.833 722.5,107.167 722.5,109.5C 718.5,109.5 714.5,109.5 710.5,109.5C 710.5,107.167 710.5,104.833 710.5,102.5 Z"/></g>
<g><path style="opacity:1" fill="#acd3e9" d="M 393.5,97.5 C 395.229,99.7267 397.562,100.727 400.5,100.5C 400.5,101.5 400.5,102.5 400.5,103.5C 398.738,103.643 397.071,103.309 395.5,102.5C 394.502,110.807 394.169,119.14 394.5,127.5C 396.5,127.5 398.5,127.5 400.5,127.5C 400.5,129.167 400.5,130.833 400.5,132.5C 397.068,132.873 394.734,131.54 393.5,128.5C 391.621,127.659 389.621,127.325 387.5,127.5C 387.334,119.493 387.5,111.493 388,103.5C 392.109,103.529 393.943,101.529 393.5,97.5 Z"/></g>
<g><path style="opacity:1" fill="#aed5f0" d="M 239.5,84.5 C 239.5,85.5 239.5,86.5 239.5,87.5C 241.167,87.5 242.833,87.5 244.5,87.5C 244.833,90.5 243.5,91.8333 240.5,91.5C 241.575,95.938 239.908,97.938 235.5,97.5C 235.725,99.7159 234.892,101.383 233,102.5C 232.505,104.473 232.338,106.473 232.5,108.5C 224.188,109.24 215.854,109.573 207.5,109.5C 207.5,111.5 207.5,113.5 207.5,115.5C 207.5,117.5 207.5,119.5 207.5,121.5C 205.5,121.5 203.5,121.5 201.5,121.5C 201.5,123.5 201.5,125.5 201.5,127.5C 199.5,127.5 197.5,127.5 195.5,127.5C 193.167,127.5 190.833,127.5 188.5,127.5C 188.234,123.429 188.567,119.429 189.5,115.5C 191.108,114.758 192.775,114.591 194.5,115C 195.167,113 195.833,111 196.5,109C 200.152,108.501 203.818,108.335 207.5,108.5C 207.261,106.533 207.594,104.699 208.5,103C 216.167,102.667 223.833,102.333 231.5,102C 232.406,100.301 232.739,98.4672 232.5,96.5C 234.467,96.7394 236.301,96.4061 238,95.5C 238.177,91.6437 238.677,87.977 239.5,84.5 Z"/></g>
<g><path style="opacity:1" fill="#eff8fd" d="M 722.5,102.5 C 726.833,102.5 731.167,102.5 735.5,102.5C 734.5,107.5 736.5,109.5 741.5,108.5C 741.5,110.5 741.5,112.5 741.5,114.5C 746.576,114.073 749.409,116.407 750,121.5C 751.749,120.447 753.249,120.78 754.5,122.5C 753.518,125.962 753.185,129.629 753.5,133.5C 749.5,133.5 745.5,133.5 741.5,133.5C 741.5,137.833 741.5,142.167 741.5,146.5C 739.5,146.5 737.5,146.5 735.5,146.5C 735.5,150.5 735.5,154.5 735.5,158.5C 729.167,158.5 722.833,158.5 716.5,158.5C 716.5,160.5 716.5,162.5 716.5,164.5C 714.5,164.5 712.5,164.5 710.5,164.5C 710.5,166.833 710.5,169.167 710.5,171.5C 706.5,171.5 702.5,171.5 698.5,171.5C 698.5,173.5 698.5,175.5 698.5,177.5C 690.167,177.5 681.833,177.5 673.5,177.5C 671.74,174.299 670.906,170.633 671,166.5C 666.954,165.445 665.454,162.779 666.5,158.5C 668.833,158.5 671.167,158.5 673.5,158.5C 673.5,154.5 673.5,150.5 673.5,146.5C 675.5,146.5 677.5,146.5 679.5,146.5C 679.5,144.5 679.5,142.5 679.5,140.5C 681.5,140.5 683.5,140.5 685.5,140.5C 685.5,136.167 685.5,131.833 685.5,127.5C 687.5,127.5 689.5,127.5 691.5,127.5C 691.5,125.5 691.5,123.5 691.5,121.5C 695.514,121.334 699.514,121.501 703.5,122C 704.406,123.699 704.739,125.533 704.5,127.5C 706.5,127.5 708.5,127.5 710.5,127.5C 710.5,125.5 710.5,123.5 710.5,121.5C 708.5,121.5 706.5,121.5 704.5,121.5C 704.5,119.5 704.5,117.5 704.5,115.5C 706.5,115.5 708.5,115.5 710.5,115.5C 710.5,113.5 710.5,111.5 710.5,109.5C 714.5,109.5 718.5,109.5 722.5,109.5C 722.5,107.167 722.5,104.833 722.5,102.5 Z"/></g>
<g><path style="opacity:1" fill="#c0e7fb" d="M 462.5,84.5 C 448.167,84.5 433.833,84.5 419.5,84.5C 419.5,86.5 419.5,88.5 419.5,90.5C 417.167,90.5 414.833,90.5 412.5,90.5C 412.5,96.8333 412.5,103.167 412.5,109.5C 410.5,109.5 408.5,109.5 406.5,109.5C 406.5,111.5 406.5,113.5 406.5,115.5C 408.5,115.5 410.5,115.5 412.5,115.5C 412.5,117.5 412.5,119.5 412.5,121.5C 418.833,121.5 425.167,121.5 431.5,121.5C 431.5,119.167 431.5,116.833 431.5,114.5C 439.5,114.5 447.5,114.5 455.5,114.5C 454.081,115.451 452.415,115.784 450.5,115.5C 450.5,119.5 450.5,123.5 450.5,127.5C 452.167,127.5 453.833,127.5 455.5,127.5C 455.5,131.5 455.5,135.5 455.5,139.5C 453.5,139.5 451.5,139.5 449.5,139.5C 449.5,135.5 449.5,131.5 449.5,127.5C 447.5,127.5 445.5,127.5 443.5,127.5C 443.5,131.5 443.5,135.5 443.5,139.5C 441.5,139.5 439.5,139.5 437.5,139.5C 437.5,137.5 437.5,135.5 437.5,133.5C 424.5,133.5 411.5,133.5 398.5,133.5C 394.56,134.7 392.893,133.034 393.5,128.5C 394.734,131.54 397.068,132.873 400.5,132.5C 400.5,130.833 400.5,129.167 400.5,127.5C 398.5,127.5 396.5,127.5 394.5,127.5C 394.169,119.14 394.502,110.807 395.5,102.5C 397.071,103.309 398.738,103.643 400.5,103.5C 400.5,102.5 400.5,101.5 400.5,100.5C 397.562,100.727 395.229,99.7267 393.5,97.5C 393.842,96.6618 394.508,96.3284 395.5,96.5C 396.097,97.1386 396.93,97.472 398,97.5C 400.5,97 403,96.5 405.5,96C 406.133,92.541 406.8,89.041 407.5,85.5C 411.094,84.5741 414.76,84.2408 418.5,84.5C 418.5,82.5 418.5,80.5 418.5,78.5C 432.837,78.3334 447.171,78.5001 461.5,79C 462.406,80.6995 462.739,82.5328 462.5,84.5 Z"/></g>
<g><path style="opacity:1" fill="#c4eaf8" d="M 351.5,96.5 C 351.5,98.5 351.5,100.5 351.5,102.5C 356.745,101.579 358.745,103.746 357.5,109C 358.745,114.254 356.745,116.421 351.5,115.5C 351.66,117.199 351.494,118.866 351,120.5C 349,121.167 347,121.833 345,122.5C 344.501,126.152 344.335,129.818 344.5,133.5C 342.5,133.5 340.5,133.5 338.5,133.5C 338.5,129.5 338.5,125.5 338.5,121.5C 340.5,121.5 342.5,121.5 344.5,121.5C 344.5,119.5 344.5,117.5 344.5,115.5C 346.5,115.5 348.5,115.5 350.5,115.5C 350.177,108.978 350.51,102.645 351.5,96.5 Z"/></g>
<g><path style="opacity:1" fill="#add2e5" d="M 474.5,115.5 C 474.5,117.5 474.5,119.5 474.5,121.5C 470.167,121.5 465.833,121.5 461.5,121.5C 461.833,123.5 462.167,125.5 462.5,127.5C 460.167,127.5 457.833,127.5 455.5,127.5C 453.833,127.5 452.167,127.5 450.5,127.5C 450.5,123.5 450.5,119.5 450.5,115.5C 452.415,115.784 454.081,115.451 455.5,114.5C 456.451,113.081 456.784,111.415 456.5,109.5C 460.5,109.5 464.5,109.5 468.5,109.5C 468.5,111.5 468.5,113.5 468.5,115.5C 470.5,115.5 472.5,115.5 474.5,115.5 Z"/></g>
<g><path style="opacity:0.384" fill="#cceef8" d="M 605.5,89.5 C 607.262,89.3573 608.929,89.6906 610.5,90.5C 611.325,94.1224 611.825,97.789 612,101.5C 613.699,102.406 615.533,102.739 617.5,102.5C 617.5,106.833 617.5,111.167 617.5,115.5C 615.5,115.5 613.5,115.5 611.5,115.5C 611.5,117.5 611.5,119.5 611.5,121.5C 609.533,121.261 607.699,121.594 606,122.5C 605.501,126.152 605.335,129.818 605.5,133.5C 607.5,133.5 609.5,133.5 611.5,133.5C 611.5,135.5 611.5,137.5 611.5,139.5C 610.549,138.081 610.216,136.415 610.5,134.5C 606.5,134.5 602.5,134.5 598.5,134.5C 598.334,130.486 598.501,126.486 599,122.5C 600.699,121.594 602.533,121.261 604.5,121.5C 604.5,119.167 604.5,116.833 604.5,114.5C 606.143,114.52 607.476,113.853 608.5,112.5C 609.086,112.709 609.586,113.043 610,113.5C 610.5,106.174 610.666,98.8409 610.5,91.5C 608.219,91.9227 606.552,91.256 605.5,89.5 Z"/></g>
<g><path style="opacity:1" fill="#aed1e2" d="M 307.5,138.5 C 307.5,136.833 307.5,135.167 307.5,133.5C 305.5,133.5 303.5,133.5 301.5,133.5C 301.5,131.5 301.5,129.5 301.5,127.5C 293.167,127.5 284.833,127.5 276.5,127.5C 276.5,125.5 276.5,123.5 276.5,121.5C 286.833,121.5 297.167,121.5 307.5,121.5C 307.5,123.5 307.5,125.5 307.5,127.5C 309.5,127.5 311.5,127.5 313.5,127.5C 313.5,131.833 313.5,136.167 313.5,140.5C 310.918,140.975 308.918,140.308 307.5,138.5 Z"/></g>
<g><path style="opacity:1" fill="#accfe2" d="M 244.5,127.5 C 242.833,127.5 241.167,127.5 239.5,127.5C 239.5,123.5 239.5,119.5 239.5,115.5C 241.167,115.5 242.833,115.5 244.5,115.5C 244.5,119.5 244.5,123.5 244.5,127.5 Z"/></g>
<g><path style="opacity:1" fill="#b7d1e0" d="M 474.5,121.5 C 476.5,121.5 478.5,121.5 480.5,121.5C 480.5,123.5 480.5,125.5 480.5,127.5C 478.5,127.5 476.5,127.5 474.5,127.5C 474.5,125.5 474.5,123.5 474.5,121.5 Z"/></g>
<g><path style="opacity:1" fill="#afd1e3" d="M 570.5,140.5 C 569.5,140.5 568.5,140.5 567.5,140.5C 567.5,138.167 567.5,135.833 567.5,133.5C 565.5,133.5 563.5,133.5 561.5,133.5C 561.5,131.5 561.5,129.5 561.5,127.5C 559.5,127.5 557.5,127.5 555.5,127.5C 549.167,127.5 542.833,127.5 536.5,127.5C 536.5,125.5 536.5,123.5 536.5,121.5C 546.833,121.5 557.167,121.5 567.5,121.5C 567.5,123.5 567.5,125.5 567.5,127.5C 569.833,127.5 572.167,127.5 574.5,127.5C 574.5,131.833 574.5,136.167 574.5,140.5C 573.167,140.5 571.833,140.5 570.5,140.5 Z"/></g>
<g><path style="opacity:1" fill="#eff8fd" d="M 810.5,153.5 C 809.511,158.975 809.178,164.642 809.5,170.5C 817.528,170.831 825.528,170.498 833.5,169.5C 834.309,167.929 834.643,166.262 834.5,164.5C 838.5,164.5 842.5,164.5 846.5,164.5C 846.5,162.5 846.5,160.5 846.5,158.5C 851.167,158.5 855.833,158.5 860.5,158.5C 864.167,158.5 867.833,158.5 871.5,158.5C 871.833,162.5 872.167,166.5 872.5,170.5C 874.467,170.261 876.301,170.594 878,171.5C 878.333,175.167 878.667,178.833 879,182.5C 879.671,183.252 880.504,183.586 881.5,183.5C 882.209,184.404 883.209,184.737 884.5,184.5C 884.5,186.167 884.5,187.833 884.5,189.5C 886.5,189.5 888.5,189.5 890.5,189.5C 890.5,193.833 890.5,198.167 890.5,202.5C 888.5,202.5 886.5,202.5 884.5,202.5C 884.5,204.5 884.5,206.5 884.5,208.5C 880.167,208.5 875.833,208.5 871.5,208.5C 872.418,203.505 870.418,201.172 865.5,201.5C 865.5,197.5 865.5,193.5 865.5,189.5C 861.167,189.5 856.833,189.5 852.5,189.5C 852.5,191.5 852.5,193.5 852.5,195.5C 850.5,195.5 848.5,195.5 846.5,195.5C 846.5,197.5 846.5,199.5 846.5,201.5C 844.5,201.5 842.5,201.5 840.5,201.5C 840.756,203.792 840.423,205.959 839.5,208C 829.506,208.5 819.506,208.666 809.5,208.5C 809.5,206.167 809.5,203.833 809.5,201.5C 805.5,201.5 801.5,201.5 797.5,201.5C 797.5,199.5 797.5,197.5 797.5,195.5C 795.5,195.5 793.5,195.5 791.5,195.5C 791.5,193.5 791.5,191.5 791.5,189.5C 793.5,189.5 795.5,189.5 797.5,189.5C 797.5,187.5 797.5,185.5 797.5,183.5C 799.5,183.5 801.5,183.5 803.5,183.5C 803.5,181.5 803.5,179.5 803.5,177.5C 799.5,177.5 795.5,177.5 791.5,177.5C 791.5,179.5 791.5,181.5 791.5,183.5C 789.167,183.5 786.833,183.5 784.5,183.5C 784.5,185.5 784.5,187.5 784.5,189.5C 782.5,189.5 780.5,189.5 778.5,189.5C 778.5,191.833 778.5,194.167 778.5,196.5C 778.739,198.467 778.406,200.301 777.5,202C 773.848,202.499 770.182,202.665 766.5,202.5C 766.5,204.5 766.5,206.5 766.5,208.5C 750.163,208.667 733.83,208.5 717.5,208C 716.577,205.959 716.244,203.792 716.5,201.5C 712.5,201.5 708.5,201.5 704.5,201.5C 704.5,199.5 704.5,197.5 704.5,195.5C 702.167,195.5 699.833,195.5 697.5,195.5C 697.5,193.5 697.5,191.5 697.5,189.5C 699.5,189.5 701.5,189.5 703.5,189.5C 703.5,187.5 703.5,185.5 703.5,183.5C 703.833,183.5 704.167,183.5 704.5,183.5C 706.5,183.5 708.5,183.5 710.5,183.5C 710.5,181.5 710.5,179.5 710.5,177.5C 714.548,177.605 718.548,177.272 722.5,176.5C 722.216,174.585 722.549,172.919 723.5,171.5C 733.5,171.5 743.5,171.5 753.5,171.5C 753.5,173.5 753.5,175.5 753.5,177.5C 755.5,177.5 757.5,177.5 759.5,177.5C 759.5,179.5 759.5,181.5 759.5,183.5C 757.5,183.5 755.5,183.5 753.5,183.5C 753.5,185.833 753.5,188.167 753.5,190.5C 755.833,190.5 758.167,190.5 760.5,190.5C 760.5,188.167 760.5,185.833 760.5,183.5C 762.5,183.5 764.5,183.5 766.5,183.5C 767.906,178.069 765.906,175.735 760.5,176.5C 760.5,174.5 760.5,172.5 760.5,170.5C 758.5,170.5 756.5,170.5 754.5,170.5C 754.5,168.5 754.5,166.5 754.5,164.5C 752.167,164.5 749.833,164.5 747.5,164.5C 747.5,160.5 747.5,156.5 747.5,152.5C 749.5,152.5 751.5,152.5 753.5,152.5C 753.5,148.167 753.5,143.833 753.5,139.5C 757.514,139.666 761.514,139.499 765.5,139C 766.406,137.301 766.739,135.467 766.5,133.5C 772.5,133.5 778.5,133.5 784.5,133.5C 784.5,131.5 784.5,129.5 784.5,127.5C 786.167,127.5 787.833,127.5 789.5,127.5C 789.325,125.379 789.659,123.379 790.5,121.5C 792.698,120.933 795.031,120.933 797.5,121.5C 797.261,123.467 797.594,125.301 798.5,127C 802.152,127.499 805.818,127.665 809.5,127.5C 810.021,131.481 810.354,135.481 810.5,139.5C 815.492,138.492 817.492,140.492 816.5,145.5C 817.349,150.512 815.349,153.179 810.5,153.5 Z"/></g>
<g><path style="opacity:1" fill="#bfe5f7" d="M 188.5,127.5 C 190.833,127.5 193.167,127.5 195.5,127.5C 195.495,131.534 195.162,135.534 194.5,139.5C 192.833,139.5 191.167,139.5 189.5,139.5C 190.373,144.294 188.373,146.627 183.5,146.5C 183.201,144.396 183.534,142.396 184.5,140.5C 189.423,138.3 190.757,134.633 188.5,129.5C 187.264,128.754 185.93,128.421 184.5,128.5C 184.662,130.527 184.495,132.527 184,134.5C 183.768,133.263 183.268,132.263 182.5,131.5C 182.759,127.932 184.759,126.599 188.5,127.5 Z"/></g>
<g><path style="opacity:1" fill="#eff8fe" d="M 555.5,127.5 C 557.5,127.5 559.5,127.5 561.5,127.5C 561.5,129.5 561.5,131.5 561.5,133.5C 563.5,133.5 565.5,133.5 567.5,133.5C 567.5,135.833 567.5,138.167 567.5,140.5C 568.5,140.5 569.5,140.5 570.5,140.5C 572.472,142.947 573.805,145.781 574.5,149C 574.241,150.261 573.574,151.261 572.5,152C 573.357,152.689 574.023,153.522 574.5,154.5C 573.781,161.272 573.614,167.939 574,174.5C 574.333,173.167 574.667,171.833 575,170.5C 575.333,171.167 575.667,171.833 576,172.5C 576.816,171.177 577.983,170.511 579.5,170.5C 579.833,170.5 580.167,170.5 580.5,170.5C 588.65,171.493 596.983,171.826 605.5,171.5C 605.5,169.5 605.5,167.5 605.5,165.5C 607.167,165.5 608.833,165.5 610.5,165.5C 610.5,167.5 610.5,169.5 610.5,171.5C 612.5,171.5 614.5,171.5 616.5,171.5C 616.5,177.5 616.5,183.5 616.5,189.5C 614.833,189.5 613.167,189.5 611.5,189.5C 611.5,193.833 611.5,198.167 611.5,202.5C 611.5,204.5 611.5,206.5 611.5,208.5C 600.833,208.5 590.167,208.5 579.5,208.5C 579.5,206.5 579.5,204.5 579.5,202.5C 575.5,202.5 571.5,202.5 567.5,202.5C 567.5,200.167 567.5,197.833 567.5,195.5C 565.5,195.5 563.5,195.5 561.5,195.5C 561.5,193.5 561.5,191.5 561.5,189.5C 563.5,189.5 565.5,189.5 567.5,189.5C 567.5,187.5 567.5,185.5 567.5,183.5C 569.833,183.5 572.167,183.5 574.5,183.5C 574.5,181.5 574.5,179.5 574.5,177.5C 570.167,177.5 565.833,177.5 561.5,177.5C 561.5,179.5 561.5,181.5 561.5,183.5C 559.5,183.5 557.5,183.5 555.5,183.5C 555.5,185.5 555.5,187.5 555.5,189.5C 553.5,189.5 551.5,189.5 549.5,189.5C 548.517,193.298 548.183,197.298 548.5,201.5C 544.5,201.5 540.5,201.5 536.5,201.5C 536.756,203.792 536.423,205.959 535.5,208C 519.503,208.5 503.503,208.667 487.5,208.5C 487.756,206.208 487.423,204.041 486.5,202C 482.514,201.501 478.514,201.334 474.5,201.5C 474.5,195.5 474.5,189.5 474.5,183.5C 476.5,183.5 478.5,183.5 480.5,183.5C 480.5,181.5 480.5,179.5 480.5,177.5C 484.833,177.5 489.167,177.5 493.5,177.5C 493.5,175.5 493.5,173.5 493.5,171.5C 503.5,171.5 513.5,171.5 523.5,171.5C 523.5,173.5 523.5,175.5 523.5,177.5C 525.833,177.5 528.167,177.5 530.5,177.5C 530.5,179.5 530.5,181.5 530.5,183.5C 532.833,183.5 535.167,183.5 537.5,183.5C 537.5,181.167 537.5,178.833 537.5,176.5C 535.167,176.5 532.833,176.5 530.5,176.5C 530.5,174.5 530.5,172.5 530.5,170.5C 528.5,170.5 526.5,170.5 524.5,170.5C 524.5,168.5 524.5,166.5 524.5,164.5C 522.5,164.5 520.5,164.5 518.5,164.5C 518.5,160.5 518.5,156.5 518.5,152.5C 520.5,152.5 522.5,152.5 524.5,152.5C 524.5,148.167 524.5,143.833 524.5,139.5C 527.518,139.665 530.518,139.498 533.5,139C 535.607,137.736 536.607,135.903 536.5,133.5C 542.833,133.5 549.167,133.5 555.5,133.5C 555.5,131.5 555.5,129.5 555.5,127.5 Z"/></g>
<g><path style="opacity:1" fill="#bee2f4" d="M 276.5,127.5 C 284.833,127.5 293.167,127.5 301.5,127.5C 301.5,129.5 301.5,131.5 301.5,133.5C 303.5,133.5 305.5,133.5 307.5,133.5C 307.5,135.167 307.5,136.833 307.5,138.5C 306.566,137.432 306.232,136.099 306.5,134.5C 304.5,134.5 302.5,134.5 300.5,134.5C 300.5,132.5 300.5,130.5 300.5,128.5C 298.833,128.5 297.167,128.5 295.5,128.5C 295.5,130.167 295.5,131.833 295.5,133.5C 289.167,133.5 282.833,133.5 276.5,133.5C 276.5,135.833 276.5,138.167 276.5,140.5C 272.5,140.5 268.5,140.5 264.5,140.5C 264.759,144.24 264.426,147.906 263.5,151.5C 261.604,152.466 259.604,152.799 257.5,152.5C 257.5,148.167 257.5,143.833 257.5,139.5C 259.5,139.5 261.5,139.5 263.5,139.5C 263.5,137.5 263.5,135.5 263.5,133.5C 263.5,131.5 263.5,129.5 263.5,127.5C 267.833,127.5 272.167,127.5 276.5,127.5 Z"/></g>
<g><path style="opacity:1" fill="#bde0f3" d="M 536.5,127.5 C 542.833,127.5 549.167,127.5 555.5,127.5C 555.5,129.5 555.5,131.5 555.5,133.5C 549.167,133.5 542.833,133.5 536.5,133.5C 536.607,135.903 535.607,137.736 533.5,139C 530.518,139.498 527.518,139.665 524.5,139.5C 524.5,137.833 524.5,136.167 524.5,134.5C 520.5,134.5 516.5,134.5 512.5,134.5C 512.815,138.371 512.482,142.038 511.5,145.5C 511.5,141.5 511.5,137.5 511.5,133.5C 515.5,133.5 519.5,133.5 523.5,133.5C 523.5,131.5 523.5,129.5 523.5,127.5C 527.833,127.5 532.167,127.5 536.5,127.5 Z"/></g>
<g><path style="opacity:1" fill="#bee2f2" d="M 710.5,109.5 C 710.5,111.5 710.5,113.5 710.5,115.5C 708.5,115.5 706.5,115.5 704.5,115.5C 704.5,117.5 704.5,119.5 704.5,121.5C 706.5,121.5 708.5,121.5 710.5,121.5C 710.5,123.5 710.5,125.5 710.5,127.5C 708.5,127.5 706.5,127.5 704.5,127.5C 704.739,125.533 704.406,123.699 703.5,122C 699.514,121.501 695.514,121.334 691.5,121.5C 691.5,123.5 691.5,125.5 691.5,127.5C 689.5,127.5 687.5,127.5 685.5,127.5C 685.5,131.833 685.5,136.167 685.5,140.5C 683.5,140.5 681.5,140.5 679.5,140.5C 679.5,142.5 679.5,144.5 679.5,146.5C 677.5,146.5 675.5,146.5 673.5,146.5C 673.335,143.482 673.502,140.482 674,137.5C 675.401,139.192 677.234,139.859 679.5,139.5C 679.5,135.5 679.5,131.5 679.5,127.5C 680.833,127.5 682.167,127.5 683.5,127.5C 683.292,125.08 683.626,122.747 684.5,120.5C 679.076,116.838 679.742,115.338 686.5,116C 687.09,117.509 687.756,119.009 688.5,120.5C 693.477,119.714 698.477,119.047 703.5,118.5C 703.5,117.5 703.5,116.5 703.5,115.5C 701.833,115.5 700.167,115.5 698.5,115.5C 698.5,113.5 698.5,111.5 698.5,109.5C 702.5,109.5 706.5,109.5 710.5,109.5 Z"/></g>
<g><path style="opacity:1" fill="#afd5ea" d="M 710.5,102.5 C 710.5,104.833 710.5,107.167 710.5,109.5C 706.5,109.5 702.5,109.5 698.5,109.5C 698.5,111.5 698.5,113.5 698.5,115.5C 700.167,115.5 701.833,115.5 703.5,115.5C 703.5,116.5 703.5,117.5 703.5,118.5C 698.477,119.047 693.477,119.714 688.5,120.5C 687.756,119.009 687.09,117.509 686.5,116C 679.742,115.338 679.076,116.838 684.5,120.5C 683.626,122.747 683.292,125.08 683.5,127.5C 682.167,127.5 680.833,127.5 679.5,127.5C 679.5,131.5 679.5,135.5 679.5,139.5C 677.234,139.859 675.401,139.192 674,137.5C 673.502,140.482 673.335,143.482 673.5,146.5C 673.5,150.5 673.5,154.5 673.5,158.5C 671.167,158.5 668.833,158.5 666.5,158.5C 665.454,162.779 666.954,165.445 671,166.5C 670.906,170.633 671.74,174.299 673.5,177.5C 673.5,179.5 673.5,181.5 673.5,183.5C 679.5,183.5 685.5,183.5 691.5,183.5C 691.34,181.801 691.506,180.134 692,178.5C 696.116,179.952 699.95,179.286 703.5,176.5C 704.474,178.743 704.808,181.076 704.5,183.5C 704.167,183.5 703.833,183.5 703.5,183.5C 699.774,183.177 696.107,183.511 692.5,184.5C 691.691,186.071 691.357,187.738 691.5,189.5C 685.5,189.5 679.5,189.5 673.5,189.5C 673.5,191.5 673.5,193.5 673.5,195.5C 675.5,195.5 677.5,195.5 679.5,195.5C 679.5,197.5 679.5,199.5 679.5,201.5C 681.5,201.5 683.5,201.5 685.5,201.5C 686.418,206.495 684.418,208.828 679.5,208.5C 679.5,206.5 679.5,204.5 679.5,202.5C 677.167,202.5 674.833,202.5 672.5,202.5C 672.5,200.5 672.5,198.5 672.5,196.5C 671.07,196.579 669.736,196.246 668.5,195.5C 667.833,191.353 667.166,187.353 666.5,183.5C 664.5,183.5 662.5,183.5 660.5,183.5C 660.5,179.5 660.5,175.5 660.5,171.5C 659.167,171.5 657.833,171.5 656.5,171.5C 655.833,171.5 655.167,171.5 654.5,171.5C 654.5,165.167 654.5,158.833 654.5,152.5C 656.5,152.5 658.5,152.5 660.5,152.5C 660.5,150.5 660.5,148.5 660.5,146.5C 656.5,146.5 652.5,146.5 648.5,146.5C 641.646,146.824 634.979,146.491 628.5,145.5C 629.224,143.782 629.891,141.948 630.5,140C 636.157,139.501 641.824,139.334 647.5,139.5C 647.357,137.738 647.691,136.071 648.5,134.5C 654.472,133.336 660.472,133.17 666.5,134C 667.406,135.699 667.739,137.533 667.5,139.5C 669.167,139.5 670.833,139.5 672.5,139.5C 672.335,135.818 672.501,132.152 673,128.5C 673.667,127.833 674.333,127.167 675,126.5C 677.478,127.804 678.978,126.97 679.5,124C 679.077,120.936 679.077,117.769 679.5,114.5C 681.5,114.5 683.5,114.5 685.5,114.5C 685.261,112.533 685.594,110.699 686.5,109C 690.152,108.501 693.818,108.335 697.5,108.5C 697.261,106.533 697.594,104.699 698.5,103C 702.486,102.501 706.486,102.334 710.5,102.5 Z"/></g>
<g><path style="opacity:1" fill="#bee5f9" d="M 138.5,146.5 C 145.167,146.5 151.833,146.5 158.5,146.5C 158.5,148.5 158.5,150.5 158.5,152.5C 154.167,152.5 149.833,152.5 145.5,152.5C 145.5,154.5 145.5,156.5 145.5,158.5C 143.5,158.5 141.5,158.5 139.5,158.5C 139.5,164.833 139.5,171.167 139.5,177.5C 137.5,177.5 135.5,177.5 133.5,177.5C 133.5,175.5 133.5,173.5 133.5,171.5C 131.5,171.5 129.5,171.5 127.5,171.5C 127.769,167.069 127.436,162.735 126.5,158.5C 125.603,153.728 127.603,151.395 132.5,151.5C 133.035,149.339 133.868,147.339 135,145.5C 136.011,146.337 137.178,146.67 138.5,146.5 Z"/></g>
<g><path style="opacity:1" fill="#eef7fd" d="M 418.5,146.5 C 422.833,146.5 427.167,146.5 431.5,146.5C 431.5,148.5 431.5,150.5 431.5,152.5C 429.5,152.5 427.5,152.5 425.5,152.5C 425.5,158.5 425.5,164.5 425.5,170.5C 427.5,170.5 429.5,170.5 431.5,170.5C 431.5,174.833 431.5,179.167 431.5,183.5C 433.5,183.5 435.5,183.5 437.5,183.5C 437.5,187.5 437.5,191.5 437.5,195.5C 437.5,197.833 437.5,200.167 437.5,202.5C 435.5,202.5 433.5,202.5 431.5,202.5C 431.5,204.5 431.5,206.5 431.5,208.5C 423.167,208.5 414.833,208.5 406.5,208.5C 406.5,206.5 406.5,204.5 406.5,202.5C 404.5,202.5 402.5,202.5 400.5,202.5C 400.5,200.5 400.5,198.5 400.5,196.5C 402.5,196.5 404.5,196.5 406.5,196.5C 406.5,189.833 406.5,183.167 406.5,176.5C 404.5,176.5 402.5,176.5 400.5,176.5C 400.5,170.5 400.5,164.5 400.5,158.5C 402.5,158.5 404.5,158.5 406.5,158.5C 406.5,156.5 406.5,154.5 406.5,152.5C 410.5,152.5 414.5,152.5 418.5,152.5C 418.5,150.5 418.5,148.5 418.5,146.5 Z"/></g>
<g><path style="opacity:1" fill="#b5daed" d="M 790.5,121.5 C 789.659,123.379 789.325,125.379 789.5,127.5C 787.833,127.5 786.167,127.5 784.5,127.5C 784.5,129.5 784.5,131.5 784.5,133.5C 778.5,133.5 772.5,133.5 766.5,133.5C 766.739,135.467 766.406,137.301 765.5,139C 761.514,139.499 757.514,139.666 753.5,139.5C 753.5,143.833 753.5,148.167 753.5,152.5C 751.5,152.5 749.5,152.5 747.5,152.5C 747.5,156.5 747.5,160.5 747.5,164.5C 749.265,165.461 751.265,165.795 753.5,165.5C 753.5,167.167 753.5,168.833 753.5,170.5C 743.319,170.173 733.319,170.506 723.5,171.5C 722.549,172.919 722.216,174.585 722.5,176.5C 718.548,177.272 714.548,177.605 710.5,177.5C 710.5,179.5 710.5,181.5 710.5,183.5C 708.5,183.5 706.5,183.5 704.5,183.5C 704.808,181.076 704.474,178.743 703.5,176.5C 699.95,179.286 696.116,179.952 692,178.5C 691.506,180.134 691.34,181.801 691.5,183.5C 685.5,183.5 679.5,183.5 673.5,183.5C 673.5,181.5 673.5,179.5 673.5,177.5C 681.833,177.5 690.167,177.5 698.5,177.5C 698.5,175.5 698.5,173.5 698.5,171.5C 702.5,171.5 706.5,171.5 710.5,171.5C 710.5,169.167 710.5,166.833 710.5,164.5C 712.5,164.5 714.5,164.5 716.5,164.5C 716.5,162.5 716.5,160.5 716.5,158.5C 722.833,158.5 729.167,158.5 735.5,158.5C 735.5,154.5 735.5,150.5 735.5,146.5C 737.5,146.5 739.5,146.5 741.5,146.5C 741.5,142.167 741.5,137.833 741.5,133.5C 745.5,133.5 749.5,133.5 753.5,133.5C 753.185,129.629 753.518,125.962 754.5,122.5C 754.5,124.167 754.5,125.833 754.5,127.5C 758.127,126.461 761.794,126.461 765.5,127.5C 765.261,125.533 765.594,123.699 766.5,122C 773.037,121.776 779.537,121.276 786,120.5C 787.44,121.148 788.94,121.481 790.5,121.5 Z"/></g>
<g><path style="opacity:1" fill="#aed2e6" d="M 263.5,133.5 C 263.5,135.5 263.5,137.5 263.5,139.5C 261.5,139.5 259.5,139.5 257.5,139.5C 257.5,143.833 257.5,148.167 257.5,152.5C 257.5,156.5 257.5,160.5 257.5,164.5C 259.5,164.5 261.5,164.5 263.5,164.5C 263.5,166.5 263.5,168.5 263.5,170.5C 257.5,170.5 251.5,170.5 245.5,170.5C 245.739,168.533 245.406,166.699 244.5,165C 240.848,164.501 237.182,164.335 233.5,164.5C 233.5,163.167 233.5,161.833 233.5,160.5C 231.897,160.312 230.563,160.812 229.5,162C 230.576,163.726 230.743,165.559 230,167.5C 229.667,166.833 229.333,166.167 229,165.5C 226.33,166.224 224.83,167.891 224.5,170.5C 223.167,170.5 221.833,170.5 220.5,170.5C 220.5,168.5 220.5,166.5 220.5,164.5C 222.5,164.5 224.5,164.5 226.5,164.5C 226.5,162.5 226.5,160.5 226.5,158.5C 232.5,158.5 238.5,158.5 244.5,158.5C 244.5,154.5 244.5,150.5 244.5,146.5C 246.833,146.5 249.167,146.5 251.5,146.5C 251.5,142.167 251.5,137.833 251.5,133.5C 255.5,133.5 259.5,133.5 263.5,133.5 Z"/></g>
<g><path style="opacity:1" fill="#f0f7fd" d="M 146.5,180.5 C 146.5,179.5 146.5,178.5 146.5,177.5C 146.5,176.5 146.5,175.5 146.5,174.5C 144.833,174.5 143.167,174.5 141.5,174.5C 141.629,170.122 141.629,165.955 141.5,162C 143.594,160.648 145.927,160.148 148.5,160.5C 148.833,158.5 149.167,156.5 149.5,154.5C 152.518,154.665 155.518,154.498 158.5,154C 159.704,151.723 161.37,151.223 163.5,152.5C 162.485,155.022 161.151,157.356 159.5,159.5C 160.045,165.442 160.045,171.442 159.5,177.5C 160.873,177.657 162.207,177.49 163.5,177C 161.381,174.782 161.048,172.282 162.5,169.5C 163.23,171.341 163.897,173.175 164.5,175C 166.135,175.54 167.468,175.04 168.5,173.5C 168.833,174 169.167,174.5 169.5,175C 168.815,177.795 168.315,180.628 168,183.5C 165.667,184.833 163.333,184.833 161,183.5C 160.167,184.333 159.333,185.167 158.5,186C 159.337,187.011 159.67,188.178 159.5,189.5C 163.931,191.551 169.264,192.885 175.5,193.5C 175.863,195.911 174.863,197.411 172.5,198C 173.167,198.333 173.833,198.667 174.5,199C 171.511,201.628 168.178,203.961 164.5,206C 159.442,207.01 154.609,206.51 150,204.5C 149.667,205.167 149.333,205.833 149,206.5C 147.833,203.333 145.667,201.167 142.5,200C 145.272,198.469 147.272,196.302 148.5,193.5C 148.98,188.984 148.313,184.651 146.5,180.5 Z"/></g>
<g><path style="opacity:1" fill="#c0e6fc" d="M 449.5,140.5 C 449.5,146.5 449.5,152.5 449.5,158.5C 454.931,157.094 457.265,159.094 456.5,164.5C 462.5,164.5 468.5,164.5 474.5,164.5C 474.5,162.5 474.5,160.5 474.5,158.5C 476.5,158.5 478.5,158.5 480.5,158.5C 480.5,156.5 480.5,154.5 480.5,152.5C 486.868,152.83 493.202,152.496 499.5,151.5C 500.167,148.167 502.167,146.833 505.5,147.5C 505.5,151.167 505.5,154.833 505.5,158.5C 499.5,158.5 493.5,158.5 487.5,158.5C 487.5,160.5 487.5,162.5 487.5,164.5C 485.167,164.5 482.833,164.5 480.5,164.5C 480.5,166.5 480.5,168.5 480.5,170.5C 476.5,170.5 472.5,170.5 468.5,170.5C 468.5,172.833 468.5,175.167 468.5,177.5C 466.5,177.5 464.5,177.5 462.5,177.5C 462.5,179.5 462.5,181.5 462.5,183.5C 456.167,183.5 449.833,183.5 443.5,183.5C 443.5,181.5 443.5,179.5 443.5,177.5C 441.5,177.5 439.5,177.5 437.5,177.5C 437.5,173.167 437.5,168.833 437.5,164.5C 435.5,164.5 433.5,164.5 431.5,164.5C 431.5,162.5 431.5,160.5 431.5,158.5C 433.5,158.5 435.5,158.5 437.5,158.5C 437.5,154.5 437.5,150.5 437.5,146.5C 439.5,146.5 441.5,146.5 443.5,146.5C 443.5,144.5 443.5,142.5 443.5,140.5C 445.5,140.5 447.5,140.5 449.5,140.5 Z"/></g>
<g><path style="opacity:1" fill="#b5dcf2" d="M 357.5,142.5 C 357.5,145.833 357.5,149.167 357.5,152.5C 361.5,152.5 365.5,152.5 369.5,152.5C 369.261,154.467 369.594,156.301 370.5,158C 374.167,158.333 377.833,158.667 381.5,159C 382.774,159.977 382.774,160.811 381.5,161.5C 380.834,164.358 380.167,167.358 379.5,170.5C 378.28,171.711 377.113,171.711 376,170.5C 375.506,168.866 375.34,167.199 375.5,165.5C 373.5,165.5 371.5,165.5 369.5,165.5C 369.657,164.127 369.49,162.793 369,161.5C 367.933,162.191 366.766,162.691 365.5,163C 359.509,163.499 353.509,163.666 347.5,163.5C 346.956,161.284 345.956,159.284 344.5,157.5C 344.5,155.833 344.5,154.167 344.5,152.5C 348.5,152.5 352.5,152.5 356.5,152.5C 356.187,148.958 356.521,145.625 357.5,142.5 Z"/></g>
<g><path style="opacity:1" fill="#aed4e8" d="M 524.5,139.5 C 524.5,143.833 524.5,148.167 524.5,152.5C 522.5,152.5 520.5,152.5 518.5,152.5C 516.167,152.5 513.833,152.5 511.5,152.5C 511.5,156.5 511.5,160.5 511.5,164.5C 515.466,165.162 519.466,165.495 523.5,165.5C 523.5,167.167 523.5,168.833 523.5,170.5C 517.5,170.5 511.5,170.5 505.5,170.5C 505.5,168.5 505.5,166.5 505.5,164.5C 501.5,164.5 497.5,164.5 493.5,164.5C 493.5,166.833 493.5,169.167 493.5,171.5C 493.5,173.5 493.5,175.5 493.5,177.5C 489.167,177.5 484.833,177.5 480.5,177.5C 480.5,179.5 480.5,181.5 480.5,183.5C 478.5,183.5 476.5,183.5 474.5,183.5C 470.5,183.5 466.5,183.5 462.5,183.5C 462.5,181.5 462.5,179.5 462.5,177.5C 464.5,177.5 466.5,177.5 468.5,177.5C 468.5,175.167 468.5,172.833 468.5,170.5C 472.5,170.5 476.5,170.5 480.5,170.5C 480.5,168.5 480.5,166.5 480.5,164.5C 482.833,164.5 485.167,164.5 487.5,164.5C 487.5,162.5 487.5,160.5 487.5,158.5C 493.5,158.5 499.5,158.5 505.5,158.5C 505.5,154.833 505.5,151.167 505.5,147.5C 507.5,146.833 509.5,146.167 511.5,145.5C 512.482,142.038 512.815,138.371 512.5,134.5C 516.5,134.5 520.5,134.5 524.5,134.5C 524.5,136.167 524.5,137.833 524.5,139.5 Z"/></g>
<g><path style="opacity:1" fill="#c2e6fa" d="M 628.5,145.5 C 634.979,146.491 641.646,146.824 648.5,146.5C 648.5,148.5 648.5,150.5 648.5,152.5C 644.5,152.5 640.5,152.5 636.5,152.5C 636.5,154.5 636.5,156.5 636.5,158.5C 634.167,158.5 631.833,158.5 629.5,158.5C 629.5,164.833 629.5,171.167 629.5,177.5C 627.5,177.5 625.5,177.5 623.5,177.5C 623.5,175.5 623.5,173.5 623.5,171.5C 621.5,171.5 619.5,171.5 617.5,171.5C 617.823,177.69 617.49,183.69 616.5,189.5C 616.5,183.5 616.5,177.5 616.5,171.5C 614.5,171.5 612.5,171.5 610.5,171.5C 610.5,169.5 610.5,167.5 610.5,165.5C 608.833,165.5 607.167,165.5 605.5,165.5C 605.5,167.5 605.5,169.5 605.5,171.5C 596.983,171.826 588.65,171.493 580.5,170.5C 584.5,170.5 588.5,170.5 592.5,170.5C 592.215,168.712 592.548,167.045 593.5,165.5C 597.094,164.574 600.76,164.241 604.5,164.5C 604.675,162.379 604.341,160.379 603.5,158.5C 604.167,156.5 604.833,154.5 605.5,152.5C 605.5,154.5 605.5,156.5 605.5,158.5C 607.5,158.5 609.5,158.5 611.5,158.5C 611.5,162.5 611.5,166.5 611.5,170.5C 613.5,170.5 615.5,170.5 617.5,170.5C 617.5,166.5 617.5,162.5 617.5,158.5C 619.5,158.5 621.5,158.5 623.5,158.5C 623.5,156.5 623.5,154.5 623.5,152.5C 625.5,152.5 627.5,152.5 629.5,152.5C 629.5,150.833 629.5,149.167 629.5,147.5C 627.379,147.325 625.379,147.659 623.5,148.5C 624.048,145.916 625.715,144.916 628.5,145.5 Z"/></g>
<g><path style="opacity:1" fill="#acd2e7" d="M 605.5,152.5 C 609.702,152.817 613.702,152.483 617.5,151.5C 619.068,152.473 620.735,152.64 622.5,152C 623.08,150.665 623.413,149.498 623.5,148.5C 625.379,147.659 627.379,147.325 629.5,147.5C 629.5,149.167 629.5,150.833 629.5,152.5C 627.5,152.5 625.5,152.5 623.5,152.5C 623.5,154.5 623.5,156.5 623.5,158.5C 621.5,158.5 619.5,158.5 617.5,158.5C 617.5,162.5 617.5,166.5 617.5,170.5C 615.5,170.5 613.5,170.5 611.5,170.5C 611.5,166.5 611.5,162.5 611.5,158.5C 609.5,158.5 607.5,158.5 605.5,158.5C 605.5,156.5 605.5,154.5 605.5,152.5 Z"/></g>
<g><path style="opacity:1" fill="#acd1e5" d="M 319.5,165.5 C 323.833,165.5 328.167,165.5 332.5,165.5C 332.714,167.144 332.38,168.644 331.5,170C 327.514,170.499 323.514,170.666 319.5,170.5C 319.5,168.833 319.5,167.167 319.5,165.5 Z"/></g>
<g><path style="opacity:1" fill="#aed2e2" d="M 603.5,158.5 C 604.341,160.379 604.675,162.379 604.5,164.5C 600.76,164.241 597.094,164.574 593.5,165.5C 592.548,167.045 592.215,168.712 592.5,170.5C 588.5,170.5 584.5,170.5 580.5,170.5C 580.167,170.5 579.833,170.5 579.5,170.5C 579.5,168.5 579.5,166.5 579.5,164.5C 583.833,164.5 588.167,164.5 592.5,164.5C 592.5,162.5 592.5,160.5 592.5,158.5C 596.167,158.5 599.833,158.5 603.5,158.5 Z"/></g>
<g><path style="opacity:1" fill="#b9def1" d="M 860.5,158.5 C 855.833,158.5 851.167,158.5 846.5,158.5C 846.5,160.5 846.5,162.5 846.5,164.5C 842.5,164.5 838.5,164.5 834.5,164.5C 834.643,166.262 834.309,167.929 833.5,169.5C 825.528,170.498 817.528,170.831 809.5,170.5C 809.178,164.642 809.511,158.975 810.5,153.5C 810.5,157.167 810.5,160.833 810.5,164.5C 814.182,164.665 817.848,164.499 821.5,164C 821.944,162.467 822.277,160.967 822.5,159.5C 825.646,158.711 828.813,158.045 832,157.5C 833.876,156.381 834.709,154.714 834.5,152.5C 842.833,152.5 851.167,152.5 859.5,152.5C 859.325,154.621 859.659,156.621 860.5,158.5 Z"/></g>
<g><path style="opacity:1" fill="#c2e1f1" d="M 518.5,152.5 C 518.5,156.5 518.5,160.5 518.5,164.5C 520.5,164.5 522.5,164.5 524.5,164.5C 524.5,166.5 524.5,168.5 524.5,170.5C 526.5,170.5 528.5,170.5 530.5,170.5C 530.5,172.5 530.5,174.5 530.5,176.5C 532.833,176.5 535.167,176.5 537.5,176.5C 537.5,178.833 537.5,181.167 537.5,183.5C 535.167,183.5 532.833,183.5 530.5,183.5C 530.5,181.5 530.5,179.5 530.5,177.5C 528.167,177.5 525.833,177.5 523.5,177.5C 523.5,175.5 523.5,173.5 523.5,171.5C 513.5,171.5 503.5,171.5 493.5,171.5C 493.5,169.167 493.5,166.833 493.5,164.5C 497.5,164.5 501.5,164.5 505.5,164.5C 505.5,166.5 505.5,168.5 505.5,170.5C 511.5,170.5 517.5,170.5 523.5,170.5C 523.5,168.833 523.5,167.167 523.5,165.5C 519.466,165.495 515.466,165.162 511.5,164.5C 511.5,160.5 511.5,156.5 511.5,152.5C 513.833,152.5 516.167,152.5 518.5,152.5 Z"/></g>
<g><path style="opacity:1" fill="#abd2e9" d="M 126.5,158.5 C 127.436,162.735 127.769,167.069 127.5,171.5C 129.5,171.5 131.5,171.5 133.5,171.5C 133.5,173.5 133.5,175.5 133.5,177.5C 135.5,177.5 137.5,177.5 139.5,177.5C 139.5,181.5 139.5,185.5 139.5,189.5C 137.5,189.5 135.5,189.5 133.5,189.5C 133.5,187.5 133.5,185.5 133.5,183.5C 131.5,183.5 129.5,183.5 127.5,183.5C 127.5,181.5 127.5,179.5 127.5,177.5C 125.5,177.5 123.5,177.5 121.5,177.5C 121.5,179.5 121.5,181.5 121.5,183.5C 117.167,183.5 112.833,183.5 108.5,183.5C 108.334,189.842 108.5,196.175 109,202.5C 111.059,204.701 110.892,205.368 108.5,204.5C 107.042,202.989 105.209,201.989 103,201.5C 102.333,195.5 102.333,189.5 103,183.5C 104.667,183.167 106.333,182.833 108,182.5C 108.494,180.866 108.66,179.199 108.5,177.5C 110.199,177.66 111.866,177.494 113.5,177C 114.167,175 114.833,173 115.5,171C 117.134,170.506 118.801,170.34 120.5,170.5C 120.335,167.15 120.502,163.817 121,160.5C 122.401,158.808 124.234,158.141 126.5,158.5 Z"/></g>
<g><path style="opacity:1" fill="#e9f9fd" d="M 158.5,146.5 C 162.5,146.5 166.5,146.5 170.5,146.5C 170.5,148.5 170.5,150.5 170.5,152.5C 168.5,152.5 166.5,152.5 164.5,152.5C 164.5,158.5 164.5,164.5 164.5,170.5C 166.5,170.5 168.5,170.5 170.5,170.5C 170.5,174.833 170.5,179.167 170.5,183.5C 172.5,183.5 174.5,183.5 176.5,183.5C 176.5,189.833 176.5,196.167 176.5,202.5C 174.833,202.5 173.167,202.5 171.5,202.5C 171.5,204.5 171.5,206.5 171.5,208.5C 163.16,208.666 154.827,208.5 146.5,208C 145.594,206.301 145.261,204.467 145.5,202.5C 143.5,202.5 141.5,202.5 139.5,202.5C 139.5,200.167 139.5,197.833 139.5,195.5C 141.833,195.5 144.167,195.5 146.5,195.5C 146.5,190.5 146.5,185.5 146.5,180.5C 148.313,184.651 148.98,188.984 148.5,193.5C 147.272,196.302 145.272,198.469 142.5,200C 145.667,201.167 147.833,203.333 149,206.5C 149.333,205.833 149.667,205.167 150,204.5C 154.609,206.51 159.442,207.01 164.5,206C 168.178,203.961 171.511,201.628 174.5,199C 173.833,198.667 173.167,198.333 172.5,198C 174.863,197.411 175.863,195.911 175.5,193.5C 169.264,192.885 163.931,191.551 159.5,189.5C 159.67,188.178 159.337,187.011 158.5,186C 159.333,185.167 160.167,184.333 161,183.5C 163.333,184.833 165.667,184.833 168,183.5C 168.315,180.628 168.815,177.795 169.5,175C 169.167,174.5 168.833,174 168.5,173.5C 167.468,175.04 166.135,175.54 164.5,175C 163.897,173.175 163.23,171.341 162.5,169.5C 161.048,172.282 161.381,174.782 163.5,177C 162.207,177.49 160.873,177.657 159.5,177.5C 160.045,171.442 160.045,165.442 159.5,159.5C 161.151,157.356 162.485,155.022 163.5,152.5C 161.37,151.223 159.704,151.723 158.5,154C 155.518,154.498 152.518,154.665 149.5,154.5C 149.167,156.5 148.833,158.5 148.5,160.5C 145.927,160.148 143.594,160.648 141.5,162C 141.629,165.955 141.629,170.122 141.5,174.5C 143.167,174.5 144.833,174.5 146.5,174.5C 146.5,175.5 146.5,176.5 146.5,177.5C 144.167,177.5 141.833,177.5 139.5,177.5C 139.5,171.167 139.5,164.833 139.5,158.5C 141.5,158.5 143.5,158.5 145.5,158.5C 145.5,156.5 145.5,154.5 145.5,152.5C 149.833,152.5 154.167,152.5 158.5,152.5C 158.5,150.5 158.5,148.5 158.5,146.5 Z"/></g>
<g><path style="opacity:1" fill="#c0dce7" d="M 747.5,164.5 C 749.833,164.5 752.167,164.5 754.5,164.5C 754.5,166.5 754.5,168.5 754.5,170.5C 756.5,170.5 758.5,170.5 760.5,170.5C 760.5,172.5 760.5,174.5 760.5,176.5C 765.906,175.735 767.906,178.069 766.5,183.5C 764.5,183.5 762.5,183.5 760.5,183.5C 760.5,185.833 760.5,188.167 760.5,190.5C 758.167,190.5 755.833,190.5 753.5,190.5C 753.5,188.167 753.5,185.833 753.5,183.5C 755.5,183.5 757.5,183.5 759.5,183.5C 759.5,181.5 759.5,179.5 759.5,177.5C 757.5,177.5 755.5,177.5 753.5,177.5C 753.5,175.5 753.5,173.5 753.5,171.5C 743.5,171.5 733.5,171.5 723.5,171.5C 733.319,170.506 743.319,170.173 753.5,170.5C 753.5,168.833 753.5,167.167 753.5,165.5C 751.265,165.795 749.265,165.461 747.5,164.5 Z"/></g>
<g><path style="opacity:1" fill="#b9dcf0" d="M 263.5,164.5 C 264.461,166.265 264.795,168.265 264.5,170.5C 266.5,170.5 268.5,170.5 270.5,170.5C 270.5,172.5 270.5,174.5 270.5,176.5C 272.5,176.5 274.5,176.5 276.5,176.5C 276.5,178.833 276.5,181.167 276.5,183.5C 274.5,183.5 272.5,183.5 270.5,183.5C 270.5,185.5 270.5,187.5 270.5,189.5C 268.167,189.5 265.833,189.5 263.5,189.5C 263.5,187.5 263.5,185.5 263.5,183.5C 265.5,183.5 267.5,183.5 269.5,183.5C 269.5,181.5 269.5,179.5 269.5,177.5C 267.5,177.5 265.5,177.5 263.5,177.5C 263.5,175.5 263.5,173.5 263.5,171.5C 253.167,171.5 242.833,171.5 232.5,171.5C 232.5,173.5 232.5,175.5 232.5,177.5C 228.5,177.5 224.5,177.5 220.5,177.5C 220.5,179.5 220.5,181.5 220.5,183.5C 218.5,183.5 216.5,183.5 214.5,183.5C 210.167,183.5 205.833,183.5 201.5,183.5C 195.167,183.5 188.833,183.5 182.5,183.5C 182.5,181.5 182.5,179.5 182.5,177.5C 191.167,177.5 199.833,177.5 208.5,177.5C 208.5,175.5 208.5,173.5 208.5,171.5C 212.6,171.763 216.6,171.43 220.5,170.5C 221.833,170.5 223.167,170.5 224.5,170.5C 224.83,167.891 226.33,166.224 229,165.5C 229.333,166.167 229.667,166.833 230,167.5C 230.743,165.559 230.576,163.726 229.5,162C 230.563,160.812 231.897,160.312 233.5,160.5C 233.5,161.833 233.5,163.167 233.5,164.5C 237.182,164.335 240.848,164.501 244.5,165C 245.406,166.699 245.739,168.533 245.5,170.5C 251.5,170.5 257.5,170.5 263.5,170.5C 263.5,168.5 263.5,166.5 263.5,164.5 Z"/></g>
<g><path style="opacity:1" fill="#abd0e5" d="M 629.5,177.5 C 629.5,181.5 629.5,185.5 629.5,189.5C 627.5,189.5 625.5,189.5 623.5,189.5C 623.5,191.5 623.5,193.5 623.5,195.5C 621.5,195.5 619.5,195.5 617.5,195.5C 617.5,197.833 617.5,200.167 617.5,202.5C 615.5,202.5 613.5,202.5 611.5,202.5C 611.5,198.167 611.5,193.833 611.5,189.5C 613.167,189.5 614.833,189.5 616.5,189.5C 617.49,183.69 617.823,177.69 617.5,171.5C 619.5,171.5 621.5,171.5 623.5,171.5C 623.5,173.5 623.5,175.5 623.5,177.5C 625.5,177.5 627.5,177.5 629.5,177.5 Z"/></g>
<g><path style="opacity:1" fill="#add1e1" d="M 307.5,183.5 C 305.265,183.795 303.265,183.461 301.5,182.5C 301.5,180.833 301.5,179.167 301.5,177.5C 305.5,177.5 309.5,177.5 313.5,177.5C 313.5,179.5 313.5,181.5 313.5,183.5C 311.5,183.5 309.5,183.5 307.5,183.5 Z"/></g>
<g><path style="opacity:1" fill="#afd4ea" d="M 183.5,146.5 C 183.5,150.5 183.5,154.5 183.5,158.5C 181.473,158.338 179.473,158.505 177.5,159C 175.173,163.967 176.673,166.8 182,167.5C 182.498,170.817 182.665,174.15 182.5,177.5C 182.5,179.5 182.5,181.5 182.5,183.5C 188.833,183.5 195.167,183.5 201.5,183.5C 201.5,185.5 201.5,187.5 201.5,189.5C 195.5,189.5 189.5,189.5 183.5,189.5C 183.5,191.5 183.5,193.5 183.5,195.5C 185.5,195.5 187.5,195.5 189.5,195.5C 189.5,197.5 189.5,199.5 189.5,201.5C 191.5,201.5 193.5,201.5 195.5,201.5C 195.298,203.95 195.631,206.283 196.5,208.5C 196.167,208.5 195.833,208.5 195.5,208.5C 193.5,208.5 191.5,208.5 189.5,208.5C 190.265,203.094 187.931,201.094 182.5,202.5C 182.5,200.5 182.5,198.5 182.5,196.5C 181.07,196.579 179.736,196.246 178.5,195.5C 177.833,191.353 177.166,187.353 176.5,183.5C 174.5,183.5 172.5,183.5 170.5,183.5C 170.5,179.167 170.5,174.833 170.5,170.5C 168.5,170.5 166.5,170.5 164.5,170.5C 164.5,164.5 164.5,158.5 164.5,152.5C 166.5,152.5 168.5,152.5 170.5,152.5C 170.5,150.5 170.5,148.5 170.5,146.5C 166.5,146.5 162.5,146.5 158.5,146.5C 151.833,146.5 145.167,146.5 138.5,146.5C 139.103,144.321 139.77,142.154 140.5,140C 146.157,139.501 151.824,139.334 157.5,139.5C 157.261,137.533 157.594,135.699 158.5,134C 164.5,133.333 170.5,133.333 176.5,134C 177.406,135.699 177.739,137.533 177.5,139.5C 179.167,139.5 180.833,139.5 182.5,139.5C 182.5,136.833 182.5,134.167 182.5,131.5C 183.268,132.263 183.768,133.263 184,134.5C 184.495,132.527 184.662,130.527 184.5,128.5C 185.93,128.421 187.264,128.754 188.5,129.5C 190.757,134.633 189.423,138.3 184.5,140.5C 183.534,142.396 183.201,144.396 183.5,146.5 Z"/></g>
<g><path style="opacity:1" fill="#add2e8" d="M 449.5,139.5 C 449.5,139.833 449.5,140.167 449.5,140.5C 447.5,140.5 445.5,140.5 443.5,140.5C 443.5,142.5 443.5,144.5 443.5,146.5C 441.5,146.5 439.5,146.5 437.5,146.5C 437.5,150.5 437.5,154.5 437.5,158.5C 435.5,158.5 433.5,158.5 431.5,158.5C 431.5,160.5 431.5,162.5 431.5,164.5C 433.5,164.5 435.5,164.5 437.5,164.5C 437.5,168.833 437.5,173.167 437.5,177.5C 439.5,177.5 441.5,177.5 443.5,177.5C 443.5,179.5 443.5,181.5 443.5,183.5C 449.833,183.5 456.167,183.5 462.5,183.5C 462.5,185.5 462.5,187.5 462.5,189.5C 456.167,189.5 449.833,189.5 443.5,189.5C 442.735,194.906 445.069,196.906 450.5,195.5C 450.5,197.5 450.5,199.5 450.5,201.5C 452.5,201.5 454.5,201.5 456.5,201.5C 457.833,207.5 455.5,209.833 449.5,208.5C 449.5,206.5 449.5,204.5 449.5,202.5C 447.5,202.5 445.5,202.5 443.5,202.5C 443.5,200.5 443.5,198.5 443.5,196.5C 441.379,196.675 439.379,196.341 437.5,195.5C 437.5,191.5 437.5,187.5 437.5,183.5C 435.5,183.5 433.5,183.5 431.5,183.5C 431.5,179.167 431.5,174.833 431.5,170.5C 429.5,170.5 427.5,170.5 425.5,170.5C 425.5,164.5 425.5,158.5 425.5,152.5C 427.5,152.5 429.5,152.5 431.5,152.5C 431.5,150.5 431.5,148.5 431.5,146.5C 427.167,146.5 422.833,146.5 418.5,146.5C 412.5,146.5 406.5,146.5 400.5,146.5C 400.5,148.833 400.5,151.167 400.5,153.5C 398.408,153.561 396.908,154.561 396,156.5C 395.383,155.551 395.549,154.718 396.5,154C 393.854,153.503 391.187,153.336 388.5,153.5C 388.795,155.735 388.461,157.735 387.5,159.5C 387.337,157.143 387.503,154.81 388,152.5C 389.425,151.788 390.925,151.621 392.5,152C 392.963,149.415 394.13,147.248 396,145.5C 397.011,146.337 398.178,146.67 399.5,146.5C 399.769,142.069 399.436,137.735 398.5,133.5C 411.5,133.5 424.5,133.5 437.5,133.5C 437.5,135.5 437.5,137.5 437.5,139.5C 439.5,139.5 441.5,139.5 443.5,139.5C 443.5,135.5 443.5,131.5 443.5,127.5C 445.5,127.5 447.5,127.5 449.5,127.5C 449.5,131.5 449.5,135.5 449.5,139.5 Z"/></g>
<g><path style="opacity:1" fill="#c0e6fb" d="M 418.5,146.5 C 418.5,148.5 418.5,150.5 418.5,152.5C 414.5,152.5 410.5,152.5 406.5,152.5C 406.5,154.5 406.5,156.5 406.5,158.5C 404.5,158.5 402.5,158.5 400.5,158.5C 400.5,164.5 400.5,170.5 400.5,176.5C 402.5,176.5 404.5,176.5 406.5,176.5C 406.5,183.167 406.5,189.833 406.5,196.5C 404.5,196.5 402.5,196.5 400.5,196.5C 400.5,198.5 400.5,200.5 400.5,202.5C 402.5,202.5 404.5,202.5 406.5,202.5C 406.5,204.5 406.5,206.5 406.5,208.5C 414.833,208.5 423.167,208.5 431.5,208.5C 431.5,206.5 431.5,204.5 431.5,202.5C 433.5,202.5 435.5,202.5 437.5,202.5C 437.5,200.167 437.5,197.833 437.5,195.5C 439.379,196.341 441.379,196.675 443.5,196.5C 443.5,198.5 443.5,200.5 443.5,202.5C 445.5,202.5 447.5,202.5 449.5,202.5C 449.5,204.5 449.5,206.5 449.5,208.5C 455.5,209.833 457.833,207.5 456.5,201.5C 454.5,201.5 452.5,201.5 450.5,201.5C 450.5,199.5 450.5,197.5 450.5,195.5C 445.069,196.906 442.735,194.906 443.5,189.5C 449.833,189.5 456.167,189.5 462.5,189.5C 462.5,187.5 462.5,185.5 462.5,183.5C 466.5,183.5 470.5,183.5 474.5,183.5C 474.5,189.5 474.5,195.5 474.5,201.5C 478.514,201.334 482.514,201.501 486.5,202C 487.423,204.041 487.756,206.208 487.5,208.5C 503.503,208.667 519.503,208.5 535.5,208C 536.423,205.959 536.756,203.792 536.5,201.5C 540.5,201.5 544.5,201.5 548.5,201.5C 548.183,197.298 548.517,193.298 549.5,189.5C 549.5,191.833 549.5,194.167 549.5,196.5C 551.5,196.5 553.5,196.5 555.5,196.5C 555.5,200.5 555.5,204.5 555.5,208.5C 557.5,208.5 559.5,208.5 561.5,208.5C 561.5,210.5 561.5,212.5 561.5,214.5C 532.5,214.5 503.5,214.5 474.5,214.5C 474.5,212.5 474.5,210.5 474.5,208.5C 468.5,208.5 462.5,208.5 456.5,208.5C 456.643,210.262 456.309,211.929 455.5,213.5C 437.179,214.5 418.845,214.833 400.5,214.5C 400.5,212.5 400.5,210.5 400.5,208.5C 390.167,208.5 379.833,208.5 369.5,208.5C 369.5,204.5 369.5,200.5 369.5,196.5C 373.909,197.101 375.242,195.434 373.5,191.5C 370.242,190.583 366.909,190.249 363.5,190.5C 363.784,192.415 363.451,194.081 362.5,195.5C 362.5,193.5 362.5,191.5 362.5,189.5C 366.833,189.5 371.167,189.5 375.5,189.5C 375.5,191.5 375.5,193.5 375.5,195.5C 377.5,195.5 379.5,195.5 381.5,195.5C 381.5,189.5 381.5,183.5 381.5,177.5C 379.5,177.5 377.5,177.5 375.5,177.5C 375.5,175.5 375.5,173.5 375.5,171.5C 373.167,171.5 370.833,171.5 368.5,171.5C 368.5,169.167 368.5,166.833 368.5,164.5C 360.5,164.5 352.5,164.5 344.5,164.5C 344.5,166.833 344.5,169.167 344.5,171.5C 335.983,171.826 327.65,171.493 319.5,170.5C 323.514,170.666 327.514,170.499 331.5,170C 332.38,168.644 332.714,167.144 332.5,165.5C 328.167,165.5 323.833,165.5 319.5,165.5C 323.298,164.517 327.298,164.183 331.5,164.5C 331.5,162.5 331.5,160.5 331.5,158.5C 335.931,158.769 340.265,158.436 344.5,157.5C 345.956,159.284 346.956,161.284 347.5,163.5C 353.509,163.666 359.509,163.499 365.5,163C 366.766,162.691 367.933,162.191 369,161.5C 369.49,162.793 369.657,164.127 369.5,165.5C 371.5,165.5 373.5,165.5 375.5,165.5C 375.34,167.199 375.506,168.866 376,170.5C 377.113,171.711 378.28,171.711 379.5,170.5C 380.167,167.358 380.834,164.358 381.5,161.5C 381.336,164.187 381.503,166.854 382,169.5C 383.699,170.406 385.533,170.739 387.5,170.5C 387.5,166.833 387.5,163.167 387.5,159.5C 388.461,157.735 388.795,155.735 388.5,153.5C 391.187,153.336 393.854,153.503 396.5,154C 395.549,154.718 395.383,155.551 396,156.5C 396.908,154.561 398.408,153.561 400.5,153.5C 400.5,151.167 400.5,148.833 400.5,146.5C 406.5,146.5 412.5,146.5 418.5,146.5 Z"/></g>
<g><path style="opacity:1" fill="#acd2e9" d="M 381.5,177.5 C 381.5,175.833 381.5,174.167 381.5,172.5C 385.894,172.131 390.227,171.465 394.5,170.5C 394.5,172.833 394.5,175.167 394.5,177.5C 396.5,177.5 398.5,177.5 400.5,177.5C 400.5,181.5 400.5,185.5 400.5,189.5C 398.5,189.5 396.5,189.5 394.5,189.5C 394.5,191.833 394.5,194.167 394.5,196.5C 392.167,196.5 389.833,196.5 387.5,196.5C 387.5,194.167 387.5,191.833 387.5,189.5C 389.5,189.5 391.5,189.5 393.5,189.5C 393.5,187.5 393.5,185.5 393.5,183.5C 391.5,183.5 389.5,183.5 387.5,183.5C 387.5,181.5 387.5,179.5 387.5,177.5C 385.5,177.5 383.5,177.5 381.5,177.5 Z"/></g>
<g><path style="opacity:1" fill="#abd0e1" d="M 344.5,164.5 C 340.5,164.5 336.5,164.5 332.5,164.5C 332.5,162.833 332.5,161.167 332.5,159.5C 336.5,159.5 340.5,159.5 344.5,159.5C 344.5,161.167 344.5,162.833 344.5,164.5 Z"/></g>
<g><path style="opacity:1" fill="#bfe6fb" d="M 139.5,177.5 C 141.833,177.5 144.167,177.5 146.5,177.5C 146.5,178.5 146.5,179.5 146.5,180.5C 146.5,185.5 146.5,190.5 146.5,195.5C 144.167,195.5 141.833,195.5 139.5,195.5C 139.5,197.833 139.5,200.167 139.5,202.5C 141.5,202.5 143.5,202.5 145.5,202.5C 145.261,204.467 145.594,206.301 146.5,208C 154.827,208.5 163.16,208.666 171.5,208.5C 171.5,206.5 171.5,204.5 171.5,202.5C 173.167,202.5 174.833,202.5 176.5,202.5C 176.5,196.167 176.5,189.833 176.5,183.5C 177.166,187.353 177.833,191.353 178.5,195.5C 179.736,196.246 181.07,196.579 182.5,196.5C 182.5,198.5 182.5,200.5 182.5,202.5C 187.931,201.094 190.265,203.094 189.5,208.5C 191.5,208.5 193.5,208.5 195.5,208.5C 195.5,210.5 195.5,212.5 195.5,214.5C 176.833,214.5 158.167,214.5 139.5,214.5C 139.5,212.5 139.5,210.5 139.5,208.5C 135.486,208.666 131.486,208.499 127.5,208C 126.54,204.27 126.207,200.437 126.5,196.5C 124.833,196.5 123.167,196.5 121.5,196.5C 121.5,200.5 121.5,204.5 121.5,208.5C 118.252,208.238 115.252,208.238 112.5,208.5C 111.167,208.5 109.833,208.5 108.5,208.5C 108.5,207.167 108.5,205.833 108.5,204.5C 110.892,205.368 111.059,204.701 109,202.5C 108.5,196.175 108.334,189.842 108.5,183.5C 112.833,183.5 117.167,183.5 121.5,183.5C 121.5,181.5 121.5,179.5 121.5,177.5C 123.5,177.5 125.5,177.5 127.5,177.5C 127.5,179.5 127.5,181.5 127.5,183.5C 129.5,183.5 131.5,183.5 133.5,183.5C 133.5,185.5 133.5,187.5 133.5,189.5C 135.5,189.5 137.5,189.5 139.5,189.5C 139.5,185.5 139.5,181.5 139.5,177.5 Z"/></g>
<g><path style="opacity:1" fill="#e9f9fd" d="M 648.5,146.5 C 652.5,146.5 656.5,146.5 660.5,146.5C 660.5,148.5 660.5,150.5 660.5,152.5C 658.5,152.5 656.5,152.5 654.5,152.5C 654.5,158.833 654.5,165.167 654.5,171.5C 652.533,167.854 651.366,163.854 651,159.5C 649.951,160.517 648.784,160.684 647.5,160C 647.833,159.667 648.167,159.333 648.5,159C 643.614,152.725 639.614,153.058 636.5,160C 634.866,160.494 633.199,160.66 631.5,160.5C 631.334,165.179 631.501,169.845 632,174.5C 633.333,171.833 634.667,169.167 636,166.5C 637.666,171.567 637.833,176.734 636.5,182C 636.777,187.879 637.777,193.545 639.5,199C 638.497,201.468 637.997,203.968 638,206.5C 644.682,206.609 651.516,206.609 658.5,206.5C 658.337,204.143 658.503,201.81 659,199.5C 660.488,200.196 661.988,199.862 663.5,198.5C 665.007,194.337 665.34,190.17 664.5,186C 661.823,185.751 659.49,184.751 657.5,183C 658.82,179.06 658.487,175.226 656.5,171.5C 657.833,171.5 659.167,171.5 660.5,171.5C 660.5,175.5 660.5,179.5 660.5,183.5C 662.5,183.5 664.5,183.5 666.5,183.5C 666.5,189.5 666.5,195.5 666.5,201.5C 664.5,201.5 662.5,201.5 660.5,201.5C 660.5,203.833 660.5,206.167 660.5,208.5C 652.493,208.666 644.493,208.5 636.5,208C 635.594,206.301 635.261,204.467 635.5,202.5C 633.5,202.5 631.5,202.5 629.5,202.5C 629.337,200.143 629.503,197.81 630,195.5C 631.441,194.74 632.941,194.074 634.5,193.5C 635.495,188.208 635.828,182.875 635.5,177.5C 633.5,177.5 631.5,177.5 629.5,177.5C 629.5,171.167 629.5,164.833 629.5,158.5C 631.833,158.5 634.167,158.5 636.5,158.5C 636.5,156.5 636.5,154.5 636.5,152.5C 640.5,152.5 644.5,152.5 648.5,152.5C 648.5,150.5 648.5,148.5 648.5,146.5 Z"/></g>
<g><path style="opacity:1" fill="#f0f7fd" d="M 654.5,171.5 C 655.167,171.5 655.833,171.5 656.5,171.5C 658.487,175.226 658.82,179.06 657.5,183C 659.49,184.751 661.823,185.751 664.5,186C 665.34,190.17 665.007,194.337 663.5,198.5C 661.988,199.862 660.488,200.196 659,199.5C 658.503,201.81 658.337,204.143 658.5,206.5C 651.516,206.609 644.682,206.609 638,206.5C 637.997,203.968 638.497,201.468 639.5,199C 637.777,193.545 636.777,187.879 636.5,182C 637.833,176.734 637.666,171.567 636,166.5C 634.667,169.167 633.333,171.833 632,174.5C 631.501,169.845 631.334,165.179 631.5,160.5C 633.199,160.66 634.866,160.494 636.5,160C 639.614,153.058 643.614,152.725 648.5,159C 648.167,159.333 647.833,159.667 647.5,160C 648.784,160.684 649.951,160.517 651,159.5C 651.366,163.854 652.533,167.854 654.5,171.5 Z"/></g>
<g><path style="opacity:1" fill="#c0e7fa" d="M 301.5,182.5 C 303.265,183.461 305.265,183.795 307.5,183.5C 308.906,188.931 306.906,191.265 301.5,190.5C 301.5,192.167 301.5,193.833 301.5,195.5C 303.5,195.5 305.5,195.5 307.5,195.5C 307.5,197.5 307.5,199.5 307.5,201.5C 311.5,201.5 315.5,201.5 319.5,201.5C 319.5,203.833 319.5,206.167 319.5,208.5C 329.833,208.5 340.167,208.5 350.5,208.5C 350.5,206.167 350.5,203.833 350.5,201.5C 352.5,201.5 354.5,201.5 356.5,201.5C 356.5,203.833 356.5,206.167 356.5,208.5C 358.5,208.5 360.5,208.5 362.5,208.5C 362.5,210.5 362.5,212.5 362.5,214.5C 346.167,214.5 329.833,214.5 313.5,214.5C 313.5,212.5 313.5,210.5 313.5,208.5C 309.167,208.5 304.833,208.5 300.5,208.5C 300.5,204.167 300.5,199.833 300.5,195.5C 298.833,195.5 297.167,195.5 295.5,195.5C 295.5,193.5 295.5,191.5 295.5,189.5C 297.167,189.5 298.833,189.5 300.5,189.5C 300.5,187.5 300.5,185.5 300.5,183.5C 300.5,182.833 300.833,182.5 301.5,182.5 Z"/></g>
<g><path style="opacity:1" fill="#bce3fb" d="M 121.5,219.5 C 374.834,219.667 628.167,219.5 881.5,219C 882.38,217.644 882.714,216.144 882.5,214.5C 876.833,214.5 871.167,214.5 865.5,214.5C 865.5,212.167 865.5,209.833 865.5,207.5C 861.5,207.5 857.5,207.5 853.5,207.5C 853.5,203.833 853.5,200.167 853.5,196.5C 856.85,196.665 860.183,196.498 863.5,196C 864.406,194.301 864.739,192.467 864.5,190.5C 860.833,190.5 857.167,190.5 853.5,190.5C 853.784,192.415 853.451,194.081 852.5,195.5C 852.5,193.5 852.5,191.5 852.5,189.5C 856.833,189.5 861.167,189.5 865.5,189.5C 865.5,193.5 865.5,197.5 865.5,201.5C 870.418,201.172 872.418,203.505 871.5,208.5C 875.833,208.5 880.167,208.5 884.5,208.5C 884.5,206.5 884.5,204.5 884.5,202.5C 886.5,202.5 888.5,202.5 890.5,202.5C 890.5,198.167 890.5,193.833 890.5,189.5C 888.5,189.5 886.5,189.5 884.5,189.5C 884.5,187.833 884.5,186.167 884.5,184.5C 883.209,184.737 882.209,184.404 881.5,183.5C 884.281,183.094 887.281,183.094 890.5,183.5C 889.5,188.5 891.5,190.5 896.5,189.5C 896.5,195.833 896.5,202.167 896.5,208.5C 892.167,208.167 890.167,210.167 890.5,214.5C 885.949,213.554 883.616,215.387 883.5,220C 629.333,220.833 375.333,220.666 121.5,219.5 Z"/></g>
<g><path style="opacity:1" fill="#bfe6fb" d="M 201.5,183.5 C 205.833,183.5 210.167,183.5 214.5,183.5C 214.5,185.5 214.5,187.5 214.5,189.5C 212.5,189.5 210.5,189.5 208.5,189.5C 208.5,191.5 208.5,193.5 208.5,195.5C 210.5,195.5 212.5,195.5 214.5,195.5C 214.5,197.5 214.5,199.5 214.5,201.5C 218.5,201.5 222.5,201.5 226.5,201.5C 226.5,203.833 226.5,206.167 226.5,208.5C 242.833,208.5 259.167,208.5 275.5,208.5C 275.5,206.167 275.5,203.833 275.5,201.5C 279.833,201.5 284.167,201.5 288.5,201.5C 288.5,199.5 288.5,197.5 288.5,195.5C 290.262,195.357 291.929,195.691 293.5,196.5C 294.496,202.463 294.829,208.463 294.5,214.5C 267.831,214.667 241.165,214.5 214.5,214C 213.594,212.301 213.261,210.467 213.5,208.5C 207.833,208.5 202.167,208.5 196.5,208.5C 195.631,206.283 195.298,203.95 195.5,201.5C 193.5,201.5 191.5,201.5 189.5,201.5C 189.5,199.5 189.5,197.5 189.5,195.5C 187.5,195.5 185.5,195.5 183.5,195.5C 183.5,193.5 183.5,191.5 183.5,189.5C 189.5,189.5 195.5,189.5 201.5,189.5C 201.5,187.5 201.5,185.5 201.5,183.5 Z"/></g>
<g><path style="opacity:0.997" fill="#abd2e5" d="M 561.5,195.5 C 561.176,199.555 561.509,203.555 562.5,207.5C 566.429,208.433 570.429,208.766 574.5,208.5C 574.261,210.467 574.594,212.301 575.5,214C 589.496,214.5 603.496,214.667 617.5,214.5C 617.5,212.5 617.5,210.5 617.5,208.5C 621.5,208.5 625.5,208.5 629.5,208.5C 629.5,210.5 629.5,212.5 629.5,214.5C 648.167,214.5 666.833,214.5 685.5,214.5C 685.5,212.5 685.5,210.5 685.5,208.5C 691.758,208.81 697.924,208.476 704,207.5C 704.497,209.81 704.663,212.143 704.5,214.5C 731.167,214.5 757.833,214.5 784.5,214.5C 784.5,208.5 784.5,202.5 784.5,196.5C 782.5,196.5 780.5,196.5 778.5,196.5C 778.5,194.167 778.5,191.833 778.5,189.5C 780.5,189.5 782.5,189.5 784.5,189.5C 784.5,187.5 784.5,185.5 784.5,183.5C 786.833,183.5 789.167,183.5 791.5,183.5C 791.5,181.5 791.5,179.5 791.5,177.5C 795.5,177.5 799.5,177.5 803.5,177.5C 803.5,179.5 803.5,181.5 803.5,183.5C 801.5,183.5 799.5,183.5 797.5,183.5C 797.5,185.5 797.5,187.5 797.5,189.5C 795.5,189.5 793.5,189.5 791.5,189.5C 791.5,191.5 791.5,193.5 791.5,195.5C 791.5,199.833 791.5,204.167 791.5,208.5C 795.5,208.5 799.5,208.5 803.5,208.5C 803.5,210.5 803.5,212.5 803.5,214.5C 819.833,214.5 836.167,214.5 852.5,214.5C 852.5,212.5 852.5,210.5 852.5,208.5C 850.533,208.739 848.699,208.406 847,207.5C 846.938,203.852 847.105,200.185 847.5,196.5C 849.415,196.784 851.081,196.451 852.5,195.5C 853.451,194.081 853.784,192.415 853.5,190.5C 857.167,190.5 860.833,190.5 864.5,190.5C 864.739,192.467 864.406,194.301 863.5,196C 860.183,196.498 856.85,196.665 853.5,196.5C 853.5,200.167 853.5,203.833 853.5,207.5C 857.5,207.5 861.5,207.5 865.5,207.5C 865.5,209.833 865.5,212.167 865.5,214.5C 871.167,214.5 876.833,214.5 882.5,214.5C 882.714,216.144 882.38,217.644 881.5,219C 628.167,219.5 374.834,219.667 121.5,219.5C 121.22,215.241 118.886,213.574 114.5,214.5C 114.946,211.99 114.28,209.99 112.5,208.5C 115.252,208.238 118.252,208.238 121.5,208.5C 121.5,204.5 121.5,200.5 121.5,196.5C 123.167,196.5 124.833,196.5 126.5,196.5C 126.207,200.437 126.54,204.27 127.5,208C 131.486,208.499 135.486,208.666 139.5,208.5C 139.5,210.5 139.5,212.5 139.5,214.5C 158.167,214.5 176.833,214.5 195.5,214.5C 195.5,212.5 195.5,210.5 195.5,208.5C 195.833,208.5 196.167,208.5 196.5,208.5C 202.167,208.5 207.833,208.5 213.5,208.5C 213.261,210.467 213.594,212.301 214.5,214C 241.165,214.5 267.831,214.667 294.5,214.5C 294.829,208.463 294.496,202.463 293.5,196.5C 291.929,195.691 290.262,195.357 288.5,195.5C 288.5,193.5 288.5,191.5 288.5,189.5C 290.5,189.5 292.5,189.5 294.5,189.5C 294.5,187.5 294.5,185.5 294.5,183.5C 296.5,183.5 298.5,183.5 300.5,183.5C 300.5,185.5 300.5,187.5 300.5,189.5C 298.833,189.5 297.167,189.5 295.5,189.5C 295.5,191.5 295.5,193.5 295.5,195.5C 297.167,195.5 298.833,195.5 300.5,195.5C 300.5,199.833 300.5,204.167 300.5,208.5C 304.833,208.5 309.167,208.5 313.5,208.5C 313.5,210.5 313.5,212.5 313.5,214.5C 329.833,214.5 346.167,214.5 362.5,214.5C 362.5,212.5 362.5,210.5 362.5,208.5C 360.5,208.5 358.5,208.5 356.5,208.5C 356.5,206.167 356.5,203.833 356.5,201.5C 356.5,199.5 356.5,197.5 356.5,195.5C 358.5,195.5 360.5,195.5 362.5,195.5C 363.451,194.081 363.784,192.415 363.5,190.5C 366.909,190.249 370.242,190.583 373.5,191.5C 375.242,195.434 373.909,197.101 369.5,196.5C 369.5,200.5 369.5,204.5 369.5,208.5C 379.833,208.5 390.167,208.5 400.5,208.5C 400.5,210.5 400.5,212.5 400.5,214.5C 418.845,214.833 437.179,214.5 455.5,213.5C 456.309,211.929 456.643,210.262 456.5,208.5C 462.5,208.5 468.5,208.5 474.5,208.5C 474.5,210.5 474.5,212.5 474.5,214.5C 503.5,214.5 532.5,214.5 561.5,214.5C 561.5,212.5 561.5,210.5 561.5,208.5C 559.5,208.5 557.5,208.5 555.5,208.5C 555.5,204.5 555.5,200.5 555.5,196.5C 553.5,196.5 551.5,196.5 549.5,196.5C 549.5,194.167 549.5,191.833 549.5,189.5C 551.5,189.5 553.5,189.5 555.5,189.5C 555.5,187.5 555.5,185.5 555.5,183.5C 557.5,183.5 559.5,183.5 561.5,183.5C 561.5,181.5 561.5,179.5 561.5,177.5C 565.833,177.5 570.167,177.5 574.5,177.5C 574.5,179.5 574.5,181.5 574.5,183.5C 572.167,183.5 569.833,183.5 567.5,183.5C 567.5,185.5 567.5,187.5 567.5,189.5C 565.5,189.5 563.5,189.5 561.5,189.5C 561.5,191.5 561.5,193.5 561.5,195.5 Z"/></g>
<g><path style="opacity:1" fill="#bfe6fb" d="M 629.5,177.5 C 631.5,177.5 633.5,177.5 635.5,177.5C 635.828,182.875 635.495,188.208 634.5,193.5C 632.941,194.074 631.441,194.74 630,195.5C 629.503,197.81 629.337,200.143 629.5,202.5C 631.5,202.5 633.5,202.5 635.5,202.5C 635.261,204.467 635.594,206.301 636.5,208C 644.493,208.5 652.493,208.666 660.5,208.5C 660.5,206.167 660.5,203.833 660.5,201.5C 662.5,201.5 664.5,201.5 666.5,201.5C 666.5,195.5 666.5,189.5 666.5,183.5C 667.166,187.353 667.833,191.353 668.5,195.5C 669.736,196.246 671.07,196.579 672.5,196.5C 672.5,198.5 672.5,200.5 672.5,202.5C 674.833,202.5 677.167,202.5 679.5,202.5C 679.5,204.5 679.5,206.5 679.5,208.5C 684.418,208.828 686.418,206.495 685.5,201.5C 683.5,201.5 681.5,201.5 679.5,201.5C 679.5,199.5 679.5,197.5 679.5,195.5C 677.5,195.5 675.5,195.5 673.5,195.5C 673.5,193.5 673.5,191.5 673.5,189.5C 679.5,189.5 685.5,189.5 691.5,189.5C 691.357,187.738 691.691,186.071 692.5,184.5C 696.107,183.511 699.774,183.177 703.5,183.5C 703.5,185.5 703.5,187.5 703.5,189.5C 701.5,189.5 699.5,189.5 697.5,189.5C 697.5,191.5 697.5,193.5 697.5,195.5C 699.833,195.5 702.167,195.5 704.5,195.5C 704.5,197.5 704.5,199.5 704.5,201.5C 708.5,201.5 712.5,201.5 716.5,201.5C 716.244,203.792 716.577,205.959 717.5,208C 733.83,208.5 750.163,208.667 766.5,208.5C 766.5,206.5 766.5,204.5 766.5,202.5C 770.182,202.665 773.848,202.499 777.5,202C 778.406,200.301 778.739,198.467 778.5,196.5C 780.5,196.5 782.5,196.5 784.5,196.5C 784.5,202.5 784.5,208.5 784.5,214.5C 757.833,214.5 731.167,214.5 704.5,214.5C 704.663,212.143 704.497,209.81 704,207.5C 697.924,208.476 691.758,208.81 685.5,208.5C 685.5,210.5 685.5,212.5 685.5,214.5C 666.833,214.5 648.167,214.5 629.5,214.5C 629.5,212.5 629.5,210.5 629.5,208.5C 625.5,208.5 621.5,208.5 617.5,208.5C 617.5,210.5 617.5,212.5 617.5,214.5C 603.496,214.667 589.496,214.5 575.5,214C 574.594,212.301 574.261,210.467 574.5,208.5C 570.429,208.766 566.429,208.433 562.5,207.5C 561.509,203.555 561.176,199.555 561.5,195.5C 563.5,195.5 565.5,195.5 567.5,195.5C 567.5,197.833 567.5,200.167 567.5,202.5C 571.5,202.5 575.5,202.5 579.5,202.5C 579.5,204.5 579.5,206.5 579.5,208.5C 590.167,208.5 600.833,208.5 611.5,208.5C 611.5,206.5 611.5,204.5 611.5,202.5C 613.5,202.5 615.5,202.5 617.5,202.5C 617.5,200.167 617.5,197.833 617.5,195.5C 619.5,195.5 621.5,195.5 623.5,195.5C 623.5,193.5 623.5,191.5 623.5,189.5C 625.5,189.5 627.5,189.5 629.5,189.5C 629.5,185.5 629.5,181.5 629.5,177.5 Z"/></g>
<g><path style="opacity:1" fill="#c0e7fb" d="M 791.5,195.5 C 793.5,195.5 795.5,195.5 797.5,195.5C 797.5,197.5 797.5,199.5 797.5,201.5C 801.5,201.5 805.5,201.5 809.5,201.5C 809.5,203.833 809.5,206.167 809.5,208.5C 819.506,208.666 829.506,208.5 839.5,208C 840.423,205.959 840.756,203.792 840.5,201.5C 842.5,201.5 844.5,201.5 846.5,201.5C 846.5,199.5 846.5,197.5 846.5,195.5C 848.5,195.5 850.5,195.5 852.5,195.5C 851.081,196.451 849.415,196.784 847.5,196.5C 847.105,200.185 846.938,203.852 847,207.5C 848.699,208.406 850.533,208.739 852.5,208.5C 852.5,210.5 852.5,212.5 852.5,214.5C 836.167,214.5 819.833,214.5 803.5,214.5C 803.5,212.5 803.5,210.5 803.5,208.5C 799.5,208.5 795.5,208.5 791.5,208.5C 791.5,204.167 791.5,199.833 791.5,195.5 Z"/></g>
<g><path style="opacity:1" fill="#b2cfdc" d="M 530.5,183.5 C 530.5,185.5 530.5,187.5 530.5,189.5C 528.5,189.5 526.5,189.5 524.5,189.5C 524.5,187.5 524.5,185.5 524.5,183.5C 526.5,183.5 528.5,183.5 530.5,183.5 Z"/></g>
</svg>
