<?xml version="1.0" encoding="UTF-8"?>
<!DOCTYPE svg PUBLIC "-//W3C//DTD SVG 1.1//EN" "http://www.w3.org/Graphics/SVG/1.1/DTD/svg11.dtd">
<svg xmlns="http://www.w3.org/2000/svg" version="1.1" width="612px" height="306px" style="shape-rendering:geometricPrecision; text-rendering:geometricPrecision; image-rendering:optimizeQuality; fill-rule:evenodd; clip-rule:evenodd" xmlns:xlink="http://www.w3.org/1999/xlink">
<g><path style="opacity:0.151" fill="#e3f7ff" d="M 366.5,-0.5 C 366.833,-0.5 367.167,-0.5 367.5,-0.5C 367.5,9.16667 367.5,18.8333 367.5,28.5C 375.019,28.175 382.352,28.5084 389.5,29.5C 381.833,29.5 374.167,29.5 366.5,29.5C 366.5,19.5 366.5,9.5 366.5,-0.5 Z"/></g>
<g><path style="opacity:1" fill="#98bbd4" d="M 275.5,-0.5 C 275.833,-0.5 276.167,-0.5 276.5,-0.5C 276.225,8.22063 276.558,16.8873 277.5,25.5C 280.039,27.2325 283.039,28.2325 286.5,28.5C 312.141,27.2136 337.808,27.2136 363.5,28.5C 363.5,27.1667 363.5,25.8333 363.5,24.5C 363.5,24.1667 363.5,23.8333 363.5,23.5C 363.5,15.5 363.5,7.5 363.5,-0.5C 364.5,-0.5 365.5,-0.5 366.5,-0.5C 366.5,9.5 366.5,19.5 366.5,29.5C 336.167,29.5 305.833,29.5 275.5,29.5C 275.5,19.5 275.5,9.5 275.5,-0.5 Z"/></g>
<g><path style="opacity:1" fill="#8dbee3" d="M 363.5,24.5 C 363.5,25.8333 363.5,27.1667 363.5,28.5C 337.808,27.2136 312.141,27.2136 286.5,28.5C 283.039,28.2325 280.039,27.2325 277.5,25.5C 302.082,25.453 326.749,25.6197 351.5,26C 355.191,26.4196 358.858,26.9196 362.5,27.5C 362.263,26.209 362.596,25.209 363.5,24.5 Z"/></g>
<g><path style="opacity:1" fill="#8bbee8" d="M 276.5,-0.5 C 277.833,-0.5 279.167,-0.5 280.5,-0.5C 280.334,4.51108 280.501,9.51108 281,14.5C 282.113,16.592 282.279,18.9253 281.5,21.5C 283.144,21.7135 284.644,21.3802 286,20.5C 286.5,21 287,21.5 287.5,22C 309.167,22.6667 330.833,22.6667 352.5,22C 356.599,19.6503 360.265,20.1503 363.5,23.5C 363.5,23.8333 363.5,24.1667 363.5,24.5C 362.596,25.209 362.263,26.209 362.5,27.5C 358.858,26.9196 355.191,26.4196 351.5,26C 326.749,25.6197 302.082,25.453 277.5,25.5C 276.558,16.8873 276.225,8.22063 276.5,-0.5 Z"/></g>
<g><path style="opacity:1" fill="#91bee4" d="M 280.5,-0.5 C 281.833,-0.5 283.167,-0.5 284.5,-0.5C 284.334,4.51108 284.501,9.51108 285,14.5C 285.925,15.0465 286.758,15.7132 287.5,16.5C 309.826,17.3331 332.159,17.8331 354.5,18C 357.74,20.3635 360.074,19.6968 361.5,16C 360.57,10.5496 360.237,5.04956 360.5,-0.5C 361.5,-0.5 362.5,-0.5 363.5,-0.5C 363.5,7.5 363.5,15.5 363.5,23.5C 360.265,20.1503 356.599,19.6503 352.5,22C 330.833,22.6667 309.167,22.6667 287.5,22C 287,21.5 286.5,21 286,20.5C 284.644,21.3802 283.144,21.7135 281.5,21.5C 282.279,18.9253 282.113,16.592 281,14.5C 280.501,9.51108 280.334,4.51108 280.5,-0.5 Z"/></g>
<g><path style="opacity:1" fill="#8ebee7" d="M 284.5,-0.5 C 309.833,-0.5 335.167,-0.5 360.5,-0.5C 360.237,5.04956 360.57,10.5496 361.5,16C 360.074,19.6968 357.74,20.3635 354.5,18C 332.159,17.8331 309.826,17.3331 287.5,16.5C 286.758,15.7132 285.925,15.0465 285,14.5C 284.501,9.51108 284.334,4.51108 284.5,-0.5 Z"/></g>
<g><path style="opacity:0.312" fill="#deeff9" d="M 274.5,28.5 C 274.5,29.1667 274.5,29.8333 274.5,30.5C 264.5,30.5 254.5,30.5 244.5,30.5C 244.5,39.8333 244.5,49.1667 244.5,58.5C 244.5,59.1667 244.167,59.5 243.5,59.5C 243.334,49.4944 243.5,39.4944 244,29.5C 254.235,28.5704 264.402,28.237 274.5,28.5 Z"/></g>
<g><path style="opacity:1" fill="#f3fefe" d="M 366.5,30.5 C 366.5,40.5 366.5,50.5 366.5,60.5C 376.319,61.494 386.319,61.8274 396.5,61.5C 396.5,70.1667 396.5,78.8333 396.5,87.5C 395.508,79.6841 395.174,71.6841 395.5,63.5C 385.599,62.6096 375.599,62.6096 365.5,63.5C 364.756,62.0095 364.09,60.5095 363.5,59C 363.833,58.6667 364.167,58.3333 364.5,58C 363.279,49.3552 362.279,40.6886 361.5,32C 333.488,31.2469 305.488,31.4135 277.5,32.5C 277.666,40.84 277.5,49.1733 277,57.5C 276.768,58.7375 276.268,59.7375 275.5,60.5C 275.5,50.5 275.5,40.5 275.5,30.5C 305.833,30.5 336.167,30.5 366.5,30.5 Z"/></g>
<g><path style="opacity:1" fill="#d1e4f2" d="M 273.5,-0.5 C 274.167,-0.5 274.833,-0.5 275.5,-0.5C 275.5,9.5 275.5,19.5 275.5,29.5C 305.833,29.5 336.167,29.5 366.5,29.5C 374.167,29.5 381.833,29.5 389.5,29.5C 392.385,29.1936 395.052,29.5269 397.5,30.5C 387.167,30.5 376.833,30.5 366.5,30.5C 336.167,30.5 305.833,30.5 275.5,30.5C 275.5,40.5 275.5,50.5 275.5,60.5C 275.167,60.5 274.833,60.5 274.5,60.5C 274.5,50.5 274.5,40.5 274.5,30.5C 274.5,29.8333 274.5,29.1667 274.5,28.5C 273.551,18.8859 273.218,9.21927 273.5,-0.5 Z"/></g>
<g><path style="opacity:1" fill="#fefefe" d="M 396.5,87.5 C 396.232,89.099 396.566,90.4324 397.5,91.5C 397.586,92.4959 397.252,93.3292 396.5,94C 397,94.1667 397.5,94.3333 398,94.5C 407.042,93.1899 416.042,93.1899 425,94.5C 425.675,101.518 425.509,108.518 424.5,115.5C 424.649,117.32 425.316,118.82 426.5,120C 425.185,121.395 425.519,122.395 427.5,123C 426.833,123.333 426.167,123.667 425.5,124C 426.701,124.903 427.535,126.069 428,127.5C 429.713,125.807 431.713,124.474 434,123.5C 440.334,124.164 447.501,124.164 455.5,123.5C 456.549,132.473 456.716,141.473 456,150.5C 446.402,151.155 436.902,151.822 427.5,152.5C 426.506,161.986 426.173,171.652 426.5,181.5C 422.751,181.7 419.584,181.033 417,179.5C 416.5,180 416,180.5 415.5,181C 409.167,181.333 402.833,181.667 396.5,182C 395.271,184.738 393.938,187.405 392.5,190C 393.416,190.374 394.25,190.874 395,191.5C 395.83,197.528 395.664,203.528 394.5,209.5C 393.449,210.885 392.116,211.885 390.5,212.5C 382.665,211.198 374.665,210.532 366.5,210.5C 339.187,210.739 311.854,210.906 284.5,211C 284.833,211.333 285.167,211.667 285.5,212C 282.518,212.498 279.518,212.665 276.5,212.5C 276.451,202.429 276.784,192.595 277.5,183C 275.43,182.052 273.93,180.552 273,178.5C 271.513,179.253 271.346,180.086 272.5,181C 266.833,181.667 261.167,181.667 255.5,181C 253.76,179.173 252.093,179.34 250.5,181.5C 249.5,180.833 248.5,180.167 247.5,179.5C 246.188,172.276 246.188,165.109 247.5,158C 246.133,155.699 245.466,153.199 245.5,150.5C 237.738,150.056 229.905,150.389 222,151.5C 218.722,150.723 216.555,148.723 215.5,145.5C 215.11,128.498 215.776,111.498 217.5,94.5C 225.451,93.6972 233.451,93.1972 241.5,93C 242.737,92.7679 243.737,92.2679 244.5,91.5C 246.95,91.1257 247.95,89.6257 247.5,87C 246.266,79.2745 246.266,71.6078 247.5,64C 256.457,62.169 265.457,62.0024 274.5,63.5C 274.5,62.5 274.5,61.5 274.5,60.5C 274.833,60.5 275.167,60.5 275.5,60.5C 276.268,59.7375 276.768,58.7375 277,57.5C 277.5,49.1733 277.666,40.84 277.5,32.5C 305.488,31.4135 333.488,31.2469 361.5,32C 362.279,40.6886 363.279,49.3552 364.5,58C 364.167,58.3333 363.833,58.6667 363.5,59C 364.09,60.5095 364.756,62.0095 365.5,63.5C 375.599,62.6096 385.599,62.6096 395.5,63.5C 395.174,71.6841 395.508,79.6841 396.5,87.5 Z"/></g>
<g><path style="opacity:0.871" fill="#a4c0d3" d="M 366.5,30.5 C 376.833,30.5 387.167,30.5 397.5,30.5C 397.819,40.4163 397.486,50.2496 396.5,60C 386.506,60.4998 376.506,60.6665 366.5,60.5C 366.5,50.5 366.5,40.5 366.5,30.5 Z"/></g>
<g><path style="opacity:1" fill="#90bee3" d="M 368.5,31.5 C 377.5,31.5 386.5,31.5 395.5,31.5C 395.5,40.8333 395.5,50.1667 395.5,59.5C 386.167,59.5 376.833,59.5 367.5,59.5C 367.195,50.0833 367.528,40.75 368.5,31.5 Z"/></g>
<g><path style="opacity:1" fill="#8bbee8" d="M 389.5,32.5 C 390.833,32.5 392.167,32.5 393.5,32.5C 393.831,41.1922 393.498,49.8589 392.5,58.5C 390.954,57.7884 389.954,56.6217 389.5,55C 388.225,47.7103 388.225,40.2103 389.5,32.5 Z"/></g>
<g><path style="opacity:0.72" fill="#9abad2" d="M 274.5,30.5 C 274.5,40.5 274.5,50.5 274.5,60.5C 264.833,60.5 255.167,60.5 245.5,60.5C 245.672,59.5084 245.338,58.8417 244.5,58.5C 244.5,49.1667 244.5,39.8333 244.5,30.5C 254.5,30.5 264.5,30.5 274.5,30.5 Z"/></g>
<g><path style="opacity:1" fill="#90bee5" d="M 246.5,31.5 C 255.418,31.1828 264.251,31.5161 273,32.5C 273.816,41.0787 273.649,49.5787 272.5,58C 263.833,58.6667 255.167,58.6667 246.5,58C 245.919,57.1074 245.585,56.1074 245.5,55C 246.748,52.5903 247.748,50.0903 248.5,47.5C 247.5,47.5 246.5,47.5 245.5,47.5C 245.218,42.0735 245.551,36.7401 246.5,31.5 Z"/></g>
<g><path style="opacity:0.551" fill="#a8c4d8" d="M 457.5,60.5 C 458.5,60.8333 459.167,61.5 459.5,62.5C 458.506,71.9856 458.173,81.6522 458.5,91.5C 457.5,91.5 456.5,91.5 455.5,91.5C 455.5,91.1667 455.5,90.8333 455.5,90.5C 456.268,89.7375 456.768,88.7375 457,87.5C 457.5,78.8397 457.666,70.1731 457.5,61.5C 437.804,60.8457 418.471,61.5124 399.5,63.5C 399.167,63.5 398.833,63.5 398.5,63.5C 398.167,63.5 397.833,63.5 397.5,63.5C 397.5,62.5 397.5,61.5 397.5,60.5C 417.5,60.5 437.5,60.5 457.5,60.5 Z"/></g>
<g><path style="opacity:1" fill="#9abcd5" d="M 220.5,61.5 C 220.5,61.8333 220.5,62.1667 220.5,62.5C 218.856,62.2865 217.356,62.6198 216,63.5C 215.333,71.1667 215.333,78.8333 216,86.5C 216.671,87.2524 217.504,87.5858 218.5,87.5C 219.263,88.2679 220.263,88.7679 221.5,89C 227.491,89.4995 233.491,89.6662 239.5,89.5C 240.5,89.5 241.5,89.5 242.5,89.5C 242.5,80.1667 242.5,70.8333 242.5,61.5C 243.167,61.5 243.833,61.5 244.5,61.5C 244.5,62.1667 244.5,62.8333 244.5,63.5C 243.507,72.3178 243.173,81.3178 243.5,90.5C 233.828,90.6665 224.161,90.4998 214.5,90C 214.553,80.7097 214.553,71.2097 214.5,61.5C 216.5,61.5 218.5,61.5 220.5,61.5 Z"/></g>
<g><path style="opacity:1" fill="#92bbda" d="M 220.5,62.5 C 220.5,62.1667 220.5,61.8333 220.5,61.5C 227.833,61.5 235.167,61.5 242.5,61.5C 242.5,70.8333 242.5,80.1667 242.5,89.5C 241.5,89.5 240.5,89.5 239.5,89.5C 239.557,88.391 239.89,87.391 240.5,86.5C 241.82,78.6572 241.82,70.6572 240.5,62.5C 233.847,63.7517 227.18,63.7517 220.5,62.5 Z"/></g>
<g><path style="opacity:1" fill="#e5f9fe" d="M 397.5,30.5 C 398.494,39.9856 398.827,49.6522 398.5,59.5C 418.34,59.1696 438.007,59.5029 457.5,60.5C 437.5,60.5 417.5,60.5 397.5,60.5C 397.5,61.5 397.5,62.5 397.5,63.5C 397.5,72.8333 397.5,82.1667 397.5,91.5C 396.566,90.4324 396.232,89.099 396.5,87.5C 396.5,78.8333 396.5,70.1667 396.5,61.5C 386.319,61.8274 376.319,61.494 366.5,60.5C 376.506,60.6665 386.506,60.4998 396.5,60C 397.486,50.2496 397.819,40.4163 397.5,30.5 Z"/></g>
<g><path style="opacity:1" fill="#91bee2" d="M 454.5,89.5 C 454.5,81.1667 454.5,72.8333 454.5,64.5C 453.167,64.5 451.833,64.5 450.5,64.5C 450.666,69.1785 450.499,73.8452 450,78.5C 449.581,79.6721 448.915,80.6721 448,81.5C 447.501,75.8431 447.334,70.1764 447.5,64.5C 431.833,64.5 416.167,64.5 400.5,64.5C 400.185,72.4197 400.518,80.253 401.5,88C 407.833,88.6667 414.167,88.6667 420.5,88C 423.705,85.8984 427.038,84.0651 430.5,82.5C 431.386,83.325 431.719,84.325 431.5,85.5C 426.569,85.6459 426.236,86.9792 430.5,89.5C 438.614,88.0079 446.614,88.3413 454.5,90.5C 454.833,90.5 455.167,90.5 455.5,90.5C 455.5,90.8333 455.5,91.1667 455.5,91.5C 446.5,91.5 437.5,91.5 428.5,91.5C 428.167,91.5 427.833,91.5 427.5,91.5C 427.167,91.5 426.833,91.5 426.5,91.5C 417.871,89.8497 408.871,88.8497 399.5,88.5C 398.53,80.222 398.197,71.8886 398.5,63.5C 398.833,63.5 399.167,63.5 399.5,63.5C 417.76,62.3476 436.093,62.181 454.5,63C 455.789,66.4022 456.456,70.0688 456.5,74C 456.674,79.4207 456.007,84.5873 454.5,89.5 Z"/></g>
<g><path style="opacity:1" fill="#8fbee6" d="M 220.5,62.5 C 227.18,63.7517 233.847,63.7517 240.5,62.5C 241.82,70.6572 241.82,78.6572 240.5,86.5C 240.662,84.4727 240.495,82.4727 240,80.5C 239.626,81.4162 239.126,82.2496 238.5,83C 232.472,83.8303 226.472,83.6636 220.5,82.5C 219.089,80.9825 219.256,79.6492 221,78.5C 221.499,73.8452 221.666,69.1785 221.5,64.5C 220.167,64.5 218.833,64.5 217.5,64.5C 217.201,72.253 217.534,79.9196 218.5,87.5C 217.504,87.5858 216.671,87.2524 216,86.5C 215.333,78.8333 215.333,71.1667 216,63.5C 217.356,62.6198 218.856,62.2865 220.5,62.5 Z"/></g>
<g><path style="opacity:1" fill="#edfcfe" d="M 245.5,60.5 C 255.167,60.5 264.833,60.5 274.5,60.5C 274.5,61.5 274.5,62.5 274.5,63.5C 265.457,62.0024 256.457,62.169 247.5,64C 246.266,71.6078 246.266,79.2745 247.5,87C 247.95,89.6257 246.95,91.1257 244.5,91.5C 244.5,82.1667 244.5,72.8333 244.5,63.5C 244.5,62.8333 244.5,62.1667 244.5,61.5C 244.5,60.8333 244.833,60.5 245.5,60.5 Z"/></g>
<g><path style="opacity:1" fill="#8ebee7" d="M 454.5,89.5 C 454.5,89.8333 454.5,90.1667 454.5,90.5C 446.614,88.3413 438.614,88.0079 430.5,89.5C 426.236,86.9792 426.569,85.6459 431.5,85.5C 431.719,84.325 431.386,83.325 430.5,82.5C 427.038,84.0651 423.705,85.8984 420.5,88C 414.167,88.6667 407.833,88.6667 401.5,88C 400.518,80.253 400.185,72.4197 400.5,64.5C 416.167,64.5 431.833,64.5 447.5,64.5C 447.334,70.1764 447.501,75.8431 448,81.5C 448.915,80.6721 449.581,79.6721 450,78.5C 450.499,73.8452 450.666,69.1785 450.5,64.5C 451.833,64.5 453.167,64.5 454.5,64.5C 454.5,72.8333 454.5,81.1667 454.5,89.5 Z"/></g>
<g><path style="opacity:0.909" fill="#96bad5" d="M 455.5,90.5 C 455.167,90.5 454.833,90.5 454.5,90.5C 454.5,90.1667 454.5,89.8333 454.5,89.5C 456.007,84.5873 456.674,79.4207 456.5,74C 456.456,70.0688 455.789,66.4022 454.5,63C 436.093,62.181 417.76,62.3476 399.5,63.5C 418.471,61.5124 437.804,60.8457 457.5,61.5C 457.666,70.1731 457.5,78.8397 457,87.5C 456.768,88.7375 456.268,89.7375 455.5,90.5 Z"/></g>
<g><path style="opacity:0.365" fill="#b9d1e0" d="M 244.5,58.5 C 245.338,58.8417 245.672,59.5084 245.5,60.5C 244.833,60.5 244.5,60.8333 244.5,61.5C 243.833,61.5 243.167,61.5 242.5,61.5C 235.167,61.5 227.833,61.5 220.5,61.5C 218.5,61.5 216.5,61.5 214.5,61.5C 214.553,71.2097 214.553,80.7097 214.5,90C 224.161,90.4998 233.828,90.6665 243.5,90.5C 243.173,81.3178 243.507,72.3178 244.5,63.5C 244.5,72.8333 244.5,82.1667 244.5,91.5C 234.167,91.5 223.833,91.5 213.5,91.5C 213.5,81.5 213.5,71.5 213.5,61.5C 213.611,60.8826 213.944,60.3826 214.5,60C 224.161,59.5002 233.828,59.3335 243.5,59.5C 244.167,59.5 244.5,59.1667 244.5,58.5 Z"/></g>
<g><path style="opacity:1" fill="#8dbde9" d="M 240.5,86.5 C 239.89,87.391 239.557,88.391 239.5,89.5C 233.491,89.6662 227.491,89.4995 221.5,89C 220.263,88.7679 219.263,88.2679 218.5,87.5C 217.534,79.9196 217.201,72.253 217.5,64.5C 218.833,64.5 220.167,64.5 221.5,64.5C 221.666,69.1785 221.499,73.8452 221,78.5C 219.256,79.6492 219.089,80.9825 220.5,82.5C 226.472,83.6636 232.472,83.8303 238.5,83C 239.126,82.2496 239.626,81.4162 240,80.5C 240.495,82.4727 240.662,84.4727 240.5,86.5 Z"/></g>
<g><path style="opacity:1" fill="#9fc0da" d="M 397.5,63.5 C 397.833,63.5 398.167,63.5 398.5,63.5C 398.197,71.8886 398.53,80.222 399.5,88.5C 408.871,88.8497 417.871,89.8497 426.5,91.5C 416.833,91.5 407.167,91.5 397.5,91.5C 397.5,82.1667 397.5,72.8333 397.5,63.5 Z"/></g>
<g><path style="opacity:0.094" fill="#e6f7fe" d="M 213.5,61.5 C 213.5,71.5 213.5,81.5 213.5,91.5C 203.5,91.5 193.5,91.5 183.5,91.5C 192.986,90.5062 202.652,90.1729 212.5,90.5C 212.173,80.6522 212.506,70.9856 213.5,61.5 Z"/></g>
<g><path style="opacity:0.106" fill="#e3f7fe" d="M 459.5,62.5 C 459.5,71.8333 459.5,81.1667 459.5,90.5C 469.348,90.1729 479.014,90.5062 488.5,91.5C 478.5,91.5 468.5,91.5 458.5,91.5C 458.173,81.6522 458.506,71.9856 459.5,62.5 Z"/></g>
<g><path style="opacity:0.575" fill="#9bb9d2" d="M 183.5,91.5 C 193.5,91.5 203.5,91.5 213.5,91.5C 213.5,101.5 213.5,111.5 213.5,121.5C 212.833,121.5 212.167,121.5 211.5,121.5C 211.167,121.5 210.833,121.5 210.5,121.5C 212.125,112.251 212.792,102.918 212.5,93.5C 204.189,92.5013 195.856,92.3347 187.5,93C 186.975,93.6924 186.308,94.1924 185.5,94.5C 184.502,103.475 184.168,112.475 184.5,121.5C 184.167,121.5 183.833,121.5 183.5,121.5C 183.5,111.5 183.5,101.5 183.5,91.5 Z"/></g>
<g><path style="opacity:0.192" fill="#d1e5f5" d="M 183.5,91.5 C 183.5,101.5 183.5,111.5 183.5,121.5C 183.167,121.5 182.833,121.5 182.5,121.5C 182.167,121.5 181.833,121.5 181.5,121.5C 182.144,111.401 182.811,101.401 183.5,91.5 Z"/></g>
<g><path style="opacity:1" fill="#8fbee6" d="M 210.5,121.5 C 201.833,121.5 193.167,121.5 184.5,121.5C 184.168,112.475 184.502,103.475 185.5,94.5C 186.308,94.1924 186.975,93.6924 187.5,93C 195.856,92.3347 204.189,92.5013 212.5,93.5C 212.792,102.918 212.125,112.251 210.5,121.5 Z"/></g>
<g><path style="opacity:1" fill="#bedef6" d="M 428.5,91.5 C 437.5,91.5 446.5,91.5 455.5,91.5C 456.5,91.5 457.5,91.5 458.5,91.5C 458.5,91.8333 458.5,92.1667 458.5,92.5C 458.5,102.167 458.5,111.833 458.5,121.5C 457.833,121.5 457.167,121.5 456.5,121.5C 448.343,120.671 440.01,120.171 431.5,120C 430.692,119.692 430.025,119.192 429.5,118.5C 428.528,109.554 428.194,100.554 428.5,91.5 Z"/></g>
<g><path style="opacity:1" fill="#f2fdfe" d="M 213.5,91.5 C 223.833,91.5 234.167,91.5 244.5,91.5C 243.737,92.2679 242.737,92.7679 241.5,93C 233.451,93.1972 225.451,93.6972 217.5,94.5C 215.776,111.498 215.11,128.498 215.5,145.5C 216.555,148.723 218.722,150.723 222,151.5C 229.905,150.389 237.738,150.056 245.5,150.5C 245.466,153.199 246.133,155.699 247.5,158C 246.188,165.109 246.188,172.276 247.5,179.5C 248.5,180.167 249.5,180.833 250.5,181.5C 252.093,179.34 253.76,179.173 255.5,181C 261.167,181.667 266.833,181.667 272.5,181C 271.346,180.086 271.513,179.253 273,178.5C 273.93,180.552 275.43,182.052 277.5,183C 276.784,192.595 276.451,202.429 276.5,212.5C 279.518,212.665 282.518,212.498 285.5,212C 285.167,211.667 284.833,211.333 284.5,211C 311.854,210.906 339.187,210.739 366.5,210.5C 374.665,210.532 382.665,211.198 390.5,212.5C 392.116,211.885 393.449,210.885 394.5,209.5C 395.664,203.528 395.83,197.528 395,191.5C 394.25,190.874 393.416,190.374 392.5,190C 393.938,187.405 395.271,184.738 396.5,182C 402.833,181.667 409.167,181.333 415.5,181C 416,180.5 416.5,180 417,179.5C 419.584,181.033 422.751,181.7 426.5,181.5C 426.173,171.652 426.506,161.986 427.5,152.5C 427.5,162.833 427.5,173.167 427.5,183.5C 417.5,183.5 407.5,183.5 397.5,183.5C 396.506,192.986 396.173,202.652 396.5,212.5C 395.209,212.263 394.209,212.596 393.5,213.5C 354.167,213.5 314.833,213.5 275.5,213.5C 275.5,203.167 275.5,192.833 275.5,182.5C 265.167,182.5 254.833,182.5 244.5,182.5C 244.827,172.319 244.494,162.319 243.5,152.5C 233.5,152.5 223.5,152.5 213.5,152.5C 213.5,162.5 213.5,172.5 213.5,182.5C 212.175,181.047 211.342,181.381 211,183.5C 210.596,174.375 210.43,165.375 210.5,156.5C 209.5,156 208.5,155.5 207.5,155C 180.177,153.328 152.844,153.162 125.5,154.5C 124.585,155.328 123.919,156.328 123.5,157.5C 124.219,166.24 125.052,174.907 126,183.5C 125.014,182.829 123.847,182.829 122.5,183.5C 122.172,172.986 122.506,162.653 123.5,152.5C 143.5,152.5 163.5,152.5 183.5,152.5C 193.416,152.819 203.25,152.486 213,151.5C 213.5,141.506 213.666,131.506 213.5,121.5C 213.5,111.5 213.5,101.5 213.5,91.5 Z"/></g>
<g><path style="opacity:0.766" fill="#9bbad1" d="M 458.5,92.5 C 458.5,92.1667 458.5,91.8333 458.5,91.5C 468.5,91.5 478.5,91.5 488.5,91.5C 488.83,112.007 488.497,132.34 487.5,152.5C 487.667,132.831 487.5,113.164 487,93.5C 477.583,92.5149 468.083,92.1816 458.5,92.5 Z"/></g>
<g><path style="opacity:1" fill="#f3fdfe" d="M 397.5,91.5 C 407.167,91.5 416.833,91.5 426.5,91.5C 426.833,91.5 427.167,91.5 427.5,91.5C 427.5,101.5 427.5,111.5 427.5,121.5C 437.167,121.5 446.833,121.5 456.5,121.5C 457.167,121.5 457.833,121.5 458.5,121.5C 458.5,131.5 458.5,141.5 458.5,151.5C 448.582,152.474 438.582,152.807 428.5,152.5C 428.167,152.5 427.833,152.5 427.5,152.5C 436.902,151.822 446.402,151.155 456,150.5C 456.716,141.473 456.549,132.473 455.5,123.5C 447.501,124.164 440.334,124.164 434,123.5C 431.713,124.474 429.713,125.807 428,127.5C 427.535,126.069 426.701,124.903 425.5,124C 426.167,123.667 426.833,123.333 427.5,123C 425.519,122.395 425.185,121.395 426.5,120C 425.316,118.82 424.649,117.32 424.5,115.5C 425.509,108.518 425.675,101.518 425,94.5C 416.042,93.1899 407.042,93.1899 398,94.5C 397.5,94.3333 397,94.1667 396.5,94C 397.252,93.3292 397.586,92.4959 397.5,91.5 Z"/></g>
<g><path style="opacity:1" fill="#cfe3ef" d="M 427.5,91.5 C 427.833,91.5 428.167,91.5 428.5,91.5C 428.194,100.554 428.528,109.554 429.5,118.5C 430.025,119.192 430.692,119.692 431.5,120C 440.01,120.171 448.343,120.671 456.5,121.5C 446.833,121.5 437.167,121.5 427.5,121.5C 427.5,111.5 427.5,101.5 427.5,91.5 Z"/></g>
<g><path style="opacity:0.839" fill="#9dbbd3" d="M 182.5,122.5 C 182.5,123.833 182.5,125.167 182.5,126.5C 181.609,125.89 180.609,125.557 179.5,125.5C 179.5,124.833 179.167,124.5 178.5,124.5C 160.341,123.503 142.008,123.17 123.5,123.5C 123.5,132.5 123.5,141.5 123.5,150.5C 143.167,150.5 162.833,150.5 182.5,150.5C 182.833,150.5 183.167,150.5 183.5,150.5C 183.5,150.833 183.5,151.167 183.5,151.5C 183.5,151.833 183.5,152.167 183.5,152.5C 163.5,152.5 143.5,152.5 123.5,152.5C 122.526,142.582 122.193,132.582 122.5,122.5C 142.5,122.5 162.5,122.5 182.5,122.5 Z"/></g>
<g><path style="opacity:1" fill="#bfdef5" d="M 210.5,122.5 C 210.833,122.5 211.167,122.5 211.5,122.5C 211.666,131.839 211.5,141.173 211,150.5C 201.917,151.485 192.751,151.818 183.5,151.5C 183.5,151.167 183.5,150.833 183.5,150.5C 191.467,149.763 199.467,149.263 207.5,149C 209.515,147.445 209.848,145.611 208.5,143.5C 207.614,144.325 207.281,145.325 207.5,146.5C 200.385,146.925 193.385,146.425 186.5,145C 186.043,144.586 185.709,144.086 185.5,143.5C 186.289,137.885 186.789,132.218 187,126.5C 187.5,125.333 188.333,124.5 189.5,124C 195.196,123.17 200.863,123.337 206.5,124.5C 207.32,126.111 208.654,126.778 210.5,126.5C 210.5,125.167 210.5,123.833 210.5,122.5 Z"/></g>
<g><path style="opacity:1" fill="#95bddd" d="M 458.5,92.5 C 468.083,92.1816 477.583,92.5149 487,93.5C 487.5,113.164 487.667,132.831 487.5,152.5C 486.5,152.5 485.5,152.5 484.5,152.5C 484.783,151.711 485.283,151.044 486,150.5C 486.5,131.836 486.667,113.17 486.5,94.5C 477.854,93.7468 469.188,93.4135 460.5,93.5C 460.48,111.847 460.98,130.18 462,148.5C 462.914,149.654 463.747,149.487 464.5,148C 470.5,147.333 476.5,147.333 482.5,148C 483.581,149.711 483.248,151.211 481.5,152.5C 473.747,152.799 466.08,152.466 458.5,151.5C 458.5,141.5 458.5,131.5 458.5,121.5C 458.5,111.833 458.5,102.167 458.5,92.5 Z"/></g>
<g><path style="opacity:1" fill="#8fbee6" d="M 484.5,152.5 C 483.5,152.5 482.5,152.5 481.5,152.5C 483.248,151.211 483.581,149.711 482.5,148C 476.5,147.333 470.5,147.333 464.5,148C 463.747,149.487 462.914,149.654 462,148.5C 460.98,130.18 460.48,111.847 460.5,93.5C 469.188,93.4135 477.854,93.7468 486.5,94.5C 486.667,113.17 486.5,131.836 486,150.5C 485.283,151.044 484.783,151.711 484.5,152.5 Z"/></g>
<g><path style="opacity:1" fill="#a4cbeb" d="M 182.5,121.5 C 182.833,121.5 183.167,121.5 183.5,121.5C 183.833,121.5 184.167,121.5 184.5,121.5C 193.167,121.5 201.833,121.5 210.5,121.5C 210.833,121.5 211.167,121.5 211.5,121.5C 211.5,121.833 211.5,122.167 211.5,122.5C 211.167,122.5 210.833,122.5 210.5,122.5C 201.5,122.5 192.5,122.5 183.5,122.5C 183.5,131.833 183.5,141.167 183.5,150.5C 183.167,150.5 182.833,150.5 182.5,150.5C 182.5,142.5 182.5,134.5 182.5,126.5C 182.5,125.167 182.5,123.833 182.5,122.5C 182.5,122.167 182.5,121.833 182.5,121.5 Z"/></g>
<g><path style="opacity:1" fill="#c5dae7" d="M 211.5,121.5 C 212.167,121.5 212.833,121.5 213.5,121.5C 213.666,131.506 213.5,141.506 213,151.5C 203.25,152.486 193.416,152.819 183.5,152.5C 183.5,152.167 183.5,151.833 183.5,151.5C 192.751,151.818 201.917,151.485 211,150.5C 211.5,141.173 211.666,131.839 211.5,122.5C 211.5,122.167 211.5,121.833 211.5,121.5 Z"/></g>
<g><path style="opacity:1" fill="#8ebee6" d="M 178.5,124.5 C 179.167,124.5 179.5,124.833 179.5,125.5C 180.792,131.834 180.792,138.167 179.5,144.5C 180.95,145.85 181.617,147.516 181.5,149.5C 179.5,149.5 177.5,149.5 175.5,149.5C 178.175,147.624 177.842,146.124 174.5,145C 158.833,144.667 143.167,144.333 127.5,144C 128.471,138.928 128.805,133.762 128.5,128.5C 144.167,128.5 159.833,128.5 175.5,128.5C 175.173,133.214 175.507,137.88 176.5,142.5C 177.309,136.835 177.975,131.168 178.5,125.5C 160.833,125.5 143.167,125.5 125.5,125.5C 125.5,133.5 125.5,141.5 125.5,149.5C 124.507,141.35 124.174,133.017 124.5,124.5C 142.5,124.5 160.5,124.5 178.5,124.5 Z"/></g>
<g><path style="opacity:1" fill="#bbdffb" d="M 210.5,122.5 C 210.5,123.833 210.5,125.167 210.5,126.5C 208.654,126.778 207.32,126.111 206.5,124.5C 200.863,123.337 195.196,123.17 189.5,124C 188.333,124.5 187.5,125.333 187,126.5C 186.789,132.218 186.289,137.885 185.5,143.5C 185.709,144.086 186.043,144.586 186.5,145C 193.385,146.425 200.385,146.925 207.5,146.5C 207.281,145.325 207.614,144.325 208.5,143.5C 209.848,145.611 209.515,147.445 207.5,149C 199.467,149.263 191.467,149.763 183.5,150.5C 183.5,141.167 183.5,131.833 183.5,122.5C 192.5,122.5 201.5,122.5 210.5,122.5 Z"/></g>
<g><path style="opacity:1" fill="#93bddf" d="M 178.5,124.5 C 160.5,124.5 142.5,124.5 124.5,124.5C 124.174,133.017 124.507,141.35 125.5,149.5C 142.167,149.5 158.833,149.5 175.5,149.5C 177.5,149.5 179.5,149.5 181.5,149.5C 181.617,147.516 180.95,145.85 179.5,144.5C 180.792,138.167 180.792,131.834 179.5,125.5C 180.609,125.557 181.609,125.89 182.5,126.5C 182.5,134.5 182.5,142.5 182.5,150.5C 162.833,150.5 143.167,150.5 123.5,150.5C 123.5,141.5 123.5,132.5 123.5,123.5C 142.008,123.17 160.341,123.503 178.5,124.5 Z"/></g>
<g><path style="opacity:1" fill="#8cbee9" d="M 175.5,149.5 C 158.833,149.5 142.167,149.5 125.5,149.5C 125.5,141.5 125.5,133.5 125.5,125.5C 143.167,125.5 160.833,125.5 178.5,125.5C 177.975,131.168 177.309,136.835 176.5,142.5C 175.507,137.88 175.173,133.214 175.5,128.5C 159.833,128.5 144.167,128.5 128.5,128.5C 128.805,133.762 128.471,138.928 127.5,144C 143.167,144.333 158.833,144.667 174.5,145C 177.842,146.124 178.175,147.624 175.5,149.5 Z"/></g>
<g><path style="opacity:0.067" fill="#e5fefe" d="M 121.5,139.5 C 121.5,143.833 121.5,148.167 121.5,152.5C 91.1667,152.5 60.8333,152.5 30.5,152.5C 60.3287,151.502 90.3287,151.169 120.5,151.5C 120.183,147.298 120.517,143.298 121.5,139.5 Z"/></g>
<g><path style="opacity:0.092" fill="#e7feff" d="M 489.5,150.5 C 509.931,151.156 530.265,151.822 550.5,152.5C 530.167,152.5 509.833,152.5 489.5,152.5C 489.5,151.833 489.5,151.167 489.5,150.5 Z"/></g>
<g><path style="opacity:0.484" fill="#a5c0d4" d="M 30.5,152.5 C 60.8333,152.5 91.1667,152.5 121.5,152.5C 121.5,154.167 121.5,155.833 121.5,157.5C 120.751,156.469 120.085,155.302 119.5,154C 90.1686,153.5 60.8352,153.333 31.5,153.5C 31.7947,155.735 31.4614,157.735 30.5,159.5C 30.5,157.167 30.5,154.833 30.5,152.5 Z"/></g>
<g><path style="opacity:1" fill="#cadee9" d="M 243.5,152.5 C 243.5,153.833 243.5,155.167 243.5,156.5C 239.975,154.013 235.975,153.013 231.5,153.5C 226.716,153.423 222.05,154.09 217.5,155.5C 217.192,156.308 216.692,156.975 216,157.5C 215.813,164.081 215.313,170.581 214.5,177C 215.337,178.011 215.67,179.178 215.5,180.5C 218.167,180.5 220.833,180.5 223.5,180.5C 223.833,181.167 224.167,181.833 224.5,182.5C 220.833,182.5 217.167,182.5 213.5,182.5C 213.5,172.5 213.5,162.5 213.5,152.5C 223.5,152.5 233.5,152.5 243.5,152.5 Z"/></g>
<g><path style="opacity:0.647" fill="#a6c2d5" d="M 489.5,153.5 C 489.5,153.167 489.5,152.833 489.5,152.5C 509.833,152.5 530.167,152.5 550.5,152.5C 550.5,152.833 550.5,153.167 550.5,153.5C 550.5,163.5 550.5,173.5 550.5,183.5C 548.5,183.5 546.5,183.5 544.5,183.5C 545.641,182.661 546.974,181.994 548.5,181.5C 549.665,173.187 549.832,164.853 549,156.5C 548.612,155.572 547.945,154.905 547,154.5C 527.867,153.518 508.701,153.185 489.5,153.5 Z"/></g>
<g><path style="opacity:1" fill="#fefefe" d="M 213.5,182.5 C 213.5,182.833 213.5,183.167 213.5,183.5C 213.611,184.117 213.944,184.617 214.5,185C 223.167,185.333 231.833,185.667 240.5,186C 241.701,186.903 242.535,188.069 243,189.5C 243.5,197.159 243.666,204.826 243.5,212.5C 233.494,212.334 223.494,212.5 213.5,213C 212.68,222.423 212.18,231.923 212,241.5C 211.275,242.059 210.442,242.392 209.5,242.5C 170.852,241.845 132.185,241.178 93.5,240.5C 94.1196,237.722 94.453,234.889 94.5,232C 93.3394,225.54 92.6727,219.04 92.5,212.5C 82.1667,212.5 71.8333,212.5 61.5,212.5C 61.3336,204.493 61.5003,196.493 62,188.5C 63,186.833 64.3333,185.5 66,184.5C 80.6667,184.5 95.3333,184.5 110,184.5C 111,185.167 112,185.833 113,186.5C 116.42,186.002 119.587,185.002 122.5,183.5C 123.847,182.829 125.014,182.829 126,183.5C 125.052,174.907 124.219,166.24 123.5,157.5C 123.919,156.328 124.585,155.328 125.5,154.5C 152.844,153.162 180.177,153.328 207.5,155C 208.5,155.5 209.5,156 210.5,156.5C 210.43,165.375 210.596,174.375 211,183.5C 211.342,181.381 212.175,181.047 213.5,182.5 Z"/></g>
<g><path style="opacity:1" fill="#bfddf0" d="M 243.5,156.5 C 243.5,165.167 243.5,173.833 243.5,182.5C 237.167,182.5 230.833,182.5 224.5,182.5C 224.167,181.833 223.833,181.167 223.5,180.5C 220.833,180.5 218.167,180.5 215.5,180.5C 215.67,179.178 215.337,178.011 214.5,177C 215.313,170.581 215.813,164.081 216,157.5C 216.692,156.975 217.192,156.308 217.5,155.5C 222.05,154.09 226.716,153.423 231.5,153.5C 235.975,153.013 239.975,154.013 243.5,156.5 Z"/></g>
<g><path style="opacity:1" fill="#beddf6" d="M 488.5,91.5 C 489.497,110.993 489.83,130.66 489.5,150.5C 489.5,151.167 489.5,151.833 489.5,152.5C 489.5,152.833 489.5,153.167 489.5,153.5C 489.5,161.5 489.5,169.5 489.5,177.5C 489.5,178.5 489.5,179.5 489.5,180.5C 489.5,181.167 489.167,181.5 488.5,181.5C 469.83,181.667 451.164,181.5 432.5,181C 430.002,176.721 429.002,172.054 429.5,167C 429.833,163.833 430.167,160.667 430.5,157.5C 431.287,156.758 431.953,155.925 432.5,155C 441.171,154.656 449.838,154.822 458.5,155.5C 458.5,154.167 458.5,152.833 458.5,151.5C 466.08,152.466 473.747,152.799 481.5,152.5C 482.5,152.5 483.5,152.5 484.5,152.5C 485.5,152.5 486.5,152.5 487.5,152.5C 488.497,132.34 488.83,112.007 488.5,91.5 Z"/></g>
<g><path style="opacity:1" fill="#8ebee6" d="M 489.5,180.5 C 489.5,179.5 489.5,178.5 489.5,177.5C 491.288,177.785 492.955,177.452 494.5,176.5C 494.192,175.692 493.692,175.025 493,174.5C 492.667,169.5 492.333,164.5 492,159.5C 491.308,158.975 490.808,158.308 490.5,157.5C 492.167,156.833 493.833,156.167 495.5,155.5C 511.823,154.334 528.156,154.167 544.5,155C 546.333,155.5 547.5,156.667 548,158.5C 548.667,164.167 548.667,169.833 548,175.5C 547.065,178.102 545.232,179.602 542.5,180C 536.823,179.989 531.323,180.823 526,182.5C 524.189,181.922 522.355,181.422 520.5,181C 510.172,180.5 499.839,180.334 489.5,180.5 Z"/></g>
<g><path style="opacity:1" fill="#bedef7" d="M 223.5,180.5 C 228.056,178.558 233.056,177.892 238.5,178.5C 238.5,177.5 238.5,176.5 238.5,175.5C 231.5,175.5 224.5,175.5 217.5,175.5C 217.411,169.456 217.411,163.622 217.5,158C 225.395,156.399 233.395,156.066 241.5,157C 242.654,157.914 242.487,158.747 241,159.5C 240.505,166.205 240.505,172.872 241,179.5C 235.259,180.475 229.425,180.808 223.5,180.5 Z"/></g>
<g><path style="opacity:1" fill="#95bdde" d="M 121.5,157.5 C 121.5,158.167 121.5,158.833 121.5,159.5C 121.126,166.761 120.126,173.927 118.5,181C 100.17,181.5 81.8364,181.667 63.5,181.5C 63.5,181.833 63.5,182.167 63.5,182.5C 61.5853,182.216 59.9187,182.549 58.5,183.5C 58.1667,183.5 57.8333,183.5 57.5,183.5C 48.5,183.5 39.5,183.5 30.5,183.5C 30.5,175.5 30.5,167.5 30.5,159.5C 31.4614,157.735 31.7947,155.735 31.5,153.5C 60.8352,153.333 90.1686,153.5 119.5,154C 120.085,155.302 120.751,156.469 121.5,157.5 Z"/></g>
<g><path style="opacity:1" fill="#8ebee6" d="M 63.5,181.5 C 59.9899,181.668 56.4899,182.001 53,182.5C 46.331,180.534 39.4977,179.534 32.5,179.5C 32.5,171.833 32.5,164.167 32.5,156.5C 60.8258,155.476 89.1591,155.31 117.5,156C 118.833,164 118.833,172 117.5,180C 99.3287,180.168 81.3287,180.668 63.5,181.5 Z"/></g>
<g><path style="opacity:0.038" fill="#e1f6fb" d="M 550.5,153.5 C 551.33,162.658 551.83,171.991 552,181.5C 561.598,182.155 571.098,182.822 580.5,183.5C 570.5,183.5 560.5,183.5 550.5,183.5C 550.5,173.5 550.5,163.5 550.5,153.5 Z"/></g>
<g><path style="opacity:1" fill="#94bdde" d="M 489.5,153.5 C 508.701,153.185 527.867,153.518 547,154.5C 547.945,154.905 548.612,155.572 549,156.5C 549.832,164.853 549.665,173.187 548.5,181.5C 546.974,181.994 545.641,182.661 544.5,183.5C 536.5,183.5 528.5,183.5 520.5,183.5C 520.167,183.5 519.833,183.5 519.5,183.5C 509.347,182.506 499.014,182.172 488.5,182.5C 488.5,182.167 488.5,181.833 488.5,181.5C 489.167,181.5 489.5,181.167 489.5,180.5C 499.839,180.334 510.172,180.5 520.5,181C 522.355,181.422 524.189,181.922 526,182.5C 531.323,180.823 536.823,179.989 542.5,180C 545.232,179.602 547.065,178.102 548,175.5C 548.667,169.833 548.667,164.167 548,158.5C 547.5,156.667 546.333,155.5 544.5,155C 528.156,154.167 511.823,154.334 495.5,155.5C 493.833,156.167 492.167,156.833 490.5,157.5C 490.808,158.308 491.308,158.975 492,159.5C 492.333,164.5 492.667,169.5 493,174.5C 493.692,175.025 494.192,175.692 494.5,176.5C 492.955,177.452 491.288,177.785 489.5,177.5C 489.5,169.5 489.5,161.5 489.5,153.5 Z"/></g>
<g><path style="opacity:1" fill="#98b7d1" d="M 121.5,159.5 C 121.5,167.167 121.5,174.833 121.5,182.5C 102.167,182.5 82.8333,182.5 63.5,182.5C 63.5,182.167 63.5,181.833 63.5,181.5C 81.8364,181.667 100.17,181.5 118.5,181C 120.126,173.927 121.126,166.761 121.5,159.5 Z"/></g>
<g><path style="opacity:1" fill="#c5ddee" d="M 458.5,151.5 C 458.5,152.833 458.5,154.167 458.5,155.5C 449.838,154.822 441.171,154.656 432.5,155C 431.953,155.925 431.287,156.758 430.5,157.5C 430.167,160.667 429.833,163.833 429.5,167C 429.002,172.054 430.002,176.721 432.5,181C 451.164,181.5 469.83,181.667 488.5,181.5C 488.5,181.833 488.5,182.167 488.5,182.5C 468.5,182.5 448.5,182.5 428.5,182.5C 428.5,172.5 428.5,162.5 428.5,152.5C 438.582,152.807 448.582,152.474 458.5,151.5 Z"/></g>
<g><path style="opacity:0.214" fill="#d6e8f6" d="M 30.5,152.5 C 30.5,154.833 30.5,157.167 30.5,159.5C 30.5,167.5 30.5,175.5 30.5,183.5C 30.1667,183.5 29.8333,183.5 29.5,183.5C 19.5,183.5 9.5,183.5 -0.5,183.5C -0.5,183.167 -0.5,182.833 -0.5,182.5C 9.17241,182.666 18.8391,182.5 28.5,182C 28.6081,172.101 29.2748,162.267 30.5,152.5 Z"/></g>
<g><path style="opacity:1" fill="#cee1ef" d="M 181.5,121.5 C 181.833,121.5 182.167,121.5 182.5,121.5C 182.5,121.833 182.5,122.167 182.5,122.5C 162.5,122.5 142.5,122.5 122.5,122.5C 122.193,132.582 122.526,142.582 123.5,152.5C 122.506,162.653 122.172,172.986 122.5,183.5C 101.833,183.5 81.1667,183.5 60.5,183.5C 59.8333,183.5 59.1667,183.5 58.5,183.5C 59.9187,182.549 61.5853,182.216 63.5,182.5C 82.8333,182.5 102.167,182.5 121.5,182.5C 121.5,174.833 121.5,167.167 121.5,159.5C 121.5,158.833 121.5,158.167 121.5,157.5C 121.5,155.833 121.5,154.167 121.5,152.5C 121.5,148.167 121.5,143.833 121.5,139.5C 121.5,133.5 121.5,127.5 121.5,121.5C 141.487,120.205 161.487,120.205 181.5,121.5 Z"/></g>
<g><path style="opacity:1" fill="#e1f1fa" d="M 243.5,152.5 C 244.494,162.319 244.827,172.319 244.5,182.5C 254.833,182.5 265.167,182.5 275.5,182.5C 275.5,192.833 275.5,203.167 275.5,213.5C 275.167,213.5 274.833,213.5 274.5,213.5C 274.5,203.5 274.5,193.5 274.5,183.5C 264.5,183.5 254.5,183.5 244.5,183.5C 234.167,183.5 223.833,183.5 213.5,183.5C 213.5,183.167 213.5,182.833 213.5,182.5C 217.167,182.5 220.833,182.5 224.5,182.5C 230.833,182.5 237.167,182.5 243.5,182.5C 243.5,173.833 243.5,165.167 243.5,156.5C 243.5,155.167 243.5,153.833 243.5,152.5 Z"/></g>
<g><path style="opacity:0.752" fill="#9abbd4" d="M -0.5,184.5 C -0.5,184.167 -0.5,183.833 -0.5,183.5C 9.5,183.5 19.5,183.5 29.5,183.5C 28.2196,184.931 26.5529,185.598 24.5,185.5C 16.1844,184.815 7.85102,184.482 -0.5,184.5 Z"/></g>
<g><path style="opacity:1" fill="#f3fefe" d="M 519.5,183.5 C 519.5,193.5 519.5,203.5 519.5,213.5C 519.5,213.833 519.5,214.167 519.5,214.5C 517.522,213.683 516.522,212.183 516.5,210C 517.686,201.816 517.686,193.816 516.5,186C 512.376,185.144 508.21,184.644 504,184.5C 487.75,184.751 471.416,185.085 455,185.5C 446.833,185.833 438.667,186.167 430.5,186.5C 430.058,187.739 429.391,188.739 428.5,189.5C 428.5,187.5 428.5,185.5 428.5,183.5C 458.833,183.5 489.167,183.5 519.5,183.5 Z"/></g>
<g><path style="opacity:1" fill="#badefb" d="M 520.5,183.5 C 528.5,183.5 536.5,183.5 544.5,183.5C 546.5,183.5 548.5,183.5 550.5,183.5C 550.5,184.167 550.5,184.833 550.5,185.5C 550.5,193.167 550.5,200.833 550.5,208.5C 549.175,209.953 548.342,209.619 548,207.5C 547.5,200.842 547.334,194.175 547.5,187.5C 545.857,187.52 544.524,186.853 543.5,185.5C 536.406,186.982 529.406,186.649 522.5,184.5C 521.508,184.672 520.842,184.338 520.5,183.5 Z"/></g>
<g><path style="opacity:1" fill="#fefefe" d="M 519.5,214.5 C 529.5,214.5 539.5,214.5 549.5,214.5C 549.5,223.167 549.5,231.833 549.5,240.5C 548.2,241.108 546.867,241.775 545.5,242.5C 496.855,241.676 448.189,241.176 399.5,241C 398.022,232.932 398.356,224.932 400.5,217C 406.196,216.743 411.863,216.243 417.5,215.5C 420.343,216.771 423.177,216.771 426,215.5C 427.03,215.164 427.53,214.497 427.5,213.5C 428.492,205.684 428.826,197.684 428.5,189.5C 429.391,188.739 430.058,187.739 430.5,186.5C 438.667,186.167 446.833,185.833 455,185.5C 471.416,185.085 487.75,184.751 504,184.5C 508.21,184.644 512.376,185.144 516.5,186C 517.686,193.816 517.686,201.816 516.5,210C 516.522,212.183 517.522,213.683 519.5,214.5 Z"/></g>
<g><path style="opacity:1" fill="#bfdef7" d="M 57.5,183.5 C 57.8333,183.5 58.1667,183.5 58.5,183.5C 59.1667,183.5 59.8333,183.5 60.5,183.5C 60.5,183.833 60.5,184.167 60.5,184.5C 58.6891,184.572 57.3557,185.405 56.5,187C 57.4138,188.406 58.0805,189.906 58.5,191.5C 58.1602,199.551 58.1602,207.551 58.5,215.5C 59.6652,216.491 60.8319,217.491 62,218.5C 67.7849,217.566 73.6182,217.232 79.5,217.5C 79.2148,219.288 79.5481,220.955 80.5,222.5C 81.4983,218.458 83.8316,217.124 87.5,218.5C 88.3028,226.451 88.8028,234.451 89,242.5C 89.5885,244.863 91.0885,245.863 93.5,245.5C 132.706,246.172 172.039,246.839 211.5,247.5C 215.28,246.887 217.613,244.72 218.5,241C 217.383,233.537 217.216,226.037 218,218.5C 225.624,217.194 233.291,217.194 241,218.5C 242.982,218.01 244.649,217.01 246,215.5C 246.333,206.5 246.667,197.5 247,188.5C 247.689,187.643 248.522,186.977 249.5,186.5C 251.332,187.248 252.999,188.248 254.5,189.5C 255.262,188.372 255.929,187.205 256.5,186C 261.419,185.198 266.252,185.365 271,186.5C 273.05,194.255 272.884,201.921 270.5,209.5C 271.493,213.001 273.493,215.834 276.5,218C 316.667,217.84 355.333,217.673 392.5,217.5C 392.259,219.898 392.926,221.898 394.5,223.5C 395.833,228.833 395.833,234.167 394.5,239.5C 393.252,240.334 392.585,241.667 392.5,243.5C 392.233,246.842 393.733,248.509 397,248.5C 403.143,247.772 409.309,247.272 415.5,247C 458.499,246.5 501.499,246.333 544.5,246.5C 548.804,248.016 552.137,246.349 554.5,241.5C 552.922,238.437 552.256,235.104 552.5,231.5C 552.626,227.812 552.96,224.145 553.5,220.5C 553.533,217.898 552.533,215.898 550.5,214.5C 550.5,214.167 550.5,213.833 550.5,213.5C 560.167,213.5 569.833,213.5 579.5,213.5C 579.5,213.833 579.5,214.167 579.5,214.5C 580.008,233.234 579.341,251.901 577.5,270.5C 569.289,271.586 561.456,271.586 554,270.5C 552.488,272.957 551.154,272.957 550,270.5C 549.333,273.167 548.667,273.167 548,270.5C 547.333,273.167 546.667,273.167 546,270.5C 545.333,273.167 544.667,273.167 544,270.5C 507.333,271.833 470.667,271.833 434,270.5C 432.488,272.957 431.154,272.957 430,270.5C 429.333,273.167 428.667,273.167 428,270.5C 427.333,273.167 426.667,273.167 426,270.5C 425.333,273.167 424.667,273.167 424,270.5C 398,271.833 372,271.833 346,270.5C 344.488,272.957 343.154,272.957 342,270.5C 341.333,273.167 340.667,273.167 340,270.5C 339.333,273.167 338.667,273.167 338,270.5C 337.333,273.167 336.667,273.167 336,270.5C 318,271.833 300,271.833 282,270.5C 280.488,272.957 279.154,272.957 278,270.5C 277.333,273.167 276.667,273.167 276,270.5C 275.333,273.167 274.667,273.167 274,270.5C 273.333,273.167 272.667,273.167 272,270.5C 224.667,271.833 177.333,271.833 130,270.5C 128.488,272.957 127.154,272.957 126,270.5C 125.333,273.167 124.667,273.167 124,270.5C 123.333,273.167 122.667,273.167 122,270.5C 121.333,273.167 120.667,273.167 120,270.5C 101.328,270.171 82.495,270.505 63.5,271.5C 63.2633,263.472 63.5966,255.472 64.5,247.5C 64.1667,246.5 63.8333,245.5 63.5,244.5C 60.5489,243.047 58.0489,241.047 56,238.5C 55.5172,239.448 55.3505,240.448 55.5,241.5C 47.5279,242.532 39.5279,242.698 31.5,242C 31.3724,223.98 31.5391,205.813 32,187.5C 34,186.167 36,186.167 38,187.5C 41.9746,186.944 45.8079,185.944 49.5,184.5C 52.5158,186.069 55.1825,185.736 57.5,183.5 Z"/></g>
<g><path style="opacity:1" fill="#bfdef6" d="M 522.5,184.5 C 529.406,186.649 536.406,186.982 543.5,185.5C 544.524,186.853 545.857,187.52 547.5,187.5C 547.334,194.175 547.5,200.842 548,207.5C 548.342,209.619 549.175,209.953 550.5,208.5C 550.5,209.167 550.5,209.833 550.5,210.5C 550.5,211.5 550.5,212.5 550.5,213.5C 550.167,213.5 549.833,213.5 549.5,213.5C 549.389,212.883 549.056,212.383 548.5,212C 540.167,211.667 531.833,211.333 523.5,211C 522.667,210.167 521.833,209.333 521,208.5C 519.692,200.965 520.525,193.798 523.5,187C 523.257,186.098 522.923,185.265 522.5,184.5 Z"/></g>
<g><path style="opacity:0.694" fill="#9fbcd4" d="M 550.5,183.5 C 560.5,183.5 570.5,183.5 580.5,183.5C 580.827,193.348 580.494,203.014 579.5,212.5C 579.5,203.5 579.5,194.5 579.5,185.5C 578.167,185.5 576.833,185.5 575.5,185.5C 567.33,184.521 558.997,184.521 550.5,185.5C 550.5,184.833 550.5,184.167 550.5,183.5 Z"/></g>
<g><path style="opacity:1" fill="#96c1e6" d="M 29.5,183.5 C 29.8333,183.5 30.1667,183.5 30.5,183.5C 30.5,203.167 30.5,222.833 30.5,242.5C 30.1667,242.5 29.8333,242.5 29.5,242.5C 29.8329,224.821 29.4995,207.154 28.5,189.5C 27.8333,206.328 27.1667,222.995 26.5,239.5C 26.1807,222.119 26.514,204.786 27.5,187.5C 26.3984,186.824 25.3984,186.158 24.5,185.5C 26.5529,185.598 28.2196,184.931 29.5,183.5 Z"/></g>
<g><path style="opacity:1" fill="#90bade" d="M 29.5,242.5 C 19.5,242.5 9.5,242.5 -0.5,242.5C -0.5,242.167 -0.5,241.833 -0.5,241.5C 8.66574,242.046 17.6657,241.379 26.5,239.5C 27.1667,222.995 27.8333,206.328 28.5,189.5C 29.4995,207.154 29.8329,224.821 29.5,242.5 Z"/></g>
<g><path style="opacity:1" fill="#cee0ec" d="M 60.5,184.5 C 60.5,194.167 60.5,203.833 60.5,213.5C 70.8333,213.5 81.1667,213.5 91.5,213.5C 91.5,223.5 91.5,233.5 91.5,243.5C 90.5062,234.014 90.1729,224.348 90.5,214.5C 80.5118,215.38 70.5118,215.547 60.5,215C 59.8476,207.068 59.1809,199.235 58.5,191.5C 58.0805,189.906 57.4138,188.406 56.5,187C 57.3557,185.405 58.6891,184.572 60.5,184.5 Z"/></g>
<g><path style="opacity:1" fill="#e7f7fe" d="M 397.5,183.5 C 397.5,193.5 397.5,203.5 397.5,213.5C 396.167,213.5 394.833,213.5 393.5,213.5C 394.209,212.596 395.209,212.263 396.5,212.5C 396.173,202.652 396.506,192.986 397.5,183.5 Z"/></g>
<g><path style="opacity:1" fill="#c7dce9" d="M 397.5,183.5 C 407.5,183.5 417.5,183.5 427.5,183.5C 427.5,193.5 427.5,203.5 427.5,213.5C 417.5,213.5 407.5,213.5 397.5,213.5C 397.5,203.5 397.5,193.5 397.5,183.5 Z"/></g>
<g><path style="opacity:1" fill="#bfdef6" d="M 400.5,185.5 C 408.655,185.831 416.655,186.331 424.5,187C 425.789,190.402 426.456,194.069 426.5,198C 426.719,202.853 426.052,207.519 424.5,212C 422.095,212.148 419.761,211.648 417.5,210.5C 411.541,211.414 405.541,211.747 399.5,211.5C 397.881,202.706 398.214,194.04 400.5,185.5 Z"/></g>
<g><path style="opacity:1" fill="#daebf7" d="M 427.5,152.5 C 427.833,152.5 428.167,152.5 428.5,152.5C 428.5,162.5 428.5,172.5 428.5,182.5C 448.5,182.5 468.5,182.5 488.5,182.5C 499.014,182.172 509.347,182.506 519.5,183.5C 489.167,183.5 458.833,183.5 428.5,183.5C 428.5,185.5 428.5,187.5 428.5,189.5C 428.826,197.684 428.492,205.684 427.5,213.5C 427.5,203.5 427.5,193.5 427.5,183.5C 427.5,173.167 427.5,162.833 427.5,152.5 Z"/></g>
<g><path style="opacity:1" fill="#8fbee6" d="M 575.5,185.5 C 575.811,186.478 576.478,187.145 577.5,187.5C 578.498,195.472 578.831,203.472 578.5,211.5C 569.083,211.805 559.75,211.472 550.5,210.5C 550.5,209.833 550.5,209.167 550.5,208.5C 550.5,200.833 550.5,193.167 550.5,185.5C 558.997,184.521 567.33,184.521 575.5,185.5 Z"/></g>
<g><path style="opacity:1" fill="#8ebee6" d="M -0.5,184.5 C 7.85102,184.482 16.1844,184.815 24.5,185.5C 25.3984,186.158 26.3984,186.824 27.5,187.5C 26.514,204.786 26.1807,222.119 26.5,239.5C 17.6657,241.379 8.66574,242.046 -0.5,241.5C -0.5,222.5 -0.5,203.5 -0.5,184.5 Z"/></g>
<g><path style="opacity:1" fill="#c7dce9" d="M 519.5,183.5 C 519.833,183.5 520.167,183.5 520.5,183.5C 520.842,184.338 521.508,184.672 522.5,184.5C 522.923,185.265 523.257,186.098 523.5,187C 520.525,193.798 519.692,200.965 521,208.5C 521.833,209.333 522.667,210.167 523.5,211C 531.833,211.333 540.167,211.667 548.5,212C 549.056,212.383 549.389,212.883 549.5,213.5C 539.5,213.5 529.5,213.5 519.5,213.5C 519.5,203.5 519.5,193.5 519.5,183.5 Z"/></g>
<g><path style="opacity:1" fill="#92badb" d="M 575.5,185.5 C 576.833,185.5 578.167,185.5 579.5,185.5C 579.5,194.5 579.5,203.5 579.5,212.5C 579.5,212.833 579.5,213.167 579.5,213.5C 569.833,213.5 560.167,213.5 550.5,213.5C 550.5,212.5 550.5,211.5 550.5,210.5C 559.75,211.472 569.083,211.805 578.5,211.5C 578.831,203.472 578.498,195.472 577.5,187.5C 576.478,187.145 575.811,186.478 575.5,185.5 Z"/></g>
<g><path style="opacity:0.046" fill="#eefffe" d="M 581.5,205.5 C 582.468,207.607 582.802,209.941 582.5,212.5C 592.167,212.5 601.833,212.5 611.5,212.5C 611.5,212.833 611.5,213.167 611.5,213.5C 601.5,213.5 591.5,213.5 581.5,213.5C 581.5,210.833 581.5,208.167 581.5,205.5 Z"/></g>
<g><path style="opacity:1" fill="#d3e4ec" d="M 274.5,213.5 C 274.833,213.5 275.167,213.5 275.5,213.5C 314.833,213.5 354.167,213.5 393.5,213.5C 394.833,213.5 396.167,213.5 397.5,213.5C 397.5,223.5 397.5,233.5 397.5,243.5C 397.5,243.833 397.5,244.167 397.5,244.5C 396.506,234.681 396.173,224.681 396.5,214.5C 356.5,214.5 316.5,214.5 276.5,214.5C 275.508,214.672 274.842,214.338 274.5,213.5 Z"/></g>
<g><path style="opacity:0.428" fill="#b8d0e1" d="M 580.5,183.5 C 581.492,190.648 581.825,197.981 581.5,205.5C 581.5,208.167 581.5,210.833 581.5,213.5C 591.5,213.5 601.5,213.5 611.5,213.5C 611.5,213.833 611.5,214.167 611.5,214.5C 601.828,214.334 592.161,214.5 582.5,215C 581.944,215.383 581.611,215.883 581.5,216.5C 581.167,216.5 580.833,216.5 580.5,216.5C 580.672,215.508 580.338,214.842 579.5,214.5C 579.5,214.167 579.5,213.833 579.5,213.5C 579.5,213.167 579.5,212.833 579.5,212.5C 580.494,203.014 580.827,193.348 580.5,183.5 Z"/></g>
<g><path style="opacity:1" fill="#c4ddef" d="M 244.5,183.5 C 254.5,183.5 264.5,183.5 274.5,183.5C 274.5,193.5 274.5,203.5 274.5,213.5C 274.842,214.338 275.508,214.672 276.5,214.5C 277.312,215.993 278.645,216.66 280.5,216.5C 321.261,215.645 359.261,215.645 394.5,216.5C 394.5,218.833 394.5,221.167 394.5,223.5C 392.926,221.898 392.259,219.898 392.5,217.5C 355.333,217.673 316.667,217.84 276.5,218C 273.493,215.834 271.493,213.001 270.5,209.5C 272.884,201.921 273.05,194.255 271,186.5C 266.252,185.365 261.419,185.198 256.5,186C 255.929,187.205 255.262,188.372 254.5,189.5C 252.999,188.248 251.332,187.248 249.5,186.5C 248.522,186.977 247.689,187.643 247,188.5C 246.667,197.5 246.333,206.5 246,215.5C 244.649,217.01 242.982,218.01 241,218.5C 233.291,217.194 225.624,217.194 218,218.5C 217.216,226.037 217.383,233.537 218.5,241C 217.613,244.72 215.28,246.887 211.5,247.5C 172.039,246.839 132.706,246.172 93.5,245.5C 93.5,245.167 93.5,244.833 93.5,244.5C 133.5,244.5 173.5,244.5 213.5,244.5C 215.246,243.751 216.246,242.417 216.5,240.5C 215.398,232.863 215.232,225.197 216,217.5C 216.5,217 217,216.5 217.5,216C 225.197,215.232 232.863,215.398 240.5,216.5C 242.417,216.246 243.751,215.246 244.5,213.5C 244.5,203.5 244.5,193.5 244.5,183.5 Z"/></g>
<g><path style="opacity:1" fill="#97bcdc" d="M 611.5,214.5 C 611.5,215.167 611.5,215.833 611.5,216.5C 601.5,216.5 591.5,216.5 581.5,216.5C 581.611,215.883 581.944,215.383 582.5,215C 592.161,214.5 601.828,214.334 611.5,214.5 Z"/></g>
<g><path style="opacity:1" fill="#c9dde9" d="M 244.5,213.5 C 243.751,215.246 242.417,216.246 240.5,216.5C 232.863,215.398 225.197,215.232 217.5,216C 217,216.5 216.5,217 216,217.5C 215.232,225.197 215.398,232.863 216.5,240.5C 216.246,242.417 215.246,243.751 213.5,244.5C 213.334,234.494 213.5,224.494 214,214.5C 224.084,213.514 234.251,213.181 244.5,213.5 Z"/></g>
<g><path style="opacity:1" fill="#c2dcef" d="M 58.5,191.5 C 59.1809,199.235 59.8476,207.068 60.5,215C 70.5118,215.547 80.5118,215.38 90.5,214.5C 90.1729,224.348 90.5062,234.014 91.5,243.5C 91.8417,244.338 92.5084,244.672 93.5,244.5C 93.5,244.833 93.5,245.167 93.5,245.5C 91.0885,245.863 89.5885,244.863 89,242.5C 88.8028,234.451 88.3028,226.451 87.5,218.5C 83.8316,217.124 81.4983,218.458 80.5,222.5C 79.5481,220.955 79.2148,219.288 79.5,217.5C 73.6182,217.232 67.7849,217.566 62,218.5C 60.8319,217.491 59.6652,216.491 58.5,215.5C 58.1602,207.551 58.1602,199.551 58.5,191.5 Z"/></g>
<g><path style="opacity:1" fill="#8ebee7" d="M 581.5,216.5 C 591.5,216.5 601.5,216.5 611.5,216.5C 611.5,235.5 611.5,254.5 611.5,273.5C 604.159,273.666 596.826,273.5 589.5,273C 588.128,272.598 586.795,272.098 585.5,271.5C 584.667,255.844 584.167,240.177 584,224.5C 581.835,222.347 581.002,219.681 581.5,216.5 Z"/></g>
<g><path style="opacity:0.998" fill="#95c0e3" d="M 580.5,216.5 C 580.833,216.5 581.167,216.5 581.5,216.5C 581.002,219.681 581.835,222.347 584,224.5C 584.167,240.177 584.667,255.844 585.5,271.5C 586.795,272.098 588.128,272.598 589.5,273C 596.826,273.5 604.159,273.666 611.5,273.5C 611.5,273.833 611.5,274.167 611.5,274.5C 601.167,274.5 590.833,274.5 580.5,274.5C 580.5,255.167 580.5,235.833 580.5,216.5 Z"/></g>
<g><path style="opacity:1" fill="#f5fcfe" d="M 397.5,213.5 C 407.5,213.5 417.5,213.5 427.5,213.5C 427.53,214.497 427.03,215.164 426,215.5C 423.177,216.771 420.343,216.771 417.5,215.5C 411.863,216.243 406.196,216.743 400.5,217C 398.356,224.932 398.022,232.932 399.5,241C 448.189,241.176 496.855,241.676 545.5,242.5C 546.867,241.775 548.2,241.108 549.5,240.5C 549.5,241.5 549.5,242.5 549.5,243.5C 498.833,243.5 448.167,243.5 397.5,243.5C 397.5,233.5 397.5,223.5 397.5,213.5 Z"/></g>
<g><path style="opacity:1" fill="#f2fbfe" d="M 60.5,183.5 C 81.1667,183.5 101.833,183.5 122.5,183.5C 119.587,185.002 116.42,186.002 113,186.5C 112,185.833 111,185.167 110,184.5C 95.3333,184.5 80.6667,184.5 66,184.5C 64.3333,185.5 63,186.833 62,188.5C 61.5003,196.493 61.3336,204.493 61.5,212.5C 71.8333,212.5 82.1667,212.5 92.5,212.5C 92.6727,219.04 93.3394,225.54 94.5,232C 94.453,234.889 94.1196,237.722 93.5,240.5C 132.185,241.178 170.852,241.845 209.5,242.5C 210.442,242.392 211.275,242.059 212,241.5C 212.18,231.923 212.68,222.423 213.5,213C 223.494,212.5 233.494,212.334 243.5,212.5C 243.666,204.826 243.5,197.159 243,189.5C 242.535,188.069 241.701,186.903 240.5,186C 231.833,185.667 223.167,185.333 214.5,185C 213.944,184.617 213.611,184.117 213.5,183.5C 223.833,183.5 234.167,183.5 244.5,183.5C 244.5,193.5 244.5,203.5 244.5,213.5C 234.251,213.181 224.084,213.514 214,214.5C 213.5,224.494 213.334,234.494 213.5,244.5C 173.5,244.5 133.5,244.5 93.5,244.5C 92.5084,244.672 91.8417,244.338 91.5,243.5C 91.5,233.5 91.5,223.5 91.5,213.5C 81.1667,213.5 70.8333,213.5 60.5,213.5C 60.5,203.833 60.5,194.167 60.5,184.5C 60.5,184.167 60.5,183.833 60.5,183.5 Z"/></g>
<g><path style="opacity:0.203" fill="#a8c3d7" d="M -0.5,242.5 C 9.5,242.5 19.5,242.5 29.5,242.5C 29.8333,242.5 30.1667,242.5 30.5,242.5C 30.8333,243.167 31.1667,243.833 31.5,244.5C 31.815,248.371 31.4816,252.038 30.5,255.5C 31.0803,251.351 30.4136,247.684 28.5,244.5C 18.9834,244.588 9.31675,244.588 -0.5,244.5C -0.5,243.833 -0.5,243.167 -0.5,242.5 Z"/></g>
<g><path style="opacity:1" fill="#eaf7fe" d="M 519.5,214.5 C 519.5,214.167 519.5,213.833 519.5,213.5C 529.5,213.5 539.5,213.5 549.5,213.5C 549.833,213.5 550.167,213.5 550.5,213.5C 550.5,213.833 550.5,214.167 550.5,214.5C 550.5,224.5 550.5,234.5 550.5,244.5C 499.5,244.5 448.5,244.5 397.5,244.5C 397.5,244.167 397.5,243.833 397.5,243.5C 448.167,243.5 498.833,243.5 549.5,243.5C 549.5,242.5 549.5,241.5 549.5,240.5C 549.5,231.833 549.5,223.167 549.5,214.5C 539.5,214.5 529.5,214.5 519.5,214.5 Z"/></g>
<g><path style="opacity:1" fill="#c7dbeb" d="M 276.5,214.5 C 316.5,214.5 356.5,214.5 396.5,214.5C 396.173,224.681 396.506,234.681 397.5,244.5C 448.5,244.5 499.5,244.5 550.5,244.5C 550.5,234.5 550.5,224.5 550.5,214.5C 552.533,215.898 553.533,217.898 553.5,220.5C 552.96,224.145 552.626,227.812 552.5,231.5C 552.256,235.104 552.922,238.437 554.5,241.5C 552.137,246.349 548.804,248.016 544.5,246.5C 495.646,245.174 446.646,245.174 397.5,246.5C 394.908,244.974 393.908,242.641 394.5,239.5C 395.833,234.167 395.833,228.833 394.5,223.5C 394.5,221.167 394.5,218.833 394.5,216.5C 359.261,215.645 321.261,215.645 280.5,216.5C 278.645,216.66 277.312,215.993 276.5,214.5 Z"/></g>
<g><path style="opacity:1" fill="#c4ddf2" d="M 394.5,239.5 C 393.908,242.641 394.908,244.974 397.5,246.5C 446.646,245.174 495.646,245.174 544.5,246.5C 501.499,246.333 458.499,246.5 415.5,247C 409.309,247.272 403.143,247.772 397,248.5C 393.733,248.509 392.233,246.842 392.5,243.5C 392.585,241.667 393.252,240.334 394.5,239.5 Z"/></g>
<g><path style="opacity:0.187" fill="#d2e4f5" d="M 28.5,244.5 C 30.4136,247.684 31.0803,251.351 30.5,255.5C 30.5,261.833 30.5,268.167 30.5,274.5C 29.8106,264.599 29.144,254.599 28.5,244.5 Z"/></g>
<g><path style="opacity:0.991" fill="#94bcdf" d="M 31.5,244.5 C 38.8333,244.5 46.1667,244.5 53.5,244.5C 51.7693,245.207 50.1026,246.207 48.5,247.5C 46.038,246.284 43.3713,245.618 40.5,245.5C 37.9105,245.527 35.4105,245.861 33,246.5C 32.5003,254.827 32.3336,263.16 32.5,271.5C 37.43,271.803 42.2633,271.469 47,270.5C 47.4828,271.448 47.6495,272.448 47.5,273.5C 51.4674,273.968 54.9674,272.968 58,270.5C 58.6667,265.5 58.6667,260.5 58,255.5C 57.5,255 57,254.5 56.5,254C 59.0858,250.839 59.0858,247.672 56.5,244.5C 57.8333,244.5 59.1667,244.5 60.5,244.5C 60.5,254.5 60.5,264.5 60.5,274.5C 50.5,274.5 40.5,274.5 30.5,274.5C 30.5,268.167 30.5,261.833 30.5,255.5C 31.4816,252.038 31.815,248.371 31.5,244.5 Z"/></g>
<g><path style="opacity:1" fill="#8fbee6" d="M 53.5,244.5 C 54.5,244.5 55.5,244.5 56.5,244.5C 59.0858,247.672 59.0858,250.839 56.5,254C 57,254.5 57.5,255 58,255.5C 58.6667,260.5 58.6667,265.5 58,270.5C 54.9674,272.968 51.4674,273.968 47.5,273.5C 47.6495,272.448 47.4828,271.448 47,270.5C 42.2633,271.469 37.43,271.803 32.5,271.5C 32.3336,263.16 32.5003,254.827 33,246.5C 35.4105,245.861 37.9105,245.527 40.5,245.5C 43.3713,245.618 46.038,246.284 48.5,247.5C 50.1026,246.207 51.7693,245.207 53.5,244.5 Z"/></g>
<g><path style="opacity:1" fill="#bddefb" d="M 579.5,214.5 C 580.338,214.842 580.672,215.508 580.5,216.5C 580.5,235.833 580.5,255.167 580.5,274.5C 579.167,274.5 577.833,274.5 576.5,274.5C 405.001,273.5 233.334,273.167 61.5,273.5C 61.1685,264.475 61.5018,255.475 62.5,246.5C 62.2082,254.738 62.5416,263.071 63.5,271.5C 82.495,270.505 101.328,270.171 120,270.5C 120.667,273.167 121.333,273.167 122,270.5C 122.667,273.167 123.333,273.167 124,270.5C 124.667,273.167 125.333,273.167 126,270.5C 127.154,272.957 128.488,272.957 130,270.5C 177.333,271.833 224.667,271.833 272,270.5C 272.667,273.167 273.333,273.167 274,270.5C 274.667,273.167 275.333,273.167 276,270.5C 276.667,273.167 277.333,273.167 278,270.5C 279.154,272.957 280.488,272.957 282,270.5C 300,271.833 318,271.833 336,270.5C 336.667,273.167 337.333,273.167 338,270.5C 338.667,273.167 339.333,273.167 340,270.5C 340.667,273.167 341.333,273.167 342,270.5C 343.154,272.957 344.488,272.957 346,270.5C 372,271.833 398,271.833 424,270.5C 424.667,273.167 425.333,273.167 426,270.5C 426.667,273.167 427.333,273.167 428,270.5C 428.667,273.167 429.333,273.167 430,270.5C 431.154,272.957 432.488,272.957 434,270.5C 470.667,271.833 507.333,271.833 544,270.5C 544.667,273.167 545.333,273.167 546,270.5C 546.667,273.167 547.333,273.167 548,270.5C 548.667,273.167 549.333,273.167 550,270.5C 551.154,272.957 552.488,272.957 554,270.5C 561.456,271.586 569.289,271.586 577.5,270.5C 579.341,251.901 580.008,233.234 579.5,214.5 Z"/></g>
<g><path style="opacity:1" fill="#b9dcf9" d="M 30.5,183.5 C 39.5,183.5 48.5,183.5 57.5,183.5C 55.1825,185.736 52.5158,186.069 49.5,184.5C 45.8079,185.944 41.9746,186.944 38,187.5C 36,186.167 34,186.167 32,187.5C 31.5391,205.813 31.3724,223.98 31.5,242C 39.5279,242.698 47.5279,242.532 55.5,241.5C 55.3505,240.448 55.5172,239.448 56,238.5C 58.0489,241.047 60.5489,243.047 63.5,244.5C 63.8333,245.5 64.1667,246.5 64.5,247.5C 63.5966,255.472 63.2633,263.472 63.5,271.5C 62.5416,263.071 62.2082,254.738 62.5,246.5C 61.5018,255.475 61.1685,264.475 61.5,273.5C 233.334,273.167 405.001,273.5 576.5,274.5C 405.5,274.5 234.5,274.5 63.5,274.5C 62.5041,274.414 61.6708,274.748 61,275.5C 60.5002,285.494 60.3335,295.494 60.5,305.5C 60.1667,305.5 59.8333,305.5 59.5,305.5C 59.5,295.5 59.5,285.5 59.5,275.5C 49.6522,275.827 39.9856,275.494 30.5,274.5C 40.5,274.5 50.5,274.5 60.5,274.5C 60.5,264.5 60.5,254.5 60.5,244.5C 59.1667,244.5 57.8333,244.5 56.5,244.5C 55.5,244.5 54.5,244.5 53.5,244.5C 46.1667,244.5 38.8333,244.5 31.5,244.5C 31.1667,243.833 30.8333,243.167 30.5,242.5C 30.5,222.833 30.5,203.167 30.5,183.5 Z"/></g>
<g><path style="opacity:1" fill="#a2c9ea" d="M 63.5,275.5 C 63.5,275.167 63.5,274.833 63.5,274.5C 234.5,274.5 405.5,274.5 576.5,274.5C 577.833,274.5 579.167,274.5 580.5,274.5C 580.5,274.833 580.5,275.167 580.5,275.5C 578.901,275.232 577.568,275.566 576.5,276.5C 405.57,275.501 234.57,275.168 63.5,275.5 Z"/></g>
<g><path style="opacity:0.12" fill="#d0e6f6" d="M 580.5,274.5 C 590.833,274.5 601.167,274.5 611.5,274.5C 611.5,274.833 611.5,275.167 611.5,275.5C 601.828,275.334 592.161,275.5 582.5,276C 582.552,285.782 582.219,295.615 581.5,305.5C 581.167,305.5 580.833,305.5 580.5,305.5C 580.5,295.5 580.5,285.5 580.5,275.5C 580.5,275.167 580.5,274.833 580.5,274.5 Z"/></g>
<g><path style="opacity:1" fill="#94bcdf" d="M 63.5,275.5 C 234.57,275.168 405.57,275.501 576.5,276.5C 577.338,276.842 577.672,277.508 577.5,278.5C 577.5,279.167 577.167,279.5 576.5,279.5C 576.047,278.542 575.381,277.708 574.5,277C 491.667,276.833 408.833,276.667 326,276.5C 237.746,276.855 151.079,276.855 66,276.5C 65.2828,277.044 64.7828,277.711 64.5,278.5C 64.5,279.167 64.1667,279.5 63.5,279.5C 63.5,278.167 63.5,276.833 63.5,275.5 Z"/></g>
<g><path style="opacity:1" fill="#90bde3" d="M 576.5,279.5 C 424.207,278.503 271.874,278.17 119.5,278.5C 101.167,278.5 82.8333,278.5 64.5,278.5C 64.7828,277.711 65.2828,277.044 66,276.5C 151.079,276.855 237.746,276.855 326,276.5C 408.833,276.667 491.667,276.833 574.5,277C 575.381,277.708 576.047,278.542 576.5,279.5 Z"/></g>
<g><path style="opacity:1" fill="#8fbee6" d="M 64.5,278.5 C 82.8333,278.5 101.167,278.5 119.5,278.5C 105.431,279.175 91.2646,279.841 77,280.5C 73.3333,280.167 69.6667,279.833 66,279.5C 64.6814,281.25 64.1814,283.25 64.5,285.5C 149.164,286.833 234.164,287.5 319.5,287.5C 404.667,287.5 489.667,287.167 574.5,286.5C 575.583,286.461 576.583,286.127 577.5,285.5C 578.474,283.257 578.808,280.924 578.5,278.5C 579.493,287.318 579.827,296.318 579.5,305.5C 407.167,305.5 234.833,305.5 62.5,305.5C 62.1736,296.651 62.507,287.984 63.5,279.5C 64.1667,279.5 64.5,279.167 64.5,278.5 Z"/></g>
<g><path style="opacity:1" fill="#91bee7" d="M 64.5,285.5 C 234.667,285.167 404.667,285.5 574.5,286.5C 489.667,287.167 404.667,287.5 319.5,287.5C 234.164,287.5 149.164,286.833 64.5,285.5 Z"/></g>
<g><path style="opacity:1" fill="#8ebee8" d="M 119.5,278.5 C 271.874,278.17 424.207,278.503 576.5,279.5C 577.167,279.5 577.5,279.167 577.5,278.5C 577.833,278.5 578.167,278.5 578.5,278.5C 578.808,280.924 578.474,283.257 577.5,285.5C 576.583,286.127 575.583,286.461 574.5,286.5C 404.667,285.5 234.667,285.167 64.5,285.5C 64.1814,283.25 64.6814,281.25 66,279.5C 69.6667,279.833 73.3333,280.167 77,280.5C 91.2646,279.841 105.431,279.175 119.5,278.5 Z"/></g>
<g><path style="opacity:0.479" fill="#a5c4da" d="M 63.5,274.5 C 63.5,274.833 63.5,275.167 63.5,275.5C 63.5,276.833 63.5,278.167 63.5,279.5C 62.507,287.984 62.1736,296.651 62.5,305.5C 61.8333,305.5 61.1667,305.5 60.5,305.5C 60.3335,295.494 60.5002,285.494 61,275.5C 61.6708,274.748 62.5041,274.414 63.5,274.5 Z"/></g>
<g><path style="opacity:0.721" fill="#9fbdd6" d="M 576.5,276.5 C 577.568,275.566 578.901,275.232 580.5,275.5C 580.5,285.5 580.5,295.5 580.5,305.5C 580.167,305.5 579.833,305.5 579.5,305.5C 579.827,296.318 579.493,287.318 578.5,278.5C 578.167,278.5 577.833,278.5 577.5,278.5C 577.672,277.508 577.338,276.842 576.5,276.5 Z"/></g>
</svg>
