<?xml version="1.0" encoding="UTF-8"?>
<!DOCTYPE svg PUBLIC "-//W3C//DTD SVG 1.1//EN" "http://www.w3.org/Graphics/SVG/1.1/DTD/svg11.dtd">
<svg xmlns="http://www.w3.org/2000/svg" version="1.1" width="500px" height="500px" style="shape-rendering:geometricPrecision; text-rendering:geometricPrecision; image-rendering:optimizeQuality; fill-rule:evenodd; clip-rule:evenodd" xmlns:xlink="http://www.w3.org/1999/xlink">
<g><path style="opacity:0.702" fill="#9db6cf" d="M 285.5,217.5 C 279.833,217.5 274.167,217.5 268.5,217.5C 268.5,220.167 268.5,222.833 268.5,225.5C 265.833,225.5 263.167,225.5 260.5,225.5C 260.167,220.167 259.833,214.833 259.5,209.5C 256.5,209.5 253.5,209.5 250.5,209.5C 250.5,206.833 250.5,204.167 250.5,201.5C 248.167,201.5 245.833,201.5 243.5,201.5C 237.729,200.887 232.396,201.554 227.5,203.5C 227.5,205.5 227.5,207.5 227.5,209.5C 224.5,209.5 221.5,209.5 218.5,209.5C 218.5,212.167 218.5,214.833 218.5,217.5C 212.833,217.5 207.167,217.5 201.5,217.5C 201.664,220.187 201.497,222.854 201,225.5C 199.211,227.229 197.044,227.896 194.5,227.5C 194.799,229.604 194.466,231.604 193.5,233.5C 190.579,234.407 187.579,234.74 184.5,234.5C 186.607,233.532 188.941,233.198 191.5,233.5C 190.167,226.167 193.167,223.167 200.5,224.5C 200.5,221.833 200.5,219.167 200.5,216.5C 206.167,216.5 211.833,216.5 217.5,216.5C 217.5,213.833 217.5,211.167 217.5,208.5C 220.127,207.908 222.794,207.575 225.5,207.5C 225.232,204.881 225.565,202.381 226.5,200C 234.833,199.333 243.167,199.333 251.5,200C 252.435,202.381 252.768,204.881 252.5,207.5C 259.817,206.309 262.817,209.309 261.5,216.5C 269.684,216.174 277.684,216.508 285.5,217.5 Z"/></g>
<g><path style="opacity:1" fill="#e9e6d0" d="M 243.5,201.5 C 243.646,205.519 243.979,209.519 244.5,213.5C 247.821,213.536 250.988,212.869 254,211.5C 256.214,211.911 257.547,213.245 258,215.5C 258.89,218.706 258.557,221.706 257,224.5C 255.795,223.929 254.628,223.262 253.5,222.5C 254.167,221.833 254.833,221.167 255.5,220.5C 252.041,217.769 248.041,216.769 243.5,217.5C 243.5,220.167 243.5,222.833 243.5,225.5C 246.167,225.5 248.833,225.5 251.5,225.5C 251.335,229.182 251.501,232.848 252,236.5C 255.411,237.293 258.911,237.793 262.5,238C 261.366,239.016 261.699,239.683 263.5,240C 259.179,240.499 254.846,240.666 250.5,240.5C 249.969,237.221 247.969,235.887 244.5,236.5C 244.657,235.127 244.49,233.793 244,232.5C 243.333,231.167 242.667,231.167 242,232.5C 242.201,235.777 242.368,239.111 242.5,242.5C 240.859,244.203 239.859,246.37 239.5,249C 237.765,249.651 236.098,249.485 234.5,248.5C 233.081,249.005 232.415,250.005 232.5,251.5C 231.527,253.948 231.194,256.615 231.5,259.5C 230.178,259.33 229.011,259.663 228,260.5C 226.556,257.945 225.389,255.279 224.5,252.5C 222.739,253.035 221.406,254.035 220.5,255.5C 219.226,251.926 219.393,248.259 221,244.5C 223.147,245.476 225.314,245.309 227.5,244C 230.1,239.081 229.433,235.081 225.5,232C 222.854,231.503 220.187,231.336 217.5,231.5C 217.66,229.801 217.494,228.134 217,226.5C 216.667,226.833 216.333,227.167 216,227.5C 214.409,225.073 213.575,222.407 213.5,219.5C 215.262,219.643 216.929,219.309 218.5,218.5C 219.48,215.914 219.813,213.247 219.5,210.5C 222.176,211.008 224.843,211.175 227.5,211C 228.814,208.395 228.814,205.895 227.5,203.5C 232.396,201.554 237.729,200.887 243.5,201.5 Z"/></g>
<g><path style="opacity:1" fill="#e5e6d3" d="M 227.5,203.5 C 228.814,205.895 228.814,208.395 227.5,211C 224.843,211.175 222.176,211.008 219.5,210.5C 219.813,213.247 219.48,215.914 218.5,218.5C 216.929,219.309 215.262,219.643 213.5,219.5C 213.575,222.407 214.409,225.073 216,227.5C 216.333,227.167 216.667,226.833 217,226.5C 217.494,228.134 217.66,229.801 217.5,231.5C 220.187,231.336 222.854,231.503 225.5,232C 229.433,235.081 230.1,239.081 227.5,244C 225.314,245.309 223.147,245.476 221,244.5C 219.393,248.259 219.226,251.926 220.5,255.5C 221.491,257.123 220.824,258.123 218.5,258.5C 218.5,253.167 218.5,247.833 218.5,242.5C 221.167,242.5 223.833,242.5 226.5,242.5C 226.664,239.813 226.497,237.146 226,234.5C 223.281,233.556 220.448,233.223 217.5,233.5C 217.5,236.5 217.5,239.5 217.5,242.5C 214.833,242.5 212.167,242.5 209.5,242.5C 209.5,245.167 209.5,247.833 209.5,250.5C 203.833,250.5 198.167,250.5 192.5,250.5C 192.5,256.167 192.5,261.833 192.5,267.5C 192.666,275.84 192.5,284.173 192,292.5C 186.928,293.471 181.762,293.805 176.5,293.5C 176.795,295.735 176.461,297.735 175.5,299.5C 175.5,297.167 175.5,294.833 175.5,292.5C 180.5,292.5 185.5,292.5 190.5,292.5C 191.786,282.165 191.786,271.831 190.5,261.5C 188.533,261.739 186.699,261.406 185,260.5C 184.819,257.305 184.319,254.305 183.5,251.5C 184.452,245.925 184.786,240.259 184.5,234.5C 187.579,234.74 190.579,234.407 193.5,233.5C 194.466,231.604 194.799,229.604 194.5,227.5C 197.044,227.896 199.211,227.229 201,225.5C 201.497,222.854 201.664,220.187 201.5,217.5C 207.167,217.5 212.833,217.5 218.5,217.5C 218.5,214.833 218.5,212.167 218.5,209.5C 221.5,209.5 224.5,209.5 227.5,209.5C 227.5,207.5 227.5,205.5 227.5,203.5 Z"/></g>
<g><path style="opacity:1" fill="#e9e6d1" d="M 297.5,235.5 C 300.5,235.167 301.833,236.5 301.5,239.5C 303.467,239.261 305.301,239.594 307,240.5C 308.827,244.281 309.827,248.281 310,252.5C 312.147,253.113 314.314,253.779 316.5,254.5C 315.653,255.845 314.487,256.845 313,257.5C 308.189,257.218 303.022,257.051 297.5,257C 297.218,254.089 297.218,251.256 297.5,248.5C 296.675,247.614 295.675,247.281 294.5,247.5C 294.657,246.127 294.49,244.793 294,243.5C 293.654,245.848 292.487,247.681 290.5,249C 288.3,248.416 286.133,248.582 284,249.5C 283.501,255.157 283.334,260.824 283.5,266.5C 282.527,264.052 282.194,261.385 282.5,258.5C 280.5,258.833 278.5,259.167 276.5,259.5C 276.5,256.5 276.5,253.5 276.5,250.5C 273.833,250.5 271.167,250.5 268.5,250.5C 269.756,244.126 269.756,237.959 268.5,232C 269.941,227.993 270.774,223.826 271,219.5C 275.084,220.042 279.251,220.042 283.5,219.5C 282.539,222.328 282.705,224.995 284,227.5C 285.458,228.747 286.958,228.747 288.5,227.5C 289.119,230.032 290.119,232.365 291.5,234.5C 291.167,234.833 290.833,235.167 290.5,235.5C 286.693,233.714 282.693,232.548 278.5,232C 277.88,229.527 277.214,227.027 276.5,224.5C 275.585,225.328 274.919,226.328 274.5,227.5C 275.747,229.042 275.747,230.542 274.5,232C 276.301,232.317 276.634,232.984 275.5,234C 278.35,235.171 281.184,236.338 284,237.5C 285.563,234.956 287.063,234.956 288.5,237.5C 290.482,236.03 292.148,236.364 293.5,238.5C 295.261,237.965 296.594,236.965 297.5,235.5 Z"/></g>
<g><path style="opacity:1" fill="#dce2d1" d="M 243.5,201.5 C 245.833,201.5 248.167,201.5 250.5,201.5C 250.5,204.167 250.5,206.833 250.5,209.5C 253.5,209.5 256.5,209.5 259.5,209.5C 259.833,214.833 260.167,220.167 260.5,225.5C 263.167,225.5 265.833,225.5 268.5,225.5C 268.5,222.833 268.5,220.167 268.5,217.5C 274.167,217.5 279.833,217.5 285.5,217.5C 285.5,220.5 285.5,223.5 285.5,226.5C 288.167,226.5 290.833,226.5 293.5,226.5C 293.194,229.385 293.527,232.052 294.5,234.5C 295.209,235.404 296.209,235.737 297.5,235.5C 296.594,236.965 295.261,237.965 293.5,238.5C 292.148,236.364 290.482,236.03 288.5,237.5C 287.063,234.956 285.563,234.956 284,237.5C 281.184,236.338 278.35,235.171 275.5,234C 276.634,232.984 276.301,232.317 274.5,232C 275.747,230.542 275.747,229.042 274.5,227.5C 274.919,226.328 275.585,225.328 276.5,224.5C 277.214,227.027 277.88,229.527 278.5,232C 282.693,232.548 286.693,233.714 290.5,235.5C 290.833,235.167 291.167,234.833 291.5,234.5C 290.119,232.365 289.119,230.032 288.5,227.5C 286.958,228.747 285.458,228.747 284,227.5C 282.705,224.995 282.539,222.328 283.5,219.5C 279.251,220.042 275.084,220.042 271,219.5C 270.774,223.826 269.941,227.993 268.5,232C 269.756,237.959 269.756,244.126 268.5,250.5C 271.167,250.5 273.833,250.5 276.5,250.5C 276.5,253.5 276.5,256.5 276.5,259.5C 273.984,261.323 270.984,262.323 267.5,262.5C 266.228,259.257 265.561,256.09 265.5,253C 258.782,253.199 252.115,253.032 245.5,252.5C 246.892,255.025 246.558,257.192 244.5,259C 241.183,259.498 237.85,259.665 234.5,259.5C 234.5,256.5 234.5,253.5 234.5,250.5C 237.167,250.5 239.833,250.5 242.5,250.5C 242.5,247.833 242.5,245.167 242.5,242.5C 242.368,239.111 242.201,235.777 242,232.5C 242.667,231.167 243.333,231.167 244,232.5C 244.49,233.793 244.657,235.127 244.5,236.5C 247.969,235.887 249.969,237.221 250.5,240.5C 254.846,240.666 259.179,240.499 263.5,240C 261.699,239.683 261.366,239.016 262.5,238C 258.911,237.793 255.411,237.293 252,236.5C 251.501,232.848 251.335,229.182 251.5,225.5C 248.833,225.5 246.167,225.5 243.5,225.5C 243.5,222.833 243.5,220.167 243.5,217.5C 248.041,216.769 252.041,217.769 255.5,220.5C 254.833,221.167 254.167,221.833 253.5,222.5C 254.628,223.262 255.795,223.929 257,224.5C 258.557,221.706 258.89,218.706 258,215.5C 257.547,213.245 256.214,211.911 254,211.5C 250.988,212.869 247.821,213.536 244.5,213.5C 243.979,209.519 243.646,205.519 243.5,201.5 Z"/></g>
<g><path style="opacity:1" fill="#8dbecf" d="M 285.5,217.5 C 286.468,219.607 286.802,221.941 286.5,224.5C 289.119,224.232 291.619,224.565 294,225.5C 294.497,228.146 294.664,230.813 294.5,233.5C 296.792,233.756 298.959,233.423 301,232.5C 300.035,225.119 303.202,222.453 310.5,224.5C 318.505,222.505 321.505,225.505 319.5,233.5C 322.187,233.336 324.854,233.503 327.5,234C 328.435,236.381 328.768,238.881 328.5,241.5C 330.5,241.5 332.5,241.5 334.5,241.5C 334.232,238.881 334.565,236.381 335.5,234C 344.086,231.093 347.253,233.927 345,242.5C 342.281,243.444 339.448,243.777 336.5,243.5C 336.5,246.167 336.5,248.833 336.5,251.5C 330.833,251.5 325.167,251.5 319.5,251.5C 319.5,253.833 319.5,256.167 319.5,258.5C 327.86,258.169 336.193,258.502 344.5,259.5C 345.78,261.702 345.78,263.868 344.5,266C 345.68,267.317 347.18,267.484 349,266.5C 350.711,266.439 352.044,267.106 353,268.5C 353.497,270.81 353.663,273.143 353.5,275.5C 356.167,275.5 358.833,275.5 361.5,275.5C 361.5,284.5 361.5,293.5 361.5,302.5C 358.833,302.5 356.167,302.5 353.5,302.5C 353.802,305.059 353.468,307.393 352.5,309.5C 352.5,306.833 352.5,304.167 352.5,301.5C 355.167,301.5 357.833,301.5 360.5,301.5C 360.5,293.167 360.5,284.833 360.5,276.5C 352.167,276.5 343.833,276.5 335.5,276.5C 335.5,273.5 335.5,270.5 335.5,267.5C 330.167,267.5 324.833,267.5 319.5,267.5C 319.806,264.615 319.473,261.948 318.5,259.5C 318.5,256.833 318.5,254.167 318.5,251.5C 315.833,251.5 313.167,251.5 310.5,251.5C 310.5,248.5 310.5,245.5 310.5,242.5C 313.167,242.5 315.833,242.5 318.5,242.5C 318.5,239.833 318.5,237.167 318.5,234.5C 310.5,234.5 302.5,234.5 294.5,234.5C 293.527,232.052 293.194,229.385 293.5,226.5C 290.833,226.5 288.167,226.5 285.5,226.5C 285.5,223.5 285.5,220.5 285.5,217.5 Z"/></g>
<g><path style="opacity:0.473" fill="#7b9cb9" d="M 184.5,234.5 C 184.786,240.259 184.452,245.925 183.5,251.5C 175.5,251.5 167.5,251.5 159.5,251.5C 159.5,254.167 159.5,256.833 159.5,259.5C 156.5,259.5 153.5,259.5 150.5,259.5C 152.607,258.532 154.941,258.198 157.5,258.5C 157.02,255.315 157.686,252.481 159.5,250C 167.493,249.5 175.493,249.334 183.5,249.5C 183.179,244.305 183.513,239.305 184.5,234.5 Z"/></g>
<g><path style="opacity:1" fill="#dfe5d5" d="M 294.5,234.5 C 302.5,234.5 310.5,234.5 318.5,234.5C 318.5,237.167 318.5,239.833 318.5,242.5C 315.833,242.5 313.167,242.5 310.5,242.5C 310.5,245.5 310.5,248.5 310.5,251.5C 313.167,251.5 315.833,251.5 318.5,251.5C 318.5,254.167 318.5,256.833 318.5,259.5C 318.5,262.5 318.5,265.5 318.5,268.5C 321.5,268.5 324.5,268.5 327.5,268.5C 327.5,273.833 327.5,279.167 327.5,284.5C 324.833,284.5 322.167,284.5 319.5,284.5C 316.5,284.5 313.5,284.5 310.5,284.5C 310.5,278.833 310.5,273.167 310.5,267.5C 310.5,264.833 310.5,262.167 310.5,259.5C 305.125,259.828 299.792,259.495 294.5,258.5C 293.626,256.253 293.292,253.92 293.5,251.5C 290.833,251.5 288.167,251.5 285.5,251.5C 285.5,256.833 285.5,262.167 285.5,267.5C 284.508,267.672 283.842,267.338 283.5,266.5C 283.334,260.824 283.501,255.157 284,249.5C 286.133,248.582 288.3,248.416 290.5,249C 292.487,247.681 293.654,245.848 294,243.5C 294.49,244.793 294.657,246.127 294.5,247.5C 295.675,247.281 296.675,247.614 297.5,248.5C 297.218,251.256 297.218,254.089 297.5,257C 303.022,257.051 308.189,257.218 313,257.5C 314.487,256.845 315.653,255.845 316.5,254.5C 314.314,253.779 312.147,253.113 310,252.5C 309.827,248.281 308.827,244.281 307,240.5C 305.301,239.594 303.467,239.261 301.5,239.5C 301.833,236.5 300.5,235.167 297.5,235.5C 296.209,235.737 295.209,235.404 294.5,234.5 Z"/></g>
<g><path style="opacity:1" fill="#e9e6d1" d="M 183.5,251.5 C 184.319,254.305 184.819,257.305 185,260.5C 186.699,261.406 188.533,261.739 190.5,261.5C 191.786,271.831 191.786,282.165 190.5,292.5C 185.5,292.5 180.5,292.5 175.5,292.5C 175.5,294.833 175.5,297.167 175.5,299.5C 173.365,301.369 170.698,302.036 167.5,301.5C 167.5,298.833 167.5,296.167 167.5,293.5C 162.103,293.785 156.77,293.451 151.5,292.5C 150.505,287.208 150.172,281.875 150.5,276.5C 150.5,271.167 150.5,265.833 150.5,260.5C 150.5,260.167 150.5,259.833 150.5,259.5C 153.5,259.5 156.5,259.5 159.5,259.5C 159.5,256.833 159.5,254.167 159.5,251.5C 167.5,251.5 175.5,251.5 183.5,251.5 Z"/></g>
<g><path style="opacity:1" fill="#e7e6d2" d="M 242.5,242.5 C 242.5,245.167 242.5,247.833 242.5,250.5C 239.833,250.5 237.167,250.5 234.5,250.5C 234.5,253.5 234.5,256.5 234.5,259.5C 237.85,259.665 241.183,259.498 244.5,259C 246.558,257.192 246.892,255.025 245.5,252.5C 252.115,253.032 258.782,253.199 265.5,253C 265.561,256.09 266.228,259.257 267.5,262.5C 267.5,273.833 267.5,285.167 267.5,296.5C 262.367,296.321 257.7,296.654 253.5,297.5C 253.088,288.067 252.588,278.4 252,268.5C 249.281,267.556 246.448,267.223 243.5,267.5C 243.5,270.5 243.5,273.5 243.5,276.5C 240.833,276.5 238.167,276.5 235.5,276.5C 235.5,279.167 235.5,281.833 235.5,284.5C 229.5,284.5 223.5,284.5 217.5,284.5C 217.5,287.167 217.5,289.833 217.5,292.5C 214.833,292.5 212.167,292.5 209.5,292.5C 209.768,289.881 209.435,287.381 208.5,285C 205.854,284.503 203.187,284.336 200.5,284.5C 200.26,278.773 200.593,273.106 201.5,267.5C 204.167,267.5 206.833,267.5 209.5,267.5C 209.5,264.833 209.5,262.167 209.5,259.5C 210.833,259.5 212.167,259.5 213.5,259.5C 212.673,262.132 211.84,264.798 211,267.5C 209.989,268.337 208.822,268.67 207.5,268.5C 207.688,270.103 207.188,271.437 206,272.5C 205.333,275.5 205.333,278.5 206,281.5C 208.088,282.308 210.088,283.308 212,284.5C 211.86,286.851 211.36,289.184 210.5,291.5C 212.5,291.5 214.5,291.5 216.5,291.5C 215.534,287.935 215.534,284.435 216.5,281C 215.939,279.324 214.939,277.991 213.5,277C 214.416,276.626 215.25,276.126 216,275.5C 216.333,272.833 216.667,270.167 217,267.5C 218.969,271.196 219.969,275.196 220,279.5C 220.953,281.592 222.286,281.925 224,280.5C 229.746,283.538 232.912,281.705 233.5,275C 232.833,274.667 232.167,274.333 231.5,274C 233.9,273.814 236.234,273.314 238.5,272.5C 237.675,271.614 236.675,271.281 235.5,271.5C 235.281,270.325 235.614,269.325 236.5,268.5C 238.889,268.021 240.556,266.688 241.5,264.5C 238.442,262.859 235.108,262.026 231.5,262C 232.578,261.326 233.245,260.326 233.5,259C 232.841,256.538 232.507,254.038 232.5,251.5C 232.415,250.005 233.081,249.005 234.5,248.5C 236.098,249.485 237.765,249.651 239.5,249C 239.859,246.37 240.859,244.203 242.5,242.5 Z"/></g>
<g><path style="opacity:1" fill="#e9e6d0" d="M 232.5,251.5 C 232.507,254.038 232.841,256.538 233.5,259C 233.245,260.326 232.578,261.326 231.5,262C 235.108,262.026 238.442,262.859 241.5,264.5C 240.556,266.688 238.889,268.021 236.5,268.5C 235.614,269.325 235.281,270.325 235.5,271.5C 236.675,271.281 237.675,271.614 238.5,272.5C 236.234,273.314 233.9,273.814 231.5,274C 232.167,274.333 232.833,274.667 233.5,275C 232.912,281.705 229.746,283.538 224,280.5C 222.286,281.925 220.953,281.592 220,279.5C 219.969,275.196 218.969,271.196 217,267.5C 216.667,270.167 216.333,272.833 216,275.5C 215.25,276.126 214.416,276.626 213.5,277C 214.939,277.991 215.939,279.324 216.5,281C 215.534,284.435 215.534,287.935 216.5,291.5C 214.5,291.5 212.5,291.5 210.5,291.5C 211.36,289.184 211.86,286.851 212,284.5C 210.088,283.308 208.088,282.308 206,281.5C 205.333,278.5 205.333,275.5 206,272.5C 207.188,271.437 207.688,270.103 207.5,268.5C 208.822,268.67 209.989,268.337 211,267.5C 211.84,264.798 212.673,262.132 213.5,259.5C 215.415,259.784 217.081,259.451 218.5,258.5C 220.824,258.123 221.491,257.123 220.5,255.5C 221.406,254.035 222.739,253.035 224.5,252.5C 225.389,255.279 226.556,257.945 228,260.5C 229.011,259.663 230.178,259.33 231.5,259.5C 231.194,256.615 231.527,253.948 232.5,251.5 Z"/></g>
<g><path style="opacity:1" fill="#a7cdc8" d="M 218.5,258.5 C 217.081,259.451 215.415,259.784 213.5,259.5C 212.167,259.5 210.833,259.5 209.5,259.5C 209.5,262.167 209.5,264.833 209.5,267.5C 206.833,267.5 204.167,267.5 201.5,267.5C 198.5,267.5 195.5,267.5 192.5,267.5C 192.5,261.833 192.5,256.167 192.5,250.5C 198.167,250.5 203.833,250.5 209.5,250.5C 209.5,247.833 209.5,245.167 209.5,242.5C 212.167,242.5 214.833,242.5 217.5,242.5C 217.5,239.5 217.5,236.5 217.5,233.5C 220.448,233.223 223.281,233.556 226,234.5C 226.497,237.146 226.664,239.813 226.5,242.5C 223.833,242.5 221.167,242.5 218.5,242.5C 218.5,247.833 218.5,253.167 218.5,258.5 Z"/></g>
<g><path style="opacity:1" fill="#e8e6d1" d="M 283.5,266.5 C 283.842,267.338 284.508,267.672 285.5,267.5C 287.92,267.292 290.253,267.626 292.5,268.5C 293.498,276.472 293.831,284.472 293.5,292.5C 293.5,292.833 293.5,293.167 293.5,293.5C 290.5,293.5 287.5,293.5 284.5,293.5C 284.5,295.833 284.5,298.167 284.5,300.5C 277.16,300.371 269.827,300.038 262.5,299.5C 259.087,299.483 256.087,298.816 253.5,297.5C 257.7,296.654 262.367,296.321 267.5,296.5C 267.5,285.167 267.5,273.833 267.5,262.5C 270.984,262.323 273.984,261.323 276.5,259.5C 278.5,259.167 280.5,258.833 282.5,258.5C 282.194,261.385 282.527,264.052 283.5,266.5 Z"/></g>
<g><path style="opacity:1" fill="#bfd5ce" d="M 310.5,267.5 C 307.552,267.223 304.719,267.556 302,268.5C 301.5,276.493 301.334,284.493 301.5,292.5C 298.833,292.5 296.167,292.5 293.5,292.5C 293.831,284.472 293.498,276.472 292.5,268.5C 290.253,267.626 287.92,267.292 285.5,267.5C 285.5,262.167 285.5,256.833 285.5,251.5C 288.167,251.5 290.833,251.5 293.5,251.5C 293.292,253.92 293.626,256.253 294.5,258.5C 299.792,259.495 305.125,259.828 310.5,259.5C 310.5,262.167 310.5,264.833 310.5,267.5 Z"/></g>
<g><path style="opacity:1" fill="#8cc5c6" d="M 310.5,267.5 C 310.5,273.167 310.5,278.833 310.5,284.5C 313.5,284.5 316.5,284.5 319.5,284.5C 319.5,287.167 319.5,289.833 319.5,292.5C 327.752,292.816 335.919,292.482 344,291.5C 344.499,297.491 344.666,303.491 344.5,309.5C 338.824,309.334 333.157,309.501 327.5,310C 325.75,311.754 325.083,313.921 325.5,316.5C 321.439,316.013 318.439,317.513 316.5,321C 317.811,323.075 317.145,324.409 314.5,325C 301.839,325.706 289.172,326.206 276.5,326.5C 276.5,323.833 276.5,321.167 276.5,318.5C 265.5,318.5 254.5,318.5 243.5,318.5C 244.055,314.988 243.388,311.988 241.5,309.5C 240.426,307.716 238.76,306.549 236.5,306C 232.438,305.977 228.438,306.31 224.5,307C 223.663,305.989 223.33,304.822 223.5,303.5C 219.007,303.024 214.673,302.358 210.5,301.5C 218.5,301.5 226.5,301.5 234.5,301.5C 234.5,298.5 234.5,295.5 234.5,292.5C 237.5,292.5 240.5,292.5 243.5,292.5C 243.5,295.5 243.5,298.5 243.5,301.5C 246.167,301.5 248.833,301.5 251.5,301.5C 251.5,304.167 251.5,306.833 251.5,309.5C 262.833,309.5 274.167,309.5 285.5,309.5C 285.5,306.833 285.5,304.167 285.5,301.5C 288.167,301.5 290.833,301.5 293.5,301.5C 293.5,298.833 293.5,296.167 293.5,293.5C 293.5,293.167 293.5,292.833 293.5,292.5C 296.167,292.5 298.833,292.5 301.5,292.5C 301.334,284.493 301.5,276.493 302,268.5C 304.719,267.556 307.552,267.223 310.5,267.5 Z"/></g>
<g><path style="opacity:1" fill="#c2d6cf" d="M 253.5,297.5 C 256.087,298.816 259.087,299.483 262.5,299.5C 269.827,300.038 277.16,300.371 284.5,300.5C 284.5,298.167 284.5,295.833 284.5,293.5C 287.5,293.5 290.5,293.5 293.5,293.5C 293.5,296.167 293.5,298.833 293.5,301.5C 290.833,301.5 288.167,301.5 285.5,301.5C 285.5,304.167 285.5,306.833 285.5,309.5C 274.167,309.5 262.833,309.5 251.5,309.5C 251.5,306.833 251.5,304.167 251.5,301.5C 248.833,301.5 246.167,301.5 243.5,301.5C 243.5,298.5 243.5,295.5 243.5,292.5C 240.5,292.5 237.5,292.5 234.5,292.5C 234.5,295.5 234.5,298.5 234.5,301.5C 226.5,301.5 218.5,301.5 210.5,301.5C 210.167,301.5 209.833,301.5 209.5,301.5C 209.5,298.5 209.5,295.5 209.5,292.5C 212.167,292.5 214.833,292.5 217.5,292.5C 217.5,289.833 217.5,287.167 217.5,284.5C 223.5,284.5 229.5,284.5 235.5,284.5C 235.5,281.833 235.5,279.167 235.5,276.5C 238.167,276.5 240.833,276.5 243.5,276.5C 243.5,273.5 243.5,270.5 243.5,267.5C 246.448,267.223 249.281,267.556 252,268.5C 252.588,278.4 253.088,288.067 253.5,297.5 Z"/></g>
<g><path style="opacity:1" fill="#bdd5d2" d="M 318.5,259.5 C 319.473,261.948 319.806,264.615 319.5,267.5C 324.833,267.5 330.167,267.5 335.5,267.5C 335.5,270.5 335.5,273.5 335.5,276.5C 343.833,276.5 352.167,276.5 360.5,276.5C 360.5,284.833 360.5,293.167 360.5,301.5C 357.833,301.5 355.167,301.5 352.5,301.5C 352.5,304.167 352.5,306.833 352.5,309.5C 349.833,309.5 347.167,309.5 344.5,309.5C 344.666,303.491 344.499,297.491 344,291.5C 335.919,292.482 327.752,292.816 319.5,292.5C 319.5,289.833 319.5,287.167 319.5,284.5C 322.167,284.5 324.833,284.5 327.5,284.5C 327.5,279.167 327.5,273.833 327.5,268.5C 324.5,268.5 321.5,268.5 318.5,268.5C 318.5,265.5 318.5,262.5 318.5,259.5 Z"/></g>
<g><path style="opacity:1" fill="#8fcacd" d="M 141.5,277.5 C 142.487,282.305 142.821,287.305 142.5,292.5C 134.167,292.5 125.833,292.5 117.5,292.5C 117.5,290.167 117.5,287.833 117.5,285.5C 123.537,285.829 129.537,285.496 135.5,284.5C 134.626,282.253 134.292,279.92 134.5,277.5C 137.005,278.417 139.338,278.417 141.5,277.5 Z"/></g>
<g><path style="opacity:0.454" fill="#669ebe" d="M 150.5,260.5 C 150.5,265.833 150.5,271.167 150.5,276.5C 147.287,276.19 144.287,276.523 141.5,277.5C 139.338,278.417 137.005,278.417 134.5,277.5C 134.292,279.92 134.626,282.253 135.5,284.5C 129.537,285.496 123.537,285.829 117.5,285.5C 117.5,287.833 117.5,290.167 117.5,292.5C 125.833,292.5 134.167,292.5 142.5,292.5C 142.5,292.833 142.5,293.167 142.5,293.5C 142.5,296.167 142.5,298.833 142.5,301.5C 141.532,299.393 141.198,297.059 141.5,294.5C 133.493,294.666 125.493,294.5 117.5,294C 114.923,290.738 114.923,287.405 117.5,284C 122.489,283.501 127.489,283.334 132.5,283.5C 132.575,280.794 132.908,278.127 133.5,275.5C 138.833,275.5 144.167,275.5 149.5,275.5C 149.179,270.305 149.513,265.305 150.5,260.5 Z"/></g>
<g><path style="opacity:1" fill="#bcd6d0" d="M 141.5,277.5 C 144.287,276.523 147.287,276.19 150.5,276.5C 150.172,281.875 150.505,287.208 151.5,292.5C 156.77,293.451 162.103,293.785 167.5,293.5C 167.5,296.167 167.5,298.833 167.5,301.5C 161.833,301.5 156.167,301.5 150.5,301.5C 150.5,298.833 150.5,296.167 150.5,293.5C 147.833,293.5 145.167,293.5 142.5,293.5C 142.5,293.167 142.5,292.833 142.5,292.5C 142.821,287.305 142.487,282.305 141.5,277.5 Z"/></g>
<g><path style="opacity:1" fill="#8ec9ca" d="M 209.5,301.5 C 209.833,301.5 210.167,301.5 210.5,301.5C 214.673,302.358 219.007,303.024 223.5,303.5C 223.33,304.822 223.663,305.989 224.5,307C 228.438,306.31 232.438,305.977 236.5,306C 238.76,306.549 240.426,307.716 241.5,309.5C 239.167,309.5 236.833,309.5 234.5,309.5C 234.5,312.5 234.5,315.5 234.5,318.5C 223.5,318.5 212.5,318.5 201.5,318.5C 201.777,315.552 201.444,312.719 200.5,310C 192.507,309.5 184.507,309.334 176.5,309.5C 176.34,307.801 176.506,306.134 177,304.5C 177.333,304.833 177.667,305.167 178,305.5C 178.5,304.333 179.333,303.5 180.5,303C 184.821,302.501 189.154,302.334 193.5,302.5C 194.876,297.632 195.71,292.632 196,287.5C 196.689,286.643 197.522,285.977 198.5,285.5C 199.76,287.353 199.76,289.186 198.5,291C 200.053,292.097 201.386,293.43 202.5,295C 203.899,295.595 205.232,295.428 206.5,294.5C 206.938,297.295 207.938,299.628 209.5,301.5 Z"/></g>
<g><path style="opacity:1" fill="#b1d1cc" d="M 192.5,267.5 C 195.5,267.5 198.5,267.5 201.5,267.5C 200.593,273.106 200.26,278.773 200.5,284.5C 203.187,284.336 205.854,284.503 208.5,285C 209.435,287.381 209.768,289.881 209.5,292.5C 209.5,295.5 209.5,298.5 209.5,301.5C 207.938,299.628 206.938,297.295 206.5,294.5C 205.232,295.428 203.899,295.595 202.5,295C 201.386,293.43 200.053,292.097 198.5,291C 199.76,289.186 199.76,287.353 198.5,285.5C 197.522,285.977 196.689,286.643 196,287.5C 195.71,292.632 194.876,297.632 193.5,302.5C 189.154,302.334 184.821,302.501 180.5,303C 179.333,303.5 178.5,304.333 178,305.5C 177.667,305.167 177.333,304.833 177,304.5C 176.506,306.134 176.34,307.801 176.5,309.5C 173.5,309.5 170.5,309.5 167.5,309.5C 167.5,306.833 167.5,304.167 167.5,301.5C 170.698,302.036 173.365,301.369 175.5,299.5C 176.461,297.735 176.795,295.735 176.5,293.5C 181.762,293.805 186.928,293.471 192,292.5C 192.5,284.173 192.666,275.84 192.5,267.5 Z"/></g>
<g><path style="opacity:1" fill="#70aab3" d="M 142.5,293.5 C 145.167,293.5 147.833,293.5 150.5,293.5C 150.5,296.167 150.5,298.833 150.5,301.5C 156.167,301.5 161.833,301.5 167.5,301.5C 167.5,304.167 167.5,306.833 167.5,309.5C 170.5,309.5 173.5,309.5 176.5,309.5C 184.507,309.334 192.507,309.5 200.5,310C 201.444,312.719 201.777,315.552 201.5,318.5C 201.5,320.833 201.5,323.167 201.5,325.5C 212.167,325.5 222.833,325.5 233.5,325.5C 233.025,322.918 233.692,320.918 235.5,319.5C 235.768,322.119 235.435,324.619 234.5,327C 223.5,327.667 212.5,327.667 201.5,327C 200.726,324.595 200.226,322.095 200,319.5C 199.586,319.043 199.086,318.709 198.5,318.5C 188.881,319.641 179.214,319.807 169.5,319C 168.584,318.626 167.75,318.126 167,317.5C 166.503,315.19 166.337,312.857 166.5,310.5C 161.125,310.828 155.792,310.495 150.5,309.5C 149.167,307.5 149.167,305.5 150.5,303.5C 147.694,302.832 145.028,302.166 142.5,301.5C 142.5,298.833 142.5,296.167 142.5,293.5 Z"/></g>
<g><path style="opacity:0.999" fill="#6da9b2" d="M 241.5,309.5 C 243.388,311.988 244.055,314.988 243.5,318.5C 254.5,318.5 265.5,318.5 276.5,318.5C 276.5,321.167 276.5,323.833 276.5,326.5C 289.172,326.206 301.839,325.706 314.5,325C 317.145,324.409 317.811,323.075 316.5,321C 318.439,317.513 321.439,316.013 325.5,316.5C 325.083,313.921 325.75,311.754 327.5,310C 333.157,309.501 338.824,309.334 344.5,309.5C 347.167,309.5 349.833,309.5 352.5,309.5C 344.684,310.492 336.684,310.826 328.5,310.5C 330.079,317.417 327.579,320.084 321,318.5C 319.893,321.225 319.059,324.059 318.5,327C 310.507,327.5 302.507,327.666 294.5,327.5C 294.5,330.167 294.5,332.833 294.5,335.5C 288.87,336.521 283.204,336.687 277.5,336C 275.686,333.519 275.02,330.685 275.5,327.5C 264.828,327.667 254.161,327.5 243.5,327C 241.68,324.395 241.014,321.728 241.5,319C 239.575,319.135 237.575,319.302 235.5,319.5C 233.692,320.918 233.025,322.918 233.5,325.5C 222.833,325.5 212.167,325.5 201.5,325.5C 201.5,323.167 201.5,320.833 201.5,318.5C 212.5,318.5 223.5,318.5 234.5,318.5C 234.5,315.5 234.5,312.5 234.5,309.5C 236.833,309.5 239.167,309.5 241.5,309.5 Z"/></g>
</svg>
